<svg width="14" height="16" viewBox="0 0 14 16" fill="none" xmlns="http://www.w3.org/2000/svg">
<path fill-rule="evenodd" clip-rule="evenodd" d="M12.5989 0.143311H4.48647C4.12144 0.144575 3.78282 0.336883 3.59057 0.652113L0.768869 3.51861C0.448867 3.71306 0.253233 4.06425 0.253908 4.44305V14.1175C0.253908 14.7111 0.727653 15.1924 1.31205 15.1924H12.5989C13.1833 15.1924 13.657 14.7111 13.657 14.1175V1.21825C13.657 0.624576 13.1833 0.143311 12.5989 0.143311ZM3.42829 2.33618V3.36812H2.41248L3.42829 2.33618ZM12.5988 14.1175H1.31201V4.47891H1.33317L1.35434 4.45741H4.48643V1.2756L4.50759 1.2541V1.2326H12.5847L12.5988 14.1175Z" fill="#EB2128"/>
</svg>
