<svg width="13" height="18" viewBox="0 0 13 18" fill="none" xmlns="http://www.w3.org/2000/svg">
<path d="M6.71701 9.63314C6.68625 8.8107 6.19431 8.05995 5.55631 7.55584C4.91851 7.05174 4.26055 6.73402 3.48892 6.49402C4.07722 6.55408 4.68425 6.40239 5.17884 6.07179C5.67364 5.7414 5.98673 5.13839 6.16783 4.56405C5.00509 4.34628 3.86618 4.12623 2.70344 3.90805C2.41357 3.85382 1.69286 5.38691 1.53296 5.64561C1.14205 6.2773 0.846474 7.03387 1.08644 7.78213C1.23086 8.23179 1.54722 8.59875 1.85542 8.95221C2.62888 9.83844 3.40214 10.7251 4.1754 11.6115V16.9206H9.19751V11.8625C10.589 10.9291 11.444 9.22005 11.3686 7.52301" stroke="#EB2128" stroke-linecap="round" stroke-linejoin="round"/>
<path d="M2.84911 3.83627C2.82997 3.19876 2.97276 2.55668 3.25998 1.98983C3.41134 1.69081 3.60811 1.40676 3.87985 1.2158C4.1516 1.02484 4.50767 0.938399 4.81954 1.04853C5.11491 1.15284 5.33532 1.41965 5.44898 1.71679C5.56224 2.01372 5.58078 2.33975 5.57161 2.6585C5.55471 3.24676 5.44756 3.83211 5.25506 4.38692" stroke="#EB2128" stroke-linecap="round" stroke-linejoin="round"/>
<path d="M5.66133 1.94584C5.98013 1.60859 6.40098 1.35197 6.85891 1.31353C7.31683 1.27529 7.80674 1.48683 8.03305 1.89472C8.24694 2.28101 8.20029 2.75747 8.13592 3.19654C8.05017 3.78438 7.94424 4.36911 7.81896 4.94947C7.73544 5.33618 7.63848 5.73181 7.41216 6.05347C6.95892 6.69701 5.98481 6.87841 5.33765 6.43997" stroke="#EB2128" stroke-linecap="round" stroke-linejoin="round"/>
<path d="M8.31254 2.5974C8.64457 2.28094 9.1907 2.27117 9.57937 2.51117C9.96804 2.75117 10.2051 3.19709 10.2783 3.65465C10.3518 4.112 10.2777 4.58182 10.1565 5.02857C9.96091 5.74878 9.61257 6.46816 8.998 6.87502C8.38363 7.28187 7.45943 7.26109 7.00537 6.6747" stroke="#EB2128" stroke-linecap="round" stroke-linejoin="round"/>
<path d="M10.313 3.96877C10.8526 3.73583 11.516 4.06726 11.7931 4.59401C12.0699 5.12097 12.0204 5.77448 11.8088 6.3322C11.5865 6.91796 11.162 7.4576 10.5766 7.65271C9.99112 7.84762 9.25086 7.59869 9.0166 7.01791" stroke="#EB2128" stroke-linecap="round" stroke-linejoin="round"/>
</svg>
