<svg width="18" height="18" viewBox="0 0 18 18" fill="none" xmlns="http://www.w3.org/2000/svg">
<path fill-rule="evenodd" clip-rule="evenodd" d="M8.50977 1.91489C8.82704 1.91489 9.08424 1.6577 9.08424 1.34043V0.574468C9.08424 0.257198 8.82704 0 8.50977 0C8.1925 0 7.9353 0.257198 7.9353 0.574468V1.34043C7.9353 1.6577 8.1925 1.91489 8.50977 1.91489Z" fill="#EB2128"/>
<path fill-rule="evenodd" clip-rule="evenodd" d="M16.7438 7.08508H15.9778C15.6606 7.08508 15.4034 7.34228 15.4034 7.65955C15.4034 7.97682 15.6606 8.23402 15.9778 8.23402H16.7438C17.0611 8.23402 17.3183 7.97682 17.3183 7.65955C17.3183 7.34228 17.0611 7.08508 16.7438 7.08508Z" fill="#EB2128"/>
<path fill-rule="evenodd" clip-rule="evenodd" d="M1.99912 7.65955C1.99912 7.34228 1.74192 7.08508 1.42465 7.08508H0.658697C0.341427 7.08508 0.0842285 7.34228 0.0842285 7.65955C0.0842285 7.97682 0.341427 8.23402 0.658697 8.23402H1.42465C1.74192 8.23402 1.99912 7.97682 1.99912 7.65955Z" fill="#EB2128"/>
<path fill-rule="evenodd" clip-rule="evenodd" d="M13.8446 3.85277C13.9969 3.85263 14.143 3.79202 14.2506 3.68426L14.7944 3.14426C15.0053 2.91791 14.9991 2.56519 14.7804 2.34642C14.5616 2.12765 14.2089 2.12143 13.9825 2.33234L13.4387 2.87234C13.2746 3.03663 13.2255 3.28354 13.3144 3.49807C13.4032 3.7126 13.6124 3.85256 13.8446 3.85277Z" fill="#EB2128"/>
<path fill-rule="evenodd" clip-rule="evenodd" d="M3.58082 2.87234L3.03699 2.33234C2.81064 2.12143 2.45792 2.12765 2.23915 2.34642C2.02038 2.56519 2.01416 2.91791 2.22507 3.14426L2.7689 3.68426C2.99525 3.89517 3.34797 3.88895 3.56674 3.67018C3.78551 3.45141 3.79173 3.09869 3.58082 2.87234Z" fill="#EB2128"/>
<path fill-rule="evenodd" clip-rule="evenodd" d="M15.0204 12.0638C14.794 11.8529 14.4413 11.8592 14.2225 12.0779C14.0038 12.2967 13.9976 12.6494 14.2085 12.8758L14.7523 13.4158C14.9786 13.6267 15.3314 13.6205 15.5501 13.4017C15.7689 13.1829 15.7751 12.8302 15.5642 12.6038L15.0204 12.0638Z" fill="#EB2128"/>
<path fill-rule="evenodd" clip-rule="evenodd" d="M1.99913 12.0638L1.4553 12.6038C1.24439 12.8302 1.25061 13.1829 1.46938 13.4017C1.68814 13.6205 2.04087 13.6267 2.26721 13.4158L2.81104 12.8758C3.02196 12.6494 3.01573 12.2967 2.79697 12.0779C2.5782 11.8592 2.22548 11.8529 1.99913 12.0638Z" fill="#EB2128"/>
<path fill-rule="evenodd" clip-rule="evenodd" d="M14.063 8.61701C14.0666 5.98653 12.1615 3.74186 9.56541 3.3179C6.96932 2.89395 4.44907 4.41593 3.61573 6.91093C2.7824 9.40592 3.88212 12.137 6.2119 13.3583C6.09245 13.5432 6.02864 13.7586 6.02807 13.9787V15.1276C6.02807 16.3967 7.05686 17.4255 8.32594 17.4255H9.0919C10.361 17.4255 11.3898 16.3967 11.3898 15.1276V13.9787C11.3892 13.7586 11.3254 13.5432 11.2059 13.3583C12.9636 12.4297 14.0632 10.6049 14.063 8.61701ZM10.2332 13.9787V14.3617H8.31828C8.00101 14.3617 7.74381 14.6189 7.74381 14.9361C7.74381 15.2534 8.00101 15.5106 8.31828 15.5106H10.1642C10.0023 15.9686 9.56995 16.2752 9.08424 16.2766H8.31828C7.68374 16.2766 7.16934 15.7622 7.16934 15.1276V13.9787H10.2332ZM8.70126 12.8298C6.37461 12.8298 4.48849 10.9436 4.48849 8.617C4.48849 6.29036 6.37461 4.40424 8.70126 4.40424C11.0279 4.40424 12.914 6.29036 12.914 8.617C12.914 9.73496 12.4697 10.8071 11.6788 11.5972C10.8879 12.3874 9.81539 12.8308 8.69743 12.8298H8.70126Z" fill="#EB2128"/>
<path fill-rule="evenodd" clip-rule="evenodd" d="M8.70124 5.36169C8.38397 5.36169 8.12677 5.61889 8.12677 5.93616C8.12677 6.25343 8.38397 6.51063 8.70124 6.51063C9.86369 6.51274 10.8055 7.45456 10.8076 8.61701C10.8076 8.93428 11.0648 9.19148 11.3821 9.19148C11.6994 9.19148 11.9566 8.93428 11.9566 8.61701C11.9544 6.82003 10.4982 5.3638 8.70124 5.36169Z" fill="#EB2128"/>
</svg>
