<svg width="14" height="15" viewBox="0 0 14 15" fill="none" xmlns="http://www.w3.org/2000/svg">
<path fill-rule="evenodd" clip-rule="evenodd" d="M6.4064 0.235714L0.2464 6.12857C0.0896 6.27857 0 6.49286 0 6.69643C0 6.9 0.0896 7.10357 0.2464 7.26429C0.4032 7.425 0.6272 7.5 0.84 7.5C1.0528 7.5 1.2768 7.41429 1.4336 7.26429L6.16 2.74286L6.16 14.1964C6.16 14.6357 6.5408 15 7 15C7.4704 15 7.84 14.6357 7.84 14.1964L7.84 2.74286L12.5664 7.26429C12.7344 7.425 12.9472 7.5 13.16 7.5C13.3728 7.5 13.5968 7.41429 13.7536 7.26429C13.9216 7.10357 14 6.9 14 6.69643C14 6.49286 13.9216 6.27857 13.7536 6.12857L7.5936 0.235714C7.4256 0.0857143 7.2128 0 7 0C6.7872 0 6.5744 0.0749998 6.4064 0.235714Z" fill="#241F20"/>
</svg>
