<svg width="14" height="16" viewBox="0 0 14 16" fill="none" xmlns="http://www.w3.org/2000/svg">
<path fill-rule="evenodd" clip-rule="evenodd" d="M11.9536 0H3.51275C3.29159 0.00164229 3.07248 0.042575 2.86564 0.120889L2.74475 0L2.25408 0.490667L2.17586 0.568889L0.917193 1.82756C0.824787 1.90302 0.740213 1.98759 0.664748 2.08L0.255859 2.48889L0.39097 2.528C0.302768 2.74111 0.256878 2.96936 0.255859 3.2V13.8667C0.255859 14.8485 1.0518 15.6444 2.03364 15.6444H9.5003C9.80222 15.6426 10.0986 15.563 10.3607 15.4133L10.6203 15.6302L11.9039 14.0907C12.5909 13.8323 13.0485 13.1784 13.0559 12.4444V0H11.9536ZM11.9892 1.06668V12.4445C11.9855 12.6408 11.8974 12.8261 11.7474 12.9529L11.5803 12.8142L11.303 13.1485H11.2781V1.41513H2.85498C3.00108 1.19417 3.24787 1.06077 3.51276 1.05957L11.9892 1.06668ZM6.30029 2.48889H7.72252V5.64622L6.89763 4.98489L6.30029 5.536V2.48889ZM2.03365 14.5778C1.64092 14.5778 1.32254 14.2594 1.32254 13.8667V3.2C1.32254 2.80727 1.64092 2.48889 2.03365 2.48889H5.23365V7.97511L6.94743 6.39289L8.78921 7.86489V2.48889H10.2114V13.8667C10.2114 14.2594 9.89305 14.5778 9.50032 14.5778H2.03365Z" fill="#EB2128"/>
</svg>
