<svg width="12" height="12" viewBox="0 0 12 12" fill="none" xmlns="http://www.w3.org/2000/svg">
<path fill-rule="evenodd" clip-rule="evenodd" d="M10.1603 5.85711C10.487 5.85711 10.758 6.12008 10.758 6.45477V8.3673C10.758 9.90529 9.50685 11.1564 7.96886 11.1564H2.7891C1.25111 11.1564 0 9.90529 0 8.3673V2.7891C0 1.25111 1.25111 0 2.7891 0H7.09228C7.41901 0 7.68995 0.262972 7.68995 0.597664C7.68995 0.924387 7.41901 1.19533 7.09228 1.19533H2.7891C1.91253 1.19533 1.19533 1.91253 1.19533 2.7891V8.3673C1.19533 9.24387 1.91253 9.96107 2.7891 9.96107H7.96886C8.84543 9.96107 9.56263 9.24387 9.56263 8.3673V6.45477C9.56263 6.12008 9.8256 5.85711 10.1603 5.85711ZM11.7701 0.765011C11.7701 0.892513 11.7302 1.02798 11.6346 1.13955L6.27952 7.50666L6.27156 7.51463C6.15999 7.6501 6.00062 7.72979 5.81733 7.72979C5.61014 7.72979 5.45076 7.63417 5.32326 7.46682C5.31529 7.45885 5.30732 7.45088 5.30732 7.44291L3.64183 5.07616L3.59402 5.00444C3.53824 4.90085 3.46652 4.78132 3.47449 4.66178C3.49042 4.46256 3.54621 4.26334 3.72152 4.16771C3.82512 4.11193 3.95262 4.06412 4.05621 4.06412C4.25543 4.06412 4.44669 4.14381 4.56622 4.31115H4.57419L5.86514 6.14399L10.7182 0.366568C10.8297 0.231098 10.9971 0.159378 11.1644 0.159378C11.2999 0.159378 11.4433 0.207191 11.5549 0.302817C11.6983 0.42235 11.7701 0.589696 11.7701 0.765011Z" fill="#EB2128"/>
</svg>
