<svg width="17" height="16" viewBox="0 0 17 16" fill="none" xmlns="http://www.w3.org/2000/svg">
<path fill-rule="evenodd" clip-rule="evenodd" d="M8.56624 0C4.24615 0 0.744019 3.50213 0.744019 7.82222C0.744019 12.1423 4.24615 15.6444 8.56624 15.6444C12.8863 15.6444 16.3885 12.1423 16.3885 7.82222C16.3885 3.50213 12.8863 0 8.56624 0ZM8.56624 14.5778C4.83525 14.5778 1.81069 11.5532 1.81069 7.82222C1.81069 4.09123 4.83525 1.06667 8.56624 1.06667C12.2972 1.06667 15.3218 4.09123 15.3218 7.82222C15.3218 11.5532 12.2972 14.5778 8.56624 14.5778Z" fill="#EB2128"/>
<path fill-rule="evenodd" clip-rule="evenodd" d="M11.5316 3.91111L7.13333 6.34667H7.10844L7.06222 6.37867L7.01244 6.42133L6.97688 6.464L6.93777 6.51733V6.54222L4.51644 11.0222C4.41903 11.2262 4.46076 11.4694 4.62058 11.6292C4.7804 11.789 5.0236 11.8307 5.22755 11.7333L9.62577 9.29778H9.65066L9.69689 9.26578L9.74666 9.22311L9.78222 9.18044L9.82133 9.12711V9.10222L12.2213 4.61155C12.3187 4.4076 12.277 4.1644 12.1172 4.00458C11.9574 3.84476 11.7142 3.80304 11.5102 3.90044L11.5316 3.91111ZM7.51733 7.70844L8.52 8.73955L6.312 9.96267L7.51733 7.70844ZM9.26311 7.97511L8.26044 6.944L10.4684 5.72089L9.26311 7.97511Z" fill="#EB2128"/>
<path fill-rule="evenodd" clip-rule="evenodd" d="M13.8995 7.46666H12.8329C12.6365 7.46666 12.4773 7.62585 12.4773 7.82222C12.4773 8.01858 12.6365 8.17777 12.8329 8.17777H13.8995C14.0959 8.17777 14.2551 8.01858 14.2551 7.82222C14.2551 7.62585 14.0959 7.46666 13.8995 7.46666Z" fill="#EB2128"/>
<path fill-rule="evenodd" clip-rule="evenodd" d="M4.6551 7.82222C4.6551 7.62585 4.49591 7.46666 4.29954 7.46666H3.23287C3.03651 7.46666 2.87732 7.62585 2.87732 7.82222C2.87732 8.01858 3.03651 8.17777 3.23287 8.17777H4.29954C4.49591 8.17777 4.6551 8.01858 4.6551 7.82222Z" fill="#EB2128"/>
<path fill-rule="evenodd" clip-rule="evenodd" d="M8.56625 11.7333C8.36988 11.7333 8.21069 11.8925 8.21069 12.0889V13.1556C8.21069 13.3519 8.36988 13.5111 8.56625 13.5111C8.76262 13.5111 8.9218 13.3519 8.9218 13.1556V12.0889C8.9218 11.8925 8.76262 11.7333 8.56625 11.7333Z" fill="#EB2128"/>
<path fill-rule="evenodd" clip-rule="evenodd" d="M8.56625 3.91111C8.76262 3.91111 8.9218 3.75192 8.9218 3.55555V2.48889C8.9218 2.29252 8.76262 2.13333 8.56625 2.13333C8.36988 2.13333 8.21069 2.29252 8.21069 2.48889V3.55555C8.21069 3.75192 8.36988 3.91111 8.56625 3.91111Z" fill="#EB2128"/>
</svg>
