<svg width="18" height="16" viewBox="0 0 18 16" fill="none" xmlns="http://www.w3.org/2000/svg">
<path fill-rule="evenodd" clip-rule="evenodd" d="M16.4 4.8H12.8V1.2C12.8 0.537258 12.2627 0 11.6 0H1.2C0.537258 0 0 0.537258 0 1.2V7.6C0 8.26274 0.537258 8.8 1.2 8.8H1.428L1.288 9.156C1.09894 9.62736 1.22708 10.1667 1.60794 10.5027C1.98881 10.8386 2.53992 10.8984 2.984 10.652L4.8 9.644V12.404C4.8 13.0667 5.33726 13.604 6 13.604H11.288L14.616 15.452C15.0601 15.6984 15.6112 15.6386 15.9921 15.3027C16.3729 14.9667 16.5011 14.4274 16.312 13.956L16.172 13.6H16.4C17.0627 13.6 17.6 13.0627 17.6 12.4V6C17.6 5.33726 17.0627 4.8 16.4 4.8ZM4.80001 6.00007V8.26807L2.40001 9.60007L3.20001 7.60007H1.20001V1.20007H11.6V4.80007H6.00001C5.33727 4.80007 4.80001 5.33733 4.80001 6.00007ZM16.4 12.4H14.4L15.2 14.4L11.6 12.4H6V6H16.4V12.4Z" fill="#EB2128"/>
<path fill-rule="evenodd" clip-rule="evenodd" d="M7.6 8.40005H14.8C15.1314 8.40005 15.4 8.13143 15.4 7.80006C15.4 7.4687 15.1314 7.20007 14.8 7.20007H7.6C7.26863 7.20007 7 7.4687 7 7.80006C7 8.13143 7.26863 8.40005 7.6 8.40005Z" fill="#EB2128"/>
<path fill-rule="evenodd" clip-rule="evenodd" d="M7.6 10.8H14.8C15.1314 10.8 15.4 10.5313 15.4 10.2C15.4 9.8686 15.1314 9.59998 14.8 9.59998H7.6C7.26863 9.59998 7 9.8686 7 10.2C7 10.5313 7.26863 10.8 7.6 10.8Z" fill="#EB2128"/>
</svg>
