<svg width="21" height="14" viewBox="0 0 21 14" fill="none" xmlns="http://www.w3.org/2000/svg">
<path d="M11.0311 7.86651L10.6 7.613L10.5935 7.62477L11.0311 7.86651ZM1 9.58314H0.5C0.5 9.85929 0.723858 10.0831 1 10.0831V9.58314ZM1 1V0.5C0.723858 0.5 0.5 0.723858 0.5 1H1ZM11.009 2.57449L10.5824 2.83558L10.5893 2.84622L11.009 2.57449ZM8.38497 6.77317L7.97056 6.49341L7.96909 6.49561L8.38497 6.77317ZM8.63963 5.18775H9.13973L9.13953 5.17762L8.63963 5.18775ZM8.38497 3.79914L7.96918 4.07684L7.97057 4.0789L8.38497 3.79914ZM3.96729 3.09937V2.59937C3.69114 2.59937 3.46729 2.82322 3.46729 3.09937H3.96729ZM3.96729 7.47294H3.46729C3.46729 7.74908 3.69114 7.97294 3.96729 7.97294V7.47294ZM20 13V13.5C20.2762 13.5 20.5 13.2762 20.5 13H20ZM11.7072 13H11.2072C11.2072 13.2762 11.431 13.5 11.7072 13.5V13ZM11.7072 4.41687V3.91687C11.431 3.91687 11.2072 4.14073 11.2072 4.41687H11.7072ZM14.7076 4.41687H15.2076C15.2076 4.14073 14.9838 3.91687 14.7076 3.91687V4.41687ZM14.7076 10.7148H14.2076C14.2076 10.991 14.4315 11.2148 14.7076 11.2148V10.7148ZM20 10.7148H20.5C20.5 10.4387 20.2762 10.2148 20 10.2148V10.7148ZM10.5935 7.62477C10.1172 8.48702 9.14871 9.08314 7.15598 9.08314V10.0831C9.34842 10.0831 10.7493 9.41093 11.4688 8.10826L10.5935 7.62477ZM7.15598 9.08314H1V10.0831H7.15598V9.08314ZM1.5 9.58314V1H0.5V9.58314H1.5ZM1 1.5H7.08955V0.5H1V1.5ZM7.08955 1.5C9.09328 1.5 10.1054 2.05585 10.5825 2.8355L11.4355 2.31348C10.6947 1.10315 9.24885 0.5 7.08955 0.5V1.5ZM10.5893 2.84622C10.9416 3.39044 11.0626 3.98236 11.0626 5.13303H12.0626C12.0626 3.92197 11.94 3.09248 11.4287 2.30276L10.5893 2.84622ZM11.0626 5.13303C11.0626 6.43748 10.9307 7.05083 10.6001 7.61309L11.4622 8.11994C11.9287 7.32639 12.0626 6.49646 12.0626 5.13303H11.0626ZM8.79938 7.05293C8.96845 6.80249 9.04257 6.45539 9.08245 6.1628C9.12537 5.84793 9.13963 5.50087 9.13963 5.18775H8.13963C8.13963 5.47599 8.1262 5.77403 8.09162 6.02773C8.054 6.3037 8.00079 6.44863 7.97057 6.49341L8.79938 7.05293ZM9.13953 5.17762C9.13371 4.89029 9.11327 4.58349 9.06806 4.30633C9.02573 4.04686 8.95179 3.74515 8.79938 3.51938L7.97057 4.0789C7.99531 4.11554 8.04316 4.23479 8.0811 4.46734C8.11616 4.68221 8.13448 4.9385 8.13973 5.19787L9.13953 5.17762ZM8.80076 3.52143C8.5732 3.18072 8.27586 2.9388 7.8912 2.79015C7.52207 2.64751 7.09463 2.59937 6.61347 2.59937V3.59937C7.04021 3.59937 7.32691 3.64416 7.53075 3.72293C7.71905 3.7957 7.85352 3.90366 7.96919 4.07684L8.80076 3.52143ZM6.61347 2.59937H3.96729V3.59937H6.61347V2.59937ZM3.46729 3.09937V7.47294H4.46729V3.09937H3.46729ZM3.96729 7.97294H6.59133V6.97294H3.96729V7.97294ZM6.59133 7.97294C7.60349 7.97294 8.34406 7.73516 8.80086 7.05073L7.96909 6.49561C7.78372 6.77336 7.46138 6.97294 6.59133 6.97294V7.97294ZM20 12.5H11.7072V13.5H20V12.5ZM12.2072 13V4.41687H11.2072V13H12.2072ZM11.7072 4.91687H14.7076V3.91687H11.7072V4.91687ZM14.2076 4.41687V10.7148H15.2076V4.41687H14.2076ZM14.7076 11.2148H20V10.2148H14.7076V11.2148ZM19.5 10.7148V13H20.5V10.7148H19.5Z" fill="#EB2128"/>
</svg>
