<svg width="444" height="117" viewBox="0 0 444 117" fill="none" xmlns="http://www.w3.org/2000/svg">
<path d="M26.7078 115C44.8278 115 51.4718 106.091 51.4718 52.486C51.4718 8.54499 43.7708 1.74999 27.1608 1.74999H0.584828C0.735828 17.756 0.886828 34.517 0.886828 58.526C0.886828 82.535 0.735828 98.843 0.584828 115H26.7078ZM23.9898 83.592H23.5368C23.3858 76.797 23.3858 69.096 23.3858 58.526C23.3858 47.956 23.5368 38.141 23.6878 28.93C23.8388 28.93 24.1408 28.93 24.2918 28.93C27.1608 28.93 28.3688 30.289 28.3688 56.412C28.3688 81.78 27.1608 83.592 23.9898 83.592ZM72.3877 90.085C70.8777 90.085 70.4247 88.122 70.4247 84.347C70.4247 82.233 70.5757 79.364 70.8777 76.042C69.2167 76.344 65.5927 76.344 62.1197 76.344C58.7977 76.344 55.3247 76.193 54.1167 76.042C53.6637 81.176 53.3617 85.706 53.3617 89.783C53.3617 107.752 58.4957 116.208 75.4077 116.208C90.3567 116.208 98.2087 107.752 98.2087 82.988C98.2087 62.905 92.9237 54.751 82.8067 45.54C77.5217 41.01 76.6157 37.839 76.6157 31.044C76.6157 27.42 77.3707 25.91 78.8807 25.91C80.5417 25.91 80.9947 27.722 80.9947 31.346C80.9947 33.158 80.8437 35.272 80.6927 37.839C82.5047 37.688 84.9207 37.688 88.0917 37.688C91.1117 37.688 94.7357 37.839 97.1517 37.99C97.4537 33.611 97.6047 29.685 97.6047 26.212C97.6047 7.94099 93.2257 0.541998 76.6157 0.541998C59.8547 0.541998 52.9087 8.243 52.9087 32.252C52.9087 52.788 55.9287 62.905 66.8007 70.757C72.2367 74.834 74.6527 76.193 74.6527 84.045C74.6527 88.273 74.0487 90.085 72.3877 90.085ZM150.706 115C148.139 85.857 144.213 16.246 143.458 1.74999H105.104C104.651 15.793 100.876 86.159 98.46 115H120.506C120.355 110.923 120.355 104.279 120.506 96.276C121.563 96.276 122.62 96.276 123.526 96.276C124.281 96.276 125.338 96.276 126.244 96.276C126.244 104.732 126.244 111.527 126.093 115H150.706ZM123.677 67.888C122.922 67.888 122.016 67.888 121.11 67.888C121.563 56.412 122.016 44.332 122.771 33.611C122.922 30.591 123.224 23.796 123.526 18.36H124.13C124.281 23.947 124.583 30.742 124.734 33.611C125.489 44.332 125.791 56.261 126.093 67.888C125.187 67.888 124.432 67.888 123.677 67.888ZM205.323 1.74999C205.323 9.602 204.266 33.158 203.36 51.882C203.209 56.563 202.907 62.452 202.756 67.888H202.152C202.152 62.452 202.001 56.261 201.699 51.882C200.793 32.554 200.642 7.94099 200.793 1.74999C197.924 1.74999 192.488 2.052 189.468 2.052C186.448 2.052 181.314 1.74999 178.445 1.74999C178.596 9.29999 177.237 33.158 176.18 51.882C176.029 56.563 175.878 62.452 175.727 67.888H175.123C174.972 62.452 174.972 56.412 174.821 52.033C173.915 33.007 173.915 7.94099 173.915 1.74999H150.661C152.926 30.893 157.154 100.504 157.909 115C159.57 114.849 163.496 114.698 170.291 114.698C175.425 114.698 179.955 115 182.673 115C183.126 110.47 183.73 96.729 184.485 81.629C184.938 72.418 185.391 61.395 185.693 51.429H186.599C186.75 61.546 186.901 72.418 187.052 81.478C187.354 96.276 187.807 109.866 188.109 115C189.77 114.849 194.149 114.698 201.548 114.698C206.682 114.698 211.212 115 214.081 115C214.836 102.165 219.064 30.742 221.178 1.74999H205.323ZM261.917 115C261.917 109.564 261.766 101.712 261.766 94.766C261.766 87.82 261.917 80.27 261.917 75.287C256.33 75.438 249.837 75.589 245.005 75.589V71.21C250.441 71.21 256.783 71.21 261.011 71.512C261.011 63.056 261.011 48.258 261.162 40.859C256.934 41.161 250.441 41.312 245.005 41.312V36.782C249.837 36.782 256.33 36.933 261.917 37.084C261.766 32.554 261.766 25.457 261.766 18.813C261.766 12.924 261.766 6.129 261.917 1.74999H222.808C222.959 18.058 223.11 34.366 223.11 58.375C223.11 82.535 222.959 98.692 222.808 115H261.917ZM304.239 115C304.239 109.564 304.088 101.712 304.088 94.766C304.088 87.82 304.239 80.27 304.239 75.287C298.652 75.438 292.159 75.589 287.327 75.589V71.21C292.763 71.21 299.105 71.21 303.333 71.512C303.333 63.056 303.333 48.258 303.484 40.859C299.256 41.161 292.763 41.312 287.327 41.312V36.782C292.159 36.782 298.652 36.933 304.239 37.084C304.088 32.554 304.088 25.457 304.088 18.813C304.088 12.924 304.088 6.129 304.239 1.74999H265.13C265.281 18.058 265.432 34.366 265.432 58.375C265.432 82.535 265.281 98.692 265.13 115H304.239ZM359.546 115C358.64 108.809 358.187 94.162 357.13 79.666C356.526 72.418 355.016 63.962 345.352 63.509V62.905C358.64 62.905 356.224 22.135 359.697 1.74999H336.292C336.292 7.78999 335.839 17.454 334.178 37.084C333.725 42.52 333.121 46.295 331.762 51.731H330.856C330.856 36.631 330.856 17.303 331.007 1.74999H307.602C307.753 18.058 307.904 34.366 307.904 58.375C307.904 82.535 307.753 98.692 307.602 115H331.007C330.856 102.165 330.856 87.367 330.856 70.908H332.517C334.933 80.119 335.084 99.749 335.386 111.074C335.537 114.094 336.443 115 339.01 115H359.546ZM392.981 115C392.83 108.054 392.83 97.786 392.83 89.028C392.83 81.327 392.83 72.871 392.981 67.284C390.716 67.435 388.451 67.586 386.337 67.586C386.337 64.264 386.337 60.942 386.337 57.469C386.337 34.064 386.639 9.753 386.79 1.74999H361.573C361.875 12.622 361.875 34.366 361.875 58.375C361.875 82.535 361.573 106.242 361.573 115H392.981ZM422.521 1.74999C422.521 7.488 421.917 26.816 421.011 46.144C420.709 50.372 420.407 56.865 419.954 62.452H419.35C418.897 56.865 418.595 50.523 418.444 46.144C417.538 26.816 417.387 7.488 417.538 1.74999H393.529C395.19 14.887 400.022 60.64 401.985 76.797C401.985 95.823 401.683 110.47 401.532 115C406.213 114.849 413.31 114.698 418.595 114.698C423.729 114.698 430.826 114.849 435.507 115C435.356 110.47 435.054 95.219 435.054 75.438C437.017 58.526 441.547 14.283 443.057 1.74999H422.521Z" fill="#E70109"/>
</svg>
