<svg width="20" height="20" viewBox="0 0 20 20" fill="none" xmlns="http://www.w3.org/2000/svg">
<path fill-rule="evenodd" clip-rule="evenodd" d="M18.8933 0H1.10667C0.493333 0 0 0.493333 0 1.10667V18.8933C0 19.5067 0.493333 20 1.10667 20H10.68V12.2533H8.06667V9.25333H10.68V7.02667C10.68 4.44 12.2667 3.04 14.56 3.04C15.6533 3.04 16.6133 3.10667 16.8933 3.16V5.85333H15.28C14.0267 5.85333 13.8 6.44 13.8 7.32V9.25333H16.7733L16.3867 12.2533H13.8V20H18.8933C19.5067 20 20 19.5067 20 18.8933V1.10667C20 0.493333 19.5067 0 18.8933 0Z" fill="#EB2128"/>
</svg>
