<svg width="15" height="16" viewBox="0 0 15 16" fill="none" xmlns="http://www.w3.org/2000/svg">
<path fill-rule="evenodd" clip-rule="evenodd" d="M13.9085 3.60382C14.0219 3.39156 14.082 3.15493 14.0837 2.91429C14.0837 2.04191 13.4704 0.914293 11.7027 0.914293C11.0234 0.977672 10.3598 1.15676 9.74084 1.44382L9.88179 1.24572C10.0116 1.08019 10.04 0.856693 9.9557 0.663951C9.87136 0.471209 9.68793 0.340403 9.47822 0.323457C9.26852 0.306511 9.06647 0.406166 8.95227 0.582864L7.5656 2.52191L6.4837 0.61715C6.32695 0.342585 5.97731 0.247073 5.70275 0.403816C5.42818 0.56056 5.33267 0.910204 5.48941 1.18477L5.74846 1.6381C5.00203 1.21773 4.17226 0.966715 3.31798 0.902864C2.58275 0.902864 2.14084 1.26096 1.6837 1.58477C1.22661 1.87036 0.941127 2.36424 0.921794 2.90286C0.923502 3.14351 0.983638 3.38013 1.09703 3.59239C0.601862 3.72755 0.257543 4.17625 0.255127 4.68953V6.62858C0.255127 7.25976 0.766802 7.77144 1.39798 7.77144V14.6286C1.39798 15.2598 1.90966 15.7714 2.54084 15.7714H12.4456C13.0768 15.7714 13.5885 15.2598 13.5885 14.6286V7.77144C14.2196 7.77144 14.7313 7.25976 14.7313 6.62858V4.70096C14.7313 4.19302 14.3961 3.74604 13.9085 3.60382ZM12.941 2.91429C12.9198 3.07406 12.8254 3.21487 12.6857 3.29524C12.4569 3.46485 12.1818 3.56055 11.8972 3.56952H8.56763C9.35169 2.643 10.4899 2.0898 11.7029 2.04572C12.6895 2.05714 12.941 2.63619 12.941 2.91429ZM1.41699 4.72382H6.75033V6.62858H1.41699V4.72382ZM3.32193 2.05713C4.53488 2.10121 5.67309 2.65441 6.45715 3.58093H3.13145C2.41526 3.58093 2.08765 3.16951 2.08765 2.93332C2.08765 2.69713 2.33526 2.05713 3.32193 2.05713ZM2.55981 7.77142H6.75029V14.6286H2.55981V7.77142ZM12.4647 14.6286H7.89331V7.77142H12.4647V14.6286ZM13.6076 6.62858H7.89331V4.72382H13.6076V6.62858Z" fill="#EB2128"/>
</svg>
