<svg width="21" height="15" viewBox="0 0 21 15" fill="none" xmlns="http://www.w3.org/2000/svg">
<path d="M4.61986 8.59299L4.01708 8.25289C3.782 8.03329 2.90507 8.05241 2.58338 8.05241H1.00586" stroke="#EB2128" stroke-linecap="round" stroke-linejoin="round"/>
<path d="M20.3999 8.27332H17.2217" stroke="#EB2128" stroke-linecap="round" stroke-linejoin="round"/>
<path d="M12.3091 3.26158L17.362 8.40639C17.7638 8.80818 17.7695 9.45774 17.3748 9.86647C16.9703 10.2855 16.3008 10.2913 15.889 9.87954L13.8054 7.79584L16.1777 10.1682C16.5521 10.5427 16.5525 11.1496 16.1786 11.5245C15.8039 11.9001 15.1956 11.9005 14.8204 11.5254L12.4481 9.15307L14.6661 11.3711C15.0043 11.7092 15.0026 12.258 14.6623 12.5941C14.3251 12.9272 13.7821 12.9255 13.4469 12.5903L11.2289 10.3723L13.0926 12.236C13.4492 12.5926 13.445 13.1721 13.0832 13.5235C12.7288 13.8679 12.1637 13.8637 11.8142 13.5143L11.1069 12.9444L10.5134 12.4662" stroke="#EB2128" stroke-linecap="round" stroke-linejoin="round"/>
<path fill-rule="evenodd" clip-rule="evenodd" d="M7.98267 10.2265C8.39389 9.82882 8.40434 9.17283 8.00599 8.76218C7.60847 8.35223 6.95395 8.34185 6.54356 8.73879L5.49495 9.98934C5.0845 10.3864 5.07322 11.0408 5.46966 11.4518C5.86692 11.8635 6.52285 11.8749 6.93407 11.4771L7.98267 10.2265Z" stroke="#EB2128" stroke-linecap="round" stroke-linejoin="round"/>
<path fill-rule="evenodd" clip-rule="evenodd" d="M6.92227 11.4803C6.57841 11.8389 6.59217 12.4088 6.95286 12.7504C7.31042 13.089 7.8742 13.0754 8.21507 12.72L9.28859 11.4642C9.62933 11.1088 9.61926 10.5448 9.26597 10.2018C8.90961 9.85581 8.33959 9.86601 7.99579 10.2245L6.92227 11.4803Z" stroke="#EB2128" stroke-linecap="round" stroke-linejoin="round"/>
<path fill-rule="evenodd" clip-rule="evenodd" d="M8.45479 12.4442C8.09774 12.7896 8.09003 13.3596 8.43765 13.7145C8.78221 14.0663 9.34618 14.0739 9.70012 13.7315L10.2238 13.1132C10.4008 12.942 10.492 12.7154 10.4966 12.4872C10.501 12.2589 10.4187 12.0289 10.2487 11.8508C9.9055 11.4917 9.33554 11.4804 8.97849 11.8258L8.45479 12.4442Z" stroke="#EB2128" stroke-linecap="round" stroke-linejoin="round"/>
<path fill-rule="evenodd" clip-rule="evenodd" d="M4.93133 8.20972C5.23639 7.9146 5.72159 7.91849 6.022 8.21832C6.32998 8.52567 6.32609 9.02585 6.01333 9.32829L5.54023 9.91036C5.22747 10.2129 4.72754 10.2002 4.43058 9.88226C4.14082 9.57204 4.15312 9.08696 4.45817 8.79185L4.93133 8.20972Z" stroke="#EB2128" stroke-linecap="round" stroke-linejoin="round"/>
<path d="M1.00586 2.29955H2.23742C3.09969 2.29955 4.20188 1.74959 4.74132 1.53662C5.35576 1.29421 6.18916 1.00515 7.20233 1.01076C8.21162 1.01637 9.53794 1.18958 10.5874 1.7826" stroke="#EB2128" stroke-linecap="round" stroke-linejoin="round"/>
<path d="M20.3999 2.29954H18.9792C18.1169 2.29954 17.0147 1.74959 16.4752 1.53662C15.8608 1.29421 15.0274 1.00515 14.0142 1.01076C12.8939 1.017 11.9497 0.876106 10.6028 1.75558C10.4465 1.85754 10.2848 1.97333 10.1168 2.10461L9.45535 2.65392C9.16323 2.93973 8.94128 3.43258 8.94313 3.94073L8.94701 5.19115C8.94893 5.79036 9.43521 6.27518 10.0345 6.27518C10.6351 6.27518 11.1219 5.78832 11.1219 5.18777V4.43428C11.1219 4.2375 11.2158 4.0525 11.3746 3.9362L12.3602 3.11669" stroke="#EB2128" stroke-linecap="round" stroke-linejoin="round"/>
</svg>
