<svg width="16" height="16" viewBox="0 0 16 16" fill="none" xmlns="http://www.w3.org/2000/svg">
<path fill-rule="evenodd" clip-rule="evenodd" d="M15.28 1.56739L11.4705 0.0792152C11.1449 -0.0459491 10.7785 -0.0185303 10.4762 0.153624C10.1739 -0.0185303 9.80752 -0.0459491 9.4819 0.0792152L5.67238 1.56739C5.62118 1.58742 5.57152 1.61104 5.52381 1.63807C5.4761 1.61104 5.42644 1.58742 5.37524 1.56739L1.56571 0.0792152C1.2135 -0.0577787 0.814647 -0.0152762 0.500972 0.192676C0.187298 0.400629 -0.000366613 0.746961 5.39509e-07 1.11721V13.3946C-0.000452849 13.852 0.284891 14.2634 0.720001 14.4326L4.52952 15.9208C4.85514 16.0459 5.22152 16.0185 5.52381 15.8464C5.8261 16.0185 6.19248 16.0459 6.5181 15.9208L10.3276 14.4326C10.3788 14.4126 10.4285 14.389 10.4762 14.3619C10.5239 14.389 10.5736 14.4126 10.6248 14.4326L14.4343 15.9208C14.7865 16.0578 15.1854 16.0153 15.499 15.8073C15.8127 15.5994 16.0004 15.253 16 14.8828V2.60538C16.0005 2.14799 15.7151 1.73662 15.28 1.56739ZM1.14282 13.3946V1.11719L4.95235 2.60536V14.8828L1.14282 13.3946ZM6.09521 14.8828V2.60536L9.90474 1.11719V13.3946L6.09521 14.8828ZM14.8571 14.8828L11.0476 13.3946V1.11719L14.8571 2.60536V14.8828Z" fill="#EB2128"/>
</svg>
