<svg width="15" height="13" viewBox="0 0 15 13" fill="none" xmlns="http://www.w3.org/2000/svg">
<path fill-rule="evenodd" clip-rule="evenodd" d="M13.3766 2.98104e-10H11.7898C11.1325 2.98104e-10 10.5997 0.529118 10.5997 1.18182V1.21727L3.78449 3.93939C3.61679 3.46835 3.16892 3.15292 2.66581 3.15152H1.47573C0.818463 3.15152 0.285645 3.68063 0.285645 4.33333V8.27273C0.285645 8.92543 0.818463 9.45455 1.47573 9.45455H2.66581C3.16746 9.45148 3.61331 9.13636 3.78052 8.66667L4.5144 8.98576C4.47324 9.06637 4.45151 9.15538 4.45093 9.24576C4.42831 10.3 5.02001 11.2727 5.97027 11.7433C6.32027 11.916 6.70607 12.0051 7.09688 12.0033C7.80291 11.9951 8.48208 11.7334 9.00895 11.2667C9.08522 11.1997 9.14263 11.1142 9.17556 11.0185L10.6235 11.6527C10.7366 12.2031 11.2242 12.5983 11.7898 12.5982H13.3766C14.0338 12.5982 14.5666 12.0691 14.5666 11.4164V1.17394C14.5623 0.524318 14.0307 -1.44362e-05 13.3766 2.98104e-10ZM2.66582 8.27271H1.47574V4.33331H2.66582V8.27271ZM10.5997 10.4394L3.8559 7.45335V5.16456L10.5997 2.45032V10.4394ZM6.50185 10.6994C6.02948 10.4694 5.71004 10.0137 5.65689 9.49396L8.03706 10.53C7.59234 10.8543 7.00739 10.9188 6.50185 10.6994ZM13.3765 11.4242H11.7898V1.18182H13.3765V11.4242Z" fill="#EB2128"/>
</svg>
