<svg xmlns="http://www.w3.org/2000/svg" viewBox="0 0 70 50"><defs><style>.a{fill:#ec1f27;}</style></defs><title>navdsalogo copy</title><path d="M54.22,37.77c-.62,0-6.13.15-7.26.43a6.77,6.77,0,0,1-2.76-.3.48.48,0,0,0-.6.31.49.49,0,0,0,.31.61,9.8,9.8,0,0,0,2.47.41,3.4,3.4,0,0,0,.81-.09c.87-.22,5.39-.37,7.06-.41a.48.48,0,0,0,.47-.49A.49.49,0,0,0,54.22,37.77Z"/><line class="a" x1="39.42" y1="17.42" x2="39.74" y2="17.49"/><path class="a" d="M53.82,21.93a.55.55,0,0,0,0-.17h0a0,0,0,0,0,0,0,.32.32,0,0,0,0-.14l0-.06,0-.05a14.64,14.64,0,0,0-7.65-4.66,4.25,4.25,0,0,0,1.46-3.15,4.78,4.78,0,0,0-1.74-3.56,3.77,3.77,0,0,0,.28-1.33,4.6,4.6,0,0,0-1.73-3.6A5.56,5.56,0,0,0,41.55,4a.06.06,0,0,1,0,0A6,6,0,0,0,36.29,1a6,6,0,0,0-4.75,2,2.85,2.85,0,0,0-1.29-.57,4,4,0,0,0-3.68,1.62,6.4,6.4,0,0,0-1.33,4.77,5.24,5.24,0,0,0-2.62,4.59A7,7,0,0,0,24,17.62a14.76,14.76,0,0,0-5.7,4.67.25.25,0,0,1,0,.07,0,0,0,0,1,0,0,.51.51,0,0,0,0,.17h0a0,0,0,0,0,0,0,.41.41,0,0,0,0,.16h0a9.18,9.18,0,0,0,4.31,4.33,23.48,23.48,0,0,1-6.81,1,.49.49,0,0,0-.49.48.48.48,0,0,0,.49.48,26.46,26.46,0,0,0,8.41-1.47,15.52,15.52,0,0,1,4.5-.93,6.5,6.5,0,0,1,4.58,1.58l1,1a.52.52,0,0,0,.35.14.51.51,0,0,0,.34-.14.5.5,0,0,0,0-.68l-.23-.23V21a.23.23,0,0,1,.23-.23.23.23,0,0,1,.24.23v7a.49.49,0,0,0,.48.48.48.48,0,0,0,.48-.48V26a5.89,5.89,0,0,0,1.31,1,.48.48,0,0,0,.66-.16.48.48,0,0,0-.16-.66,4.7,4.7,0,0,1-1.81-1.88V23l2.18-.09,1.06,3.34a.47.47,0,0,0,.46.33.36.36,0,0,0,.14,0,.48.48,0,0,0,.32-.6l-1-3.1,1.5-.06,1.73,3.1a.49.49,0,0,0,.42.24.53.53,0,0,0,.24-.06.48.48,0,0,0,.18-.65l-1.5-2.68L45,22.63l2.16,3.53-.37.16a.48.48,0,0,0,.18.93.65.65,0,0,0,.19,0c.31-.13.62-.28.91-.43h0a16.78,16.78,0,0,0,5.68-4.72.25.25,0,0,0,0-.07S53.82,22,53.82,21.93Zm-14.46,0,2.09-4.49a4.48,4.48,0,0,1,.88-.1,16.15,16.15,0,0,1,2,.14l-3.48,4.38ZM31.63,5.58A3.67,3.67,0,0,1,32,5.31a3.79,3.79,0,0,0,2.36,1.43,4,4,0,0,0,.49,0,4.62,4.62,0,0,0,2.61-.93A7.46,7.46,0,0,1,35.83,8a1.9,1.9,0,0,1-1.43.57,5.64,5.64,0,0,1-3.14-1.73c0-.25.06-.5.1-.75A1.23,1.23,0,0,1,31.63,5.58Zm1.6-.4a2.07,2.07,0,0,1,1.84-1c.75,0,1.12.59,1.31,1.19a3.07,3.07,0,0,1-1.86.41A2.59,2.59,0,0,1,33.23,5.18Zm-2,2.9a5.71,5.71,0,0,0,3.18,1.46,2.86,2.86,0,0,0,2.14-.83,7.09,7.09,0,0,0,2.25-3.66,2.39,2.39,0,0,1,1.32.62,1.34,1.34,0,0,1,.31,1.08,6.82,6.82,0,0,1-3.5,4.58,5.31,5.31,0,0,1-5.38-.59A9.85,9.85,0,0,1,31.18,8.08Zm3.63,4.69a5.61,5.61,0,0,0,2.49-.58,7.69,7.69,0,0,0,4-5.29,6.39,6.39,0,0,1,2.25,5.15c0,2.08-.65,3.59-1.89,4.36h0a6.1,6.1,0,0,0-.72.14h0A9.59,9.59,0,0,0,39.7,17l-.17,0h-.05s-4.37-.53-6.75-3.68a8.29,8.29,0,0,1-.7-1.14A6.6,6.6,0,0,0,34.81,12.77Zm10.62,4.89a14.89,14.89,0,0,1,1.92.57L45,21.67l-2.83.12Zm2.83.95c.45.2.86.42,1.25.64l-1.25,2.27-2.08.09Zm2.07,1.15a13.79,13.79,0,0,1,2,1.58l-2.91.13ZM46.6,13.67a3.35,3.35,0,0,1-1.79,2.89c-.53-.08-1.07-.14-1.63-.17a6.32,6.32,0,0,0,1.36-4.34c0-.09,0-.17,0-.25a4.85,4.85,0,0,0,.8-.84A3.79,3.79,0,0,1,46.6,13.67ZM45.14,8.75a2.94,2.94,0,0,1-.72,1.82,6.83,6.83,0,0,0-3.25-4.95,2.38,2.38,0,0,0-.39-.6l-.17-.17a5.16,5.16,0,0,1,3.13,1.06A3.67,3.67,0,0,1,45.14,8.75ZM36.29,2a5,5,0,0,1,4,1.92,11,11,0,0,0-2.11.17l0,0h0l0,0h0l-.08,0,0,0q-.41.38-.78.66a2.27,2.27,0,0,0-2.14-1.61,3,3,0,0,0-2.49,1.2,4.06,4.06,0,0,0-.37-.72A5,5,0,0,1,36.29,2Zm-9,2.7a3.05,3.05,0,0,1,2.77-1.28A2,2,0,0,1,31.22,4l0,0a2,2,0,0,1,.3.44,3.72,3.72,0,0,0-.55.39,2,2,0,0,0-.51.83A8.17,8.17,0,0,0,28.31,7.6a9.31,9.31,0,0,0-2.15.71A5.4,5.4,0,0,1,27.32,4.66Zm-3.74,8.75a4.4,4.4,0,0,1,2.48-4,8.17,8.17,0,0,1,1.48-.64,6.79,6.79,0,0,0-.5,1.29A9,9,0,0,0,28.29,17c-.33,0-.67,0-1,0a8.18,8.18,0,0,0-2.29.33A6.2,6.2,0,0,1,23.58,13.41Zm8.3,12.88a8.18,8.18,0,0,0-2.38-.55l1.57-2.69h2.69v1.31a4.56,4.56,0,0,1-1.88,1.92Zm-6.07-.17,2-3.07H30L28.4,25.71A12.15,12.15,0,0,0,25.81,26.12ZM24,26.65l-.13-.06a7.81,7.81,0,0,1-1.2-.56l2-3h2L24.41,26.5a0,0,0,0,1,0,0ZM26.1,18,27,22.08H24.71l-2-2.63A9.13,9.13,0,0,1,26.1,18Zm2.47,0,1.53,4.09H28l-.88-4.16h.2A10.68,10.68,0,0,1,28.57,18Zm5.19,3v1.12H31.13l-1.47-3.91a7.47,7.47,0,0,1,4.1,2.24ZM21.89,20l1.6,2.07H19.72A15.85,15.85,0,0,1,21.89,20Zm-2.37,3h4l-1.7,2.47A8.77,8.77,0,0,1,19.52,23.05Zm13.37,3.73a6.23,6.23,0,0,0,.87-.77V27.4A5,5,0,0,0,32.89,26.78Zm2.07-7a1.16,1.16,0,0,0-.42.08,8.45,8.45,0,0,0-5-2.69c-1.57-2.51-2.09-4.8-1.54-6.8A6.57,6.57,0,0,1,30.27,7a10.83,10.83,0,0,0,.35,4.12.19.19,0,0,0,0,.08A8.31,8.31,0,0,0,32,13.84a11.22,11.22,0,0,0,6.34,3.86,17.87,17.87,0,0,0-2.91,2.15A1,1,0,0,0,35,19.76Zm1.2,1.2v-.5a16,16,0,0,1,4-2.64L38.27,22l-2.11.09Zm9.92,1.62,2.24-.1,1.53,2.06A15.52,15.52,0,0,1,48,25.73Zm4.53,1.36-1.13-1.51,2.83-.13A16.14,16.14,0,0,1,50.61,23.94Z"/><path class="a" d="M23.6,40.57c-2.83-3.65-7.72-2.71-7.93-2.67a.48.48,0,1,0,.19.94c.05,0,4.51-.86,7,2.32a7.59,7.59,0,0,0,.73.78.49.49,0,0,0,.32.12.51.51,0,0,0,.36-.15.49.49,0,0,0,0-.68A5.46,5.46,0,0,1,23.6,40.57Z"/><path class="a" d="M44,37.63l-.13-.13-6.31-6.31a.48.48,0,0,0-.68.68l6.31,6.31.14.14c.5.48,1.81,1.77,1.82,2.74a.81.81,0,0,1-.26.61,1.18,1.18,0,0,1-.85.38,2.41,2.41,0,0,1-1.42-.7c-.28-.29-.56-.54-.78-.74l-.22-.2-2.08-2.08-.68.68L41,41.09l.27.25c.44.39,1.49,1.32,1.52,2a.62.62,0,0,1-.21.47.88.88,0,0,1-.69.31,1.92,1.92,0,0,1-1.15-.68h0a5.66,5.66,0,0,0-.47-.54l-2.5-2.51-.69.68,2.51,2.51a2.48,2.48,0,0,1,.73,1.1.89.89,0,0,1-.29.89c-.48.47-1.19.13-1.42,0a2.82,2.82,0,0,0-.43-.55c-.58-.59-2.07-2.27-2.09-2.28a.48.48,0,0,0-.68,0,.49.49,0,0,0,0,.68c.06.07,1.53,1.72,2.13,2.32a1.65,1.65,0,0,1,.47.85.91.91,0,0,1-.28.82.46.46,0,0,1-.35.13c-.32,0-1.08-.23-2.54-1.74a.49.49,0,0,0-.68,0,.48.48,0,0,0,0,.68c1.32,1.37,2.37,2,3.23,2h0a1.41,1.41,0,0,0,1-.42,1.9,1.9,0,0,0,.57-1.33,2.07,2.07,0,0,0,.5.06,1.77,1.77,0,0,0,1.27-.52,1.89,1.89,0,0,0,.6-1.27,1.84,1.84,0,0,0,.53.1h.08a1.88,1.88,0,0,0,1.34-.6,1.59,1.59,0,0,0,.49-1.18,1.49,1.49,0,0,0-.05-.36A2.3,2.3,0,0,0,44,43h0a2.1,2.1,0,0,0,1.51-.67,1.78,1.78,0,0,0,.54-1.3C46.11,39.68,44.64,38.25,44,37.63Z"/><path d="M34,43.26a1.75,1.75,0,0,0-.44.07,2.65,2.65,0,0,0,.3-1.14,1.78,1.78,0,0,0-.54-1.29,1.47,1.47,0,0,0-1.05-.44,1.91,1.91,0,0,0-.77.17A1.75,1.75,0,0,0,31,39.44a1.89,1.89,0,0,0-2.42,0v-.12a1.37,1.37,0,0,0-.42-1,1.25,1.25,0,0,0-.87-.35c-.81,0-1.57.76-2.18,1.38l-.12.12a9.57,9.57,0,0,0-1.37,1.69c-.72,1.23-.44,1.93-.07,2.3a1.34,1.34,0,0,0,.94.4,1.51,1.51,0,0,0,.48-.09,1.62,1.62,0,0,0,.35,1.68,1.75,1.75,0,0,0,1.24.53,2,2,0,0,0,.54-.08,1.56,1.56,0,0,0,.44,1.39,1.53,1.53,0,0,0,1.12.48h0A2.57,2.57,0,0,0,30,47.24a1.47,1.47,0,0,0,.3,1.35,1.16,1.16,0,0,0,.91.41h0c1.42,0,3.35-2.16,3.91-3.56.4-1,.14-1.51-.14-1.78A1.39,1.39,0,0,0,34,43.26Zm-9.83-.49c-.25-.24,0-.8.21-1.12a8.29,8.29,0,0,1,1.22-1.5l.13-.13c.4-.4,1.08-1.09,1.49-1.09a.25.25,0,0,1,.2.09.39.39,0,0,1,.13.31,4.4,4.4,0,0,1-1.43,2.29L26,41.8c-.38.38-1.07,1.1-1.53,1.1A.33.33,0,0,1,24.19,42.77Zm1.76,2c-.56-.56.49-2.12,1.78-3.4s2.08-1.67,2.56-1.22c.18.17.56.52-.15,1.42-.27.23-.53.49-.79.74a11.94,11.94,0,0,0-1.78,2.22C27.17,44.87,26.48,45.29,26,44.77Zm2.22,1.84c-.6-.6.5-2.25,1.87-3.62.2-.2.47-.47.76-.73l0,0h0a2.7,2.7,0,0,1,1.44-.8.48.48,0,0,1,.36.16.78.78,0,0,1,.26.61c0,.94-1.31,2.24-1.86,2.79l-.14.14-.22.22c-.53.55-1.43,1.47-2.08,1.47A.57.57,0,0,1,28.17,46.61Zm6.08-1.53c-.53,1.3-2.21,3-3,3a.19.19,0,0,1-.18-.08c-.37-.42.24-1.59,1.49-2.84A2.61,2.61,0,0,1,34,44.23a.43.43,0,0,1,.31.12C34.41,44.42,34.41,44.68,34.25,45.08Z"/><path d="M31.28,34c0-2.1,3.3-4.5,4.88-5.65.35-.25.62-.44.8-.59,1.09-.9,3.38-1.44,6.12-1.44a8.46,8.46,0,0,1,5,1.79c1.37,1,5.71,1.05,6.19,1.05a.48.48,0,1,0,0-1h0c-1.73,0-4.73-.23-5.57-.86a9.41,9.41,0,0,0-5.54-2c-3,0-5.46.61-6.73,1.66-.16.14-.44.33-.75.56-1.84,1.34-5.27,3.82-5.29,6.41,0,.27-.18,2.62.89,3.79a2,2,0,0,0,1.54.67,1.72,1.72,0,0,0,1.3-.52c.69-.72.63-2,.58-3a4.53,4.53,0,0,1,0-1.08c.56-.72,1.77-1.79,2.6-1.79a.48.48,0,0,0,0-1c-1.38,0-2.9,1.56-3.36,2.16-.28.35-.25.92-.21,1.72s.09,1.91-.32,2.34a.74.74,0,0,1-.6.21,1,1,0,0,1-.83-.35c-.68-.74-.69-2.47-.64-3.08A.06.06,0,0,0,31.28,34Z"/></svg>