<svg width="11" height="18" viewBox="0 0 11 18" fill="none" xmlns="http://www.w3.org/2000/svg">
<path fill-rule="evenodd" clip-rule="evenodd" d="M10.4505 2.96003C10.4505 1.41364 9.22476 0.160034 7.71273 0.160034H3.01939C1.50736 0.160034 0.281616 1.41364 0.281616 2.96003V14.96C0.281616 16.5064 1.50736 17.76 3.01939 17.76H7.71273C9.22476 17.76 10.4505 16.5064 10.4505 14.96V2.96003ZM1.45496 3.76001H9.27718V13.36H1.45496V3.76001ZM3.01945 1.36005H7.71279C8.42428 1.36241 9.04461 1.85549 9.22248 2.56005H1.50977C1.68764 1.85549 2.30796 1.36241 3.01945 1.36005ZM7.71273 16.5601H3.0194C2.15538 16.5601 1.45496 15.8437 1.45496 14.9601V14.5601H9.27718V14.9601C9.27718 15.8437 8.57675 16.5601 7.71273 16.5601Z" fill="#EB2128"/>
</svg>
