<svg width="16" height="16" viewBox="0 0 16 16" fill="none" xmlns="http://www.w3.org/2000/svg">
<path fill-rule="evenodd" clip-rule="evenodd" d="M8.07833 0.23114C3.75823 0.23114 0.256104 3.73327 0.256104 8.05336C0.256104 12.3735 3.75823 15.8756 8.07833 15.8756C12.3984 15.8756 15.9005 12.3735 15.9005 8.05336C15.9005 3.73327 12.3984 0.23114 8.07833 0.23114ZM1.32276 8.05337C1.32254 5.09463 3.24767 2.48003 6.07305 1.60179C8.89843 0.723545 11.9666 1.78604 13.6437 4.22351C15.3208 6.66099 15.2167 9.9062 13.3868 12.2311C12.5717 11.0172 11.3892 10.0963 10.0125 9.60359C10.6075 8.96675 10.9336 8.1248 10.9228 7.25337C10.9228 5.47559 9.64631 4.05337 8.07831 4.05337C6.51031 4.05337 5.23387 5.47559 5.23387 7.25337C5.22503 8.1559 5.57853 9.02427 6.2152 9.66403C4.82879 10.1617 3.65939 11.1274 2.90853 12.3947C1.88354 11.1804 1.32173 9.6424 1.32276 8.05337ZM8.25608 9.29783C8.06129 9.29863 7.86667 9.30931 7.67297 9.32983C6.80767 9.01604 6.25009 8.17245 6.30052 7.25339C6.30052 6.0765 7.09697 5.12006 8.0783 5.12006C9.05963 5.12006 9.85608 6.0765 9.85608 7.25339C9.89989 8.14659 9.37547 8.97026 8.54763 9.3085C8.45163 9.30494 8.35563 9.29783 8.25608 9.29783ZM3.69792 13.2089C4.47072 11.7002 5.93017 10.6626 7.60903 10.4285C7.95516 10.496 8.31185 10.4876 8.65437 10.4036C10.3136 10.6276 11.7785 11.5999 12.6295 13.0418C10.122 15.3562 6.27941 15.428 3.68726 13.2089H3.69792Z" fill="#EB2128"/>
</svg>
