<svg width="37" height="34" viewBox="0 0 37 34" fill="none" xmlns="http://www.w3.org/2000/svg">
<path d="M15.6176 5.17928C14.3946 6.01365 15.1784 7.18756 16.4606 7.73487C17.2306 8.06437 18.0861 8.1124 18.9214 8.11184C19.6409 8.11184 20.4685 8.02137 20.8765 7.41877C21.1848 6.96194 21.1381 6.32025 20.859 5.84499C20.5798 5.36916 20.1049 5.04134 19.6031 4.82577C16.9531 3.68703 13.7376 5.73552 12.9424 8.39276C12.5272 9.77778 12.6216 11.2745 12.9249 12.6891C13.6992 16.3064 15.9209 19.5316 18.8748 21.661C21.5412 23.5822 25.5596 24.3507 28.2431 22.0497C30.2448 20.3335 31.0943 17.4602 30.7252 14.8219C30.3562 12.1837 28.3577 9.45945 26.4442 7.64105" stroke="#EB2128" stroke-width="2" stroke-linecap="round" stroke-linejoin="round"/>
<path d="M12.8915 9.5402C14.0064 11.0213 16.1618 11.9578 17.9656 11.6306C19.7699 11.3028 21.3422 9.89036 21.8863 8.10826C22.0201 7.67098 22.0947 7.19571 21.962 6.75843C21.8292 6.32114 21.4431 5.9397 20.9934 5.93858" stroke="#EB2128" stroke-width="2" stroke-linecap="round" stroke-linejoin="round"/>
<path d="M21.3299 5.84822C22.3067 4.79102 24.1231 4.85636 25.2002 5.80689C26.2773 6.75686 26.6398 8.36974 26.3459 9.78994C26.053 11.2102 25.1892 12.4505 24.1609 13.4558C21.6842 15.8785 18.1205 17.101 14.7087 16.6989" stroke="#EB2128" stroke-width="2" stroke-linecap="round" stroke-linejoin="round"/>
<path d="M13.0911 7.49339C9.67494 8.94711 7.72637 12.3432 7.64794 16.1129C7.57007 19.8826 9.83563 23.5982 13.1893 25.1982C16.5424 26.7971 20.9956 25.9421 23.7899 23.4681" stroke="#EB2128" stroke-width="2" stroke-linecap="round" stroke-linejoin="round"/>
<path d="M25.4899 5.47269C26.8577 5.02032 28.396 5.19178 29.676 5.8586C30.9561 6.52542 31.9761 7.66527 32.5893 8.98942C33.0626 10.0103 33.3023 11.1753 33.0714 12.2788C32.8405 13.383 32.0858 14.4038 31.035 14.7624" stroke="#EB2128" stroke-width="2" stroke-linecap="round" stroke-linejoin="round"/>
<path d="M32.7425 13.9363C34.7618 15.0588 35.5987 17.7993 34.9126 20.0349C34.2271 22.2704 32.2687 23.9487 30.0821 24.678C27.8966 25.4074 24.8725 25.1086 22.6245 24.6149" stroke="#EB2128" stroke-width="2" stroke-linecap="round" stroke-linejoin="round"/>
<path d="M9.19598 10.529C6.12532 10.4703 3.66122 12.1 2.09436 14.789C0.527493 17.4786 0.631695 21.1289 2.481 23.6252C5.11017 27.1755 10.9016 26.9538 14.7088 25.8614" stroke="#EB2128" stroke-width="2" stroke-linecap="round" stroke-linejoin="round"/>
<path d="M4.94775 11.4543C5.21045 9.81178 5.55048 7.88168 6.35064 6.4302C7.15135 4.97872 8.48458 3.75007 10.0948 3.46469C11.705 3.17987 13.6711 4.35769 14.1844 5.93874" stroke="#EB2128" stroke-width="2" stroke-linecap="round" stroke-linejoin="round"/>
<path d="M13.4167 4.31593C15.0231 2.15965 17.7055 0.881857 20.361 1.00863C23.0165 1.13541 25.5694 2.6634 26.9712 4.96376" stroke="#EB2128" stroke-width="2" stroke-linecap="round" stroke-linejoin="round"/>
<path d="M7.26477 26.4933C7.29877 29.1176 9.03126 31.6358 11.4416 32.5651C14.1827 33.6223 18.0162 32.722 19.6341 30.1927" stroke="#EB2128" stroke-width="2" stroke-linecap="round" stroke-linejoin="round"/>
<path d="M31.7983 24.1716C32.8107 26.0101 32.3385 28.4758 30.9236 30.0133C29.5081 31.5513 27.3171 32.2025 25.2561 32.0076C22.0412 31.7032 18.0651 28.998 16.3298 26.2173" stroke="#EB2128" stroke-width="2" stroke-linecap="round" stroke-linejoin="round"/>
</svg>
