<svg width="14" height="16" viewBox="0 0 14 16" fill="none" xmlns="http://www.w3.org/2000/svg">
<path fill-rule="evenodd" clip-rule="evenodd" d="M12.8226 3.26962H10.5898C10.3394 1.57739 8.84338 0.320801 7.07906 0.320801C5.31473 0.320801 3.81868 1.57739 3.56829 3.26962H1.33547C0.7407 3.26962 0.258545 3.7368 0.258545 4.3131V14.7479C0.258545 15.3242 0.7407 15.7914 1.33547 15.7914H12.8226C13.4174 15.7914 13.8996 15.3242 13.8996 14.7479V4.3131C13.8996 3.7368 13.4174 3.26962 12.8226 3.26962ZM7.07906 1.35657C8.22239 1.42938 9.19166 2.19804 9.49136 3.26961H4.66675C4.96645 2.19804 5.93572 1.42938 7.07906 1.35657ZM12.8226 14.7479H1.33545V4.31311H3.4893V5.35659C3.4893 5.64474 3.73037 5.87833 4.02776 5.87833C4.32514 5.87833 4.56622 5.64474 4.56622 5.35659V4.31311H9.59186V5.35659C9.59186 5.64474 9.83294 5.87833 10.1303 5.87833C10.4277 5.87833 10.6688 5.64474 10.6688 5.35659V4.31311H12.8226V14.7479Z" fill="#EB2128"/>
</svg>
