<svg width="29" height="28" viewBox="0 0 29 28" fill="none" xmlns="http://www.w3.org/2000/svg">
<path fill-rule="evenodd" clip-rule="evenodd" d="M14.1693 2.00041L18.2182 10.6689H26.9907L20.9174 16.6702L22.2671 26.0055L14.1693 20.5577L6.07162 26.0055L8.09605 16.6702L2.02276 10.6689H10.1205L14.1693 2.00041ZM14.1693 0C13.3811 0.000667987 12.6649 0.453379 12.3338 1.16025L8.8248 8.6685H2.02271C1.20446 8.66921 0.467094 9.15659 0.15406 9.90363C-0.158975 10.6507 0.0138791 11.5105 0.592111 12.0826L5.88262 17.3103L4.08088 25.5787C3.90741 26.378 4.24355 27.2012 4.92982 27.6577C5.61608 28.1142 6.51437 28.1121 7.1985 27.6525L14.1625 22.9849L21.1131 27.6525C21.7756 28.0988 22.6422 28.1166 23.323 27.698C24.0037 27.2794 24.3703 26.5032 24.2577 25.7188L23.0565 17.3703L28.4145 12.0759C28.9871 11.5041 29.1574 10.6489 28.8467 9.90539C28.536 9.16184 27.8048 8.67453 26.9907 8.6685H19.5138L16.0048 1.16025C15.6737 0.453379 14.9575 0.000667987 14.1693 0Z" fill="#EB2128"/>
</svg>
