<svg width="25" height="20" viewBox="0 0 25 20" fill="none" xmlns="http://www.w3.org/2000/svg">
<path fill-rule="evenodd" clip-rule="evenodd" d="M17.3056 0C14.4722 0 12.1806 2.25333 12.1806 5.05333C12.1806 5.42667 12.2361 5.81333 12.3056 6.2C8.125 6 4.30556 4.02667 1.75 0.92C1.29167 1.70667 1.04167 2.54667 1.04167 3.46667C1.04167 5.2 1.93056 6.74667 3.33333 7.66667C2.5 7.64 1.72222 7.42667 1.01389 7.02667V7.09333C1.01389 9.53333 2.76389 11.56 5.125 12.0533C4.68056 12.16 4.23611 12.2133 3.77778 12.2133C3.47222 12.2133 3.15278 12.1867 2.80556 12.1467C3.45833 14.16 5.375 15.6 7.59722 15.64C5.73611 17.08 3.61111 17.8 1.23611 17.8C0.777778 17.8 0.361111 17.7867 0 17.7333C2.375 19.2533 5 20 7.86111 20C9.69444 20 11.3889 19.72 12.9861 19.1467C16.1806 18.0133 18.375 16.0667 20.0139 13.5733C21.6528 11.0933 22.4444 8.34667 22.4444 5.64C22.4444 5.34667 22.4444 5.12 22.4306 4.98667C23.4306 4.26667 24.2917 3.38667 25 2.37333C24.0139 2.8 23.0278 3.05333 22.0556 3.16C23.1667 2.49333 23.9028 1.57333 24.3056 0.373333C23.2917 0.973333 22.2083 1.37333 21.0556 1.6C20.0417 0.533333 18.7778 0 17.3056 0Z" fill="#EB2128"/>
</svg>
