<svg xmlns="http://www.w3.org/2000/svg" viewBox="0 0 165.757 60"><defs><style>.a{fill:#241f20;}.b{fill:#211c1c;}.c{fill:#ea2127;}</style></defs><title>mainlogo</title><path class="a" d="M71.481,15h4.144c3.6,0,5.984-1.984,5.984-5.68,0-3.776-2.384-5.68-5.984-5.68H71.481Zm4.1-9.024c2.064,0,3.264,1.152,3.264,3.344a3.019,3.019,0,0,1-3.264,3.344H74.2V5.976ZM87.232,6.5c-2.448,0-4.08,1.744-4.08,4.352a4.032,4.032,0,0,0,4.256,4.352c2.736,0,3.744-1.664,3.856-2.672H88.7a1.45,1.45,0,0,1-1.3.608A1.727,1.727,0,0,1,85.7,11.3h5.616v-.448C91.312,8.2,89.744,6.5,87.232,6.5Zm0,1.872A1.473,1.473,0,0,1,88.72,9.768H85.728A1.468,1.468,0,0,1,87.232,8.376Zm8.4,1.968a1.392,1.392,0,1,1,2.768,0V15h2.592V10.344a1.392,1.392,0,1,1,2.768,0V15h2.592V9.864a3.039,3.039,0,0,0-3.12-3.328,3.008,3.008,0,0,0-2.7,1.456,2.786,2.786,0,0,0-2.576-1.456,2.675,2.675,0,0,0-2.32,1.2V6.712H93.053V15h2.576ZM112.3,6.5a4.062,4.062,0,0,0-4.208,4.352,4.218,4.218,0,1,0,8.432,0A4.074,4.074,0,0,0,112.3,6.5Zm0,6.512c-1.072,0-1.616-.928-1.616-2.16,0-1.216.56-2.144,1.616-2.144,1.072,0,1.616.928,1.616,2.144C113.914,12.088,113.37,13.016,112.3,13.016Zm10.885-3.488h2.48A3.514,3.514,0,0,0,121.855,6.5c-2.272,0-3.968,1.728-3.968,4.352,0,2.64,1.7,4.352,4,4.352a3.454,3.454,0,0,0,3.776-3.024h-2.48a1.289,1.289,0,0,1-1.232.8c-.912,0-1.456-.9-1.456-2.128s.544-2.112,1.44-2.112A1.268,1.268,0,0,1,123.183,9.528Zm6.743,1.376c0-1.12.56-1.648,1.92-1.648h1.9V6.7h-1.424a2.421,2.421,0,0,0-2.4,1.232V6.712H127.35V15h2.576Zm10.7,3.008V15h2.544V6.712H140.6v1.04a2.382,2.382,0,0,0-2.208-1.2c-1.984,0-3.44,1.6-3.44,4.3s1.456,4.32,3.424,4.32A2.43,2.43,0,0,0,140.63,13.912Zm0-3.056c0,1.3-.576,2.112-1.52,2.112-.976,0-1.552-.816-1.552-2.112s.576-2.1,1.552-2.1C140.054,8.76,140.63,9.56,140.63,10.856Zm11.119,1.856h-1.28c-.96,0-1.232-.384-1.232-1.232V8.872h2.512V6.712h-2.512V3.64h-2.593V6.712h-1.935v2.16h1.935v3.5c0,1.7.881,2.624,2.785,2.624h2.32Zm1.772-7.072h2.7V3.08h-2.7Zm.048,9.36h2.608V6.712h-2.608Zm9.708-5.472h2.48A3.514,3.514,0,0,0,161.949,6.5c-2.272,0-3.968,1.728-3.968,4.352,0,2.64,1.7,4.352,4,4.352a3.454,3.454,0,0,0,3.776-3.024h-2.48a1.289,1.289,0,0,1-1.232.8c-.912,0-1.456-.9-1.456-2.128s.544-2.112,1.44-2.112A1.268,1.268,0,0,1,163.277,9.528ZM75.4,25.624a2.338,2.338,0,0,1,2.16.944h2.784c-.32-1.344-1.536-3.136-4.944-3.136-2.592,0-4.416,1.232-4.416,3.36,0,2.24,1.568,3.216,4.08,3.552l1.152.16c.96.144,1.6.432,1.6,1.248,0,.752-.624,1.232-1.84,1.232a2.43,2.43,0,0,1-2.416-1.28h-2.9c.336,1.5,1.712,3.5,5.312,3.5,2.992,0,4.64-1.52,4.64-3.68,0-2.448-1.68-3.3-4.24-3.616l-1.136-.144c-.912-.128-1.488-.432-1.488-1.088C73.753,26.04,74.361,25.624,75.4,25.624Zm10.944.88a4.062,4.062,0,0,0-4.208,4.352,4.218,4.218,0,1,0,8.432,0A4.074,4.074,0,0,0,86.345,26.5Zm0,6.512c-1.072,0-1.616-.928-1.616-2.16,0-1.216.56-2.144,1.616-2.144,1.072,0,1.616.928,1.616,2.144C87.961,32.088,87.417,33.016,86.345,33.016ZM97.23,29.528h2.48A3.514,3.514,0,0,0,95.9,26.5c-2.272,0-3.968,1.728-3.968,4.352,0,2.64,1.7,4.352,4,4.352a3.454,3.454,0,0,0,3.776-3.024H97.23a1.289,1.289,0,0,1-1.232.8c-.912,0-1.456-.9-1.456-2.128s.544-2.112,1.44-2.112A1.268,1.268,0,0,1,97.23,29.528Zm4.119-3.888h2.7V23.08h-2.7ZM101.4,35h2.608V26.712H101.4Zm10.124-1.088V35h2.544V26.712h-2.576v1.04a2.382,2.382,0,0,0-2.208-1.2c-1.984,0-3.44,1.6-3.44,4.3s1.456,4.32,3.424,4.32A2.43,2.43,0,0,0,111.521,33.912Zm0-3.056c0,1.3-.576,2.112-1.52,2.112-.976,0-1.552-.816-1.552-2.112s.576-2.1,1.552-2.1C110.945,28.76,111.521,29.56,111.521,30.856ZM116.335,35h2.608V23.224h-2.608Zm4.905-9.36h2.7V23.08h-2.7Zm.048,9.36H123.9V26.712h-2.608Zm8.635-3.072c.688.064.9.32.9.736,0,.432-.432.688-1.2.688a1.523,1.523,0,0,1-1.456-.656h-2.64c.128.864,1.056,2.528,4.1,2.528,2.512,0,3.792-1.056,3.792-2.736,0-1.712-1.04-2.576-3.392-2.736l-.864-.08c-.608-.064-.9-.272-.9-.656,0-.416.384-.688,1.088-.688a1.57,1.57,0,0,1,1.3.528h2.56c-.144-.848-.928-2.368-3.888-2.368-2.176,0-3.632.992-3.632,2.656,0,1.76,1.392,2.5,3.264,2.688Zm11.4.784h-1.28c-.96,0-1.232-.384-1.232-1.232V28.872h2.512v-2.16h-2.512V23.64h-2.592v3.072h-1.936v2.16h1.936v3.5c0,1.7.88,2.624,2.784,2.624h2.32Zm5.612-.784c.688.064.9.32.9.736,0,.432-.432.688-1.2.688a1.523,1.523,0,0,1-1.456-.656h-2.64c.128.864,1.056,2.528,4.1,2.528,2.512,0,3.792-1.056,3.792-2.736,0-1.712-1.04-2.576-3.392-2.736l-.864-.08c-.608-.064-.9-.272-.9-.656,0-.416.384-.688,1.088-.688a1.57,1.57,0,0,1,1.3.528h2.56c-.144-.848-.928-2.368-3.888-2.368-2.176,0-3.632.992-3.632,2.656,0,1.76,1.392,2.5,3.264,2.688ZM75,46.5a4.062,4.062,0,0,0-4.208,4.352,4.218,4.218,0,1,0,8.432,0A4.074,4.074,0,0,0,75,46.5Zm0,6.512c-1.072,0-1.616-.928-1.616-2.16,0-1.216.56-2.144,1.616-2.144,1.072,0,1.616.928,1.616,2.144C76.617,52.088,76.073,53.016,75,53.016ZM87.216,48.84V46.712H84.768V46.2c0-.7.288-1.024,1.056-1.024h2.352V43.224H84.752c-1.728,0-2.576.912-2.576,2.368v1.12H80.24V48.84h1.936V55h2.592V48.84ZM100.8,55h2.848L99.268,43.624h-2.96L91.956,55h2.7l.736-1.968h4.672Zm-4.56-4.24,1.488-4,1.488,4Zm11.37-.416a1.392,1.392,0,1,1,2.768,0V55h2.592V50.344a1.392,1.392,0,1,1,2.768,0V55h2.592V49.864a3.039,3.039,0,0,0-3.12-3.328,3.008,3.008,0,0,0-2.7,1.456,2.786,2.786,0,0,0-2.576-1.456,2.675,2.675,0,0,0-2.32,1.2V46.712h-2.576V55h2.576Zm16.54-3.84c-2.448,0-4.08,1.744-4.08,4.352a4.032,4.032,0,0,0,4.256,4.352c2.736,0,3.744-1.664,3.856-2.672h-2.56a1.45,1.45,0,0,1-1.3.608,1.727,1.727,0,0,1-1.712-1.84h5.616v-.448C128.234,48.2,126.666,46.5,124.154,46.5Zm0,1.872a1.473,1.473,0,0,1,1.488,1.392H122.65A1.468,1.468,0,0,1,124.154,48.376Zm8.4,2.528c0-1.12.56-1.648,1.92-1.648h1.9V46.7h-1.424a2.421,2.421,0,0,0-2.4,1.232V46.712h-2.576V55h2.576Zm5.376-5.264h2.7V43.08h-2.7Zm.048,9.36h2.608V46.712h-2.608Zm9.708-5.472h2.48a3.514,3.514,0,0,0-3.808-3.024c-2.272,0-3.968,1.728-3.968,4.352,0,2.64,1.7,4.352,4,4.352a3.454,3.454,0,0,0,3.776-3.024h-2.48a1.289,1.289,0,0,1-1.232.8c-.912,0-1.456-.9-1.456-2.128s.544-2.112,1.44-2.112A1.268,1.268,0,0,1,147.683,49.528Zm9.447,4.384V55h2.544V46.712H157.1v1.04a2.382,2.382,0,0,0-2.208-1.2c-1.984,0-3.44,1.6-3.44,4.3s1.456,4.32,3.424,4.32A2.43,2.43,0,0,0,157.13,53.912Zm0-3.056c0,1.3-.576,2.112-1.52,2.112-.976,0-1.552-.816-1.552-2.112s.576-2.1,1.552-2.1C156.554,48.76,157.13,49.56,157.13,50.856Z"/><path class="b" d="M49.626,45.91c-.813.038-7.82.193-9.252.542a9.047,9.047,0,0,1-3.522-.387.612.612,0,1,0-.387,1.161,12.018,12.018,0,0,0,3.135.5,4.578,4.578,0,0,0,1.045-.116c1.123-.271,6.852-.465,8.981-.5a.559.559,0,0,0,.58-.62.57.57,0,0,0-.58-.58"/><path class="c" d="M12.2,27.359h2.448L11.75,31.743c.542-.147,1.106-.295,1.662-.434l2.607-3.95h2.786l-1.988,3.306c.056,0,.116-.007.166-.007.4,0,.775.025,1.141.061l2.02-3.36H23.6v1.97a10.336,10.336,0,0,1-2.818,2,10.215,10.215,0,0,1,1.327.6A11.685,11.685,0,0,0,23.6,30.886v2.037a9.409,9.409,0,0,1,1.085,1.016c.421-.31.82-.593,1.173-.842.259-.165.484-.327.668-.466V30.92a11.96,11.96,0,0,0,1.18.9,9.007,9.007,0,0,1,1.258-.56,10.818,10.818,0,0,1-2.438-1.928v-2l2.71-.12,1.218,3.612Q31,30.7,31.59,30.6l-1.16-3.441,2.045-.09,1.841,3.263c.361-.015.728-.024,1.1-.024.069,0,.136,0,.205.005l-1.862-3.3L37.7,26.84l2.779,4.424c-.112.053-.226.1-.339.147a13.576,13.576,0,0,1,1.265.675,23.234,23.234,0,0,0,7.325-5.921.574.574,0,0,0-.018-.759,20.01,20.01,0,0,0-9.61-5.768l0,0a5.216,5.216,0,0,0,1.84-3.917A5.919,5.919,0,0,0,38.75,11.3a4.629,4.629,0,0,0,.359-1.64A5.693,5.693,0,0,0,36.93,5.182a7.129,7.129,0,0,0-3.556-1.488c-.007-.013-.006-.028-.013-.042A7.519,7.519,0,0,0,26.756,0a7.608,7.608,0,0,0-5.984,2.486,3.683,3.683,0,0,0-1.63-.712,5.02,5.02,0,0,0-4.628,2.014A7.845,7.845,0,0,0,12.828,9.7a6.511,6.511,0,0,0-3.292,5.705A8.661,8.661,0,0,0,11.3,20.629c.02.028.043.054.064.081a16.807,16.807,0,0,0-7.234,5.73.573.573,0,0,0-.054.6,11.744,11.744,0,0,0,5.457,5.326c.495-.143,1.11-.32,1.782-.505a11.723,11.723,0,0,1-1.786-.784Zm3.985-1.148-1.046-5.2c.064,0,.129-.011.194-.015a10.664,10.664,0,0,1,1.707.03l1.955,5.19Zm7.42,0H20.217l-1.875-4.977A10.823,10.823,0,0,1,23.6,24.181Zm1.778,3.349v3.754h-.63V24.249a.982.982,0,0,1,.315-.048.942.942,0,0,1,.315.049Zm.487-6.35a2.122,2.122,0,0,0-1.612,0,11.884,11.884,0,0,0-6.062-3.187c-1.969-3.116-2.62-5.951-1.931-8.426a8.124,8.124,0,0,1,2.913-4.155,13.259,13.259,0,0,0,.433,5.112.572.572,0,0,0,.031.105,10.413,10.413,0,0,0,1.673,3.274A14.1,14.1,0,0,0,29.2,20.7,14.09,14.09,0,0,0,25.865,23.21Zm3.405,2.853-2.744.122v-2.01a12.472,12.472,0,0,1,5.194-3.3Zm3.249-.144-1.952.087,2.593-5.494a12.159,12.159,0,0,1,2.229-.2h.026a13.231,13.231,0,0,1,1.569.1Zm8.988,4.824-2.488-3.962,2.908-.129,1.979,2.539A19.986,19.986,0,0,1,41.507,30.743Zm3.3-2.266L43.335,26.59l3.626-.16A23.841,23.841,0,0,1,44.806,28.477Zm2.162-3.2-3.755.166,1.238-2.17A19.276,19.276,0,0,1,46.968,25.28Zm-3.492-2.612-1.62,2.838-2.71.12,2.673-3.821C42.38,22.062,42.934,22.351,43.476,22.668Zm-2.742-1.316L37.7,25.69l-3.647.162,4.233-5.227A16.506,16.506,0,0,1,40.734,21.352Zm-1-5.635h0a4.9,4.9,0,0,1-2.07,3.626,14.663,14.663,0,0,0-2.244-.183h-.046l.053-.057a7.709,7.709,0,0,0,1.718-5.393c0-.107-.011-.205-.014-.31a5.874,5.874,0,0,0,1.009-1.038A4.671,4.671,0,0,1,39.731,15.717ZM36.14,6.091A4.514,4.514,0,0,1,37.9,9.619h0a3.612,3.612,0,0,1-.909,2.252,8.47,8.47,0,0,0-4.1-6.136A2.65,2.65,0,0,0,32.4,4.99c-.068-.073-.14-.144-.214-.209A6.623,6.623,0,0,1,36.14,6.091ZM33.1,7.322a7.947,7.947,0,0,1,2.83,6.389,6.58,6.58,0,0,1-2.315,5.566,12.848,12.848,0,0,0-2.565.609c-2.221-.487-6.564-1.782-8.776-4.677a9.319,9.319,0,0,1-.885-1.411,8.4,8.4,0,0,0,3.5.811h0a7.239,7.239,0,0,0,3.14-.719A9.586,9.586,0,0,0,33.1,7.322Zm-1.2-.185a8.481,8.481,0,0,1-4.408,5.678c-2.1,1-4.374.754-6.771-.732a11.543,11.543,0,0,1-.408-3.3h0a7.205,7.205,0,0,0,4,1.815,3.624,3.624,0,0,0,2.692-1.036A8.693,8.693,0,0,0,29.845,5.03a2.977,2.977,0,0,1,1.661.764A1.664,1.664,0,0,1,31.9,7.137ZM26.757,1.2h0a6.359,6.359,0,0,1,5.088,2.374,13.106,13.106,0,0,0-2.664.22c-.015,0-.026.013-.041.017a.648.648,0,0,0-.063.017c-.013,0-.022.016-.035.022l-.015.009a.617.617,0,0,0-.1.064c-.012.01-.027.014-.039.024a11.442,11.442,0,0,1-.98.829,2.837,2.837,0,0,0-2.689-2.008,3.808,3.808,0,0,0-3.142,1.491,4.458,4.458,0,0,0-.466-.892A6.347,6.347,0,0,1,26.757,1.2Zm.107,4.24a3.905,3.905,0,0,1-2.34.505,3.246,3.246,0,0,1-1.632-.754,2.637,2.637,0,0,1,2.324-1.227A1.782,1.782,0,0,1,26.864,5.435Zm-5.978.246h0a3.524,3.524,0,0,1,.479-.335,4.752,4.752,0,0,0,2.972,1.774,4.284,4.284,0,0,0,.61.044,5.922,5.922,0,0,0,3.287-1.156A9.371,9.371,0,0,1,26.17,8.7a2.415,2.415,0,0,1-1.806.705c-1.683-.059-3.4-1.605-3.948-2.146.035-.307.076-.615.13-.93A1.4,1.4,0,0,1,20.886,5.681Zm-5.43-1.14h0a3.826,3.826,0,0,1,3.479-1.59,2.467,2.467,0,0,1,1.436.785.145.145,0,0,0,.017.018,2.8,2.8,0,0,1,.384.548,4.9,4.9,0,0,0-.691.485,2.414,2.414,0,0,0-.645,1.026A10.166,10.166,0,0,0,16.7,8.185a12.346,12.346,0,0,0-2.707.886A6.634,6.634,0,0,1,15.456,4.541ZM10.749,15.407h0a5.434,5.434,0,0,1,3.112-4.941,10.045,10.045,0,0,1,1.875-.8,8.316,8.316,0,0,0-.641,1.6c-.727,2.588-.194,5.469,1.577,8.575a11.723,11.723,0,0,0-1.415,0,12.679,12.679,0,0,0-2.675.456c-.027-.031-.053-.061-.078-.092A7.617,7.617,0,0,1,10.749,15.407Zm3.243,5.746,1.017,5.058h-2.8L9.593,22.877A12.613,12.613,0,0,1,13.992,21.153ZM8.64,23.523l2.109,2.688H5.781A16.851,16.851,0,0,1,8.64,23.523ZM5.567,27.359h5.215L8.548,30.476A10.523,10.523,0,0,1,5.567,27.359Z"/><path class="c" d="M9.29,32.439A29.655,29.655,0,0,1,.619,33.755a.62.62,0,0,0,0,1.239,33.421,33.421,0,0,0,10.723-1.859,20.382,20.382,0,0,1,5.729-1.161,8.453,8.453,0,0,1,5.845,1.974l1.278,1.278a.566.566,0,0,0,.851,0,.608.608,0,0,0,0-.852,10.1,10.1,0,0,0-8.062-3.716C15.479,30.658,11.193,31.884,9.29,32.439Zm1.316,16.993C7.006,44.865.774,46.026.5,46.065a.573.573,0,0,0-.464.7.623.623,0,0,0,.735.465c.078,0,5.768-1.084,8.9,2.9a7.343,7.343,0,0,0,.929.968.584.584,0,0,0,.426.155.716.716,0,0,0,.465-.194.61.61,0,0,0-.039-.852,4.173,4.173,0,0,1-.852-.774M36.465,45.6c-.307-.3-4.762-4.684-8.052-7.935a.6.6,0,0,0-.852.851c3.291,3.252,7.665,7.549,8.052,7.936,0,0,2.516,2.361,2.516,3.6a1.032,1.032,0,0,1-.348.774,1.6,1.6,0,0,1-1.084.464,3.161,3.161,0,0,1-1.82-.89,10.491,10.491,0,0,0-1.006-.929A1.78,1.78,0,0,1,33.6,49.2l-2.671-2.632-.852.851,2.671,2.633a3.26,3.26,0,0,0,.349.309c.58.5,1.9,1.665,1.935,2.555a.748.748,0,0,1-.271.581,1.1,1.1,0,0,1-.89.387,2.566,2.566,0,0,1-1.471-.852h0a4.4,4.4,0,0,0-.581-.658l-3.174-3.135-.851.851,3.174,3.136a3.017,3.017,0,0,1,.929,1.393,1.05,1.05,0,0,1-.387,1.123c-.62.581-1.51.155-1.82,0a3.076,3.076,0,0,0-.542-.7c-.735-.735-2.632-2.826-2.671-2.864a.608.608,0,0,0-.851-.039.577.577,0,0,0-.039.852c.078.077,1.936,2.167,2.71,2.9a1.877,1.877,0,0,1,.58,1.084,1.009,1.009,0,0,1-.348,1.006.583.583,0,0,1-.426.155c-.426,0-1.393-.31-3.251-2.168a.6.6,0,0,0-.852.852c1.665,1.7,3.019,2.555,4.1,2.555h0a1.844,1.844,0,0,0,1.316-.542,2.527,2.527,0,0,0,.736-1.665,3.36,3.36,0,0,0,.619.078,2.215,2.215,0,0,0,1.626-.658,2.3,2.3,0,0,0,.774-1.588,3.2,3.2,0,0,0,.658.155h.116a2.518,2.518,0,0,0,1.7-.735,2.025,2.025,0,0,0,.619-1.471,1.982,1.982,0,0,0-.077-.465,2.023,2.023,0,0,0,.5.039h.039a2.729,2.729,0,0,0,1.935-.813,2.225,2.225,0,0,0,.7-1.626C39.29,48.31,36.771,45.9,36.465,45.6Z"/><path class="b" d="M24.155,55.084C23.5,56.71,21.329,58.8,20.323,58.8a.332.332,0,0,1-.233-.077c-.464-.542.31-2.013,1.9-3.562a3.344,3.344,0,0,1,1.9-1.122.494.494,0,0,1,.387.155c.077.077.077.387-.116.89Zm-7.742,1.935c-.774-.774.658-2.825,2.361-4.529.271-.271.62-.58.968-.929l.039-.038h0A3.469,3.469,0,0,1,21.6,50.516a.716.716,0,0,1,.465.194,1.031,1.031,0,0,1,.348.774c0,1.2-1.665,2.826-2.361,3.484l-.155.155-.271.271c-.7.7-1.82,1.858-2.671,1.858a.835.835,0,0,1-.542-.233ZM13.587,54.7c-.7-.7.619-2.671,2.245-4.258,1.626-1.626,2.633-2.091,3.252-1.51.232.232.7.658-.194,1.781-.348.309-.658.619-1.006.929A15.117,15.117,0,0,0,15.6,54.426c-.465.387-1.316.929-2.013.271Zm-2.245-2.516c-.31-.31.039-1.007.271-1.394a10.713,10.713,0,0,1,1.548-1.9l.155-.155c.5-.5,1.394-1.354,1.9-1.354a.322.322,0,0,1,.271.116.5.5,0,0,1,.155.387,5.507,5.507,0,0,1-1.82,2.864l-.232.233c-.464.464-1.355,1.393-1.935,1.393a1.1,1.1,0,0,1-.31-.193Zm12.542.619a2.321,2.321,0,0,0-.542.077,3.176,3.176,0,0,0,.387-1.432,2.228,2.228,0,0,0-.7-1.626,1.936,1.936,0,0,0-1.355-.542,2.871,2.871,0,0,0-.967.194A1.871,1.871,0,0,0,19.974,48a2.4,2.4,0,0,0-3.1,0v-.155a1.609,1.609,0,0,0-.542-1.239,1.486,1.486,0,0,0-1.083-.425c-1.046,0-2.013.967-2.787,1.742l-.155.154a12.229,12.229,0,0,0-1.742,2.129c-.929,1.549-.542,2.4-.078,2.865a1.613,1.613,0,0,0,1.2.5,1.766,1.766,0,0,0,.62-.116,1.912,1.912,0,0,0,.464,2.09,2.329,2.329,0,0,0,1.587.658,2.172,2.172,0,0,0,.7-.116,1.962,1.962,0,0,0,.542,1.742,2.1,2.1,0,0,0,1.432.62,3.152,3.152,0,0,0,1.781-.658,1.938,1.938,0,0,0,.387,1.7,1.474,1.474,0,0,0,1.161.5h0c1.781,0,4.258-2.71,4.955-4.452.5-1.238.194-1.9-.193-2.245a1.7,1.7,0,0,0-1.239-.5ZM20.361,41.187c0-2.632,4.22-5.652,6.233-7.084.425-.309.774-.542,1.006-.735,1.394-1.123,4.3-1.82,7.781-1.82a10.911,10.911,0,0,1,6.309,2.246c1.742,1.277,7.278,1.316,7.9,1.316a.62.62,0,0,0,0-1.239h-.039c-2.206,0-6.038-.271-7.083-1.084a12.2,12.2,0,0,0-7.046-2.477c-3.832,0-6.967.774-8.593,2.09a11.16,11.16,0,0,1-.968.7c-2.361,1.664-6.7,4.8-6.735,8.051-.039.349-.233,3.291,1.122,4.762a2.6,2.6,0,0,0,1.974.851,2.245,2.245,0,0,0,1.665-.658c.89-.929.813-2.516.735-3.832a5.148,5.148,0,0,1,0-1.355c.7-.89,2.246-2.245,3.329-2.245a.62.62,0,1,0,0-1.239c-1.742,0-3.677,1.974-4.3,2.71-.349.426-.31,1.161-.271,2.168s.116,2.4-.387,2.942a.979.979,0,0,1-.775.271,1.43,1.43,0,0,1-1.045-.426c-.851-.929-.89-3.1-.813-3.871v-.039"/></svg>