<svg xmlns="http://www.w3.org/2000/svg" viewBox="0 0 870.373 192.738">
  <defs>
    <style>
      .a {
        fill: #eb2227;
      }

      .b {
        fill: #241e1f;
      }

      .c {
        fill: #ed1c24;
      }

      .d {
        fill: #fff;
      }

      .e {
        fill: #ea2127;
      }
    </style>
  </defs>
  <title>Artboard 1</title>
  <g>
    <rect class="a" width="199.782" height="192.738"/>
    <path class="b" d="M149.014,145.5c-1.619.039-15.9.4-18.845,1.128-2.086.52-5.881-.4-7.168-.8a1.25,1.25,0,0,0-.741,2.387,25.109,25.109,0,0,0,6.4,1.062,8.823,8.823,0,0,0,2.11-.225c2.262-.56,13.978-.951,18.3-1.054a1.25,1.25,0,0,0-.061-2.5Z"/>
    <line class="c" x1="146.793" y1="103.989" x2="100.902" y2="106.042"/>
    <line class="c" x1="108.604" y1="105.348" x2="114.987" y2="91.635"/>
    <line class="c" x1="114.987" y1="105.411" x2="125.697" y2="91.944"/>
    <line class="c" x1="125.697" y1="104.932" x2="133.112" y2="94.188"/>
    <line class="c" x1="134.295" y1="104.548" x2="138.478" y2="96.956"/>
    <line class="c" x1="134.295" y1="104.548" x2="139.413" y2="111.426"/>
    <line class="c" x1="125.697" y1="104.932" x2="132.417" y2="115.901"/>
    <line class="c" x1="114.987" y1="105.411" x2="119.866" y2="114.13"/>
    <line class="c" x1="108.604" y1="105.348" x2="111.731" y2="115.273"/>
    <line class="c" x1="88.217" y1="106.042" x2="83.343" y2="93.011"/>
    <line class="c" x1="79.822" y1="106.042" x2="77.023" y2="92.841"/>
    <line class="c" x1="71.8" y1="106.042" x2="65.344" y2="97.675"/>
    <line class="c" x1="71.8" y1="106.042" x2="65.344" y2="115.442"/>
    <line class="c" x1="79.822" y1="106.042" x2="72.7" y2="116.94"/>
    <line class="c" x1="88.217" y1="106.042" x2="82.733" y2="115.442"/>
    <g>
      <line class="c" x1="110.603" y1="92.687" x2="111.442" y2="92.882"/>
      <g>
        <path class="d" d="M147.971,104.39a1.245,1.245,0,0,0,.069-.443c0-.005,0-.009,0-.013,0-.024-.014-.043-.016-.067a1.222,1.222,0,0,0-.09-.359,1.136,1.136,0,0,0-.077-.141,1.111,1.111,0,0,0-.078-.144,37.956,37.956,0,0,0-19.85-12.081,11.079,11.079,0,0,0,3.79-8.191,12.437,12.437,0,0,0-4.521-9.239,9.835,9.835,0,0,0,.74-3.431,11.976,11.976,0,0,0-4.491-9.36,14.576,14.576,0,0,0-7.328-3.112c-.012-.028-.01-.059-.025-.087a15.473,15.473,0,0,0-13.608-7.638c-6.949,0-10.736,3.32-12.328,5.2a7.538,7.538,0,0,0-3.359-1.49c-3.356-.582-6.921,1-9.534,4.211a16.59,16.59,0,0,0-3.476,12.367A13.649,13.649,0,0,0,67.007,82.3a18.33,18.33,0,0,0,3.634,10.921c-8.756,3.626-14.484,11.666-14.79,12.1a1.25,1.25,0,0,0-.1.188c-.01.021-.024.039-.033.061a1.255,1.255,0,0,0-.085.423c0,.016-.009.029-.009.045s.009.032.01.049a1.232,1.232,0,0,0,.081.418l.006.015,0,.008A23.8,23.8,0,0,0,66.909,117.75a60.714,60.714,0,0,1-17.693,2.687,1.25,1.25,0,1,0,0,2.5c9.39,0,16-2.03,21.831-3.822,4.231-1.3,7.886-2.423,11.685-2.423,7.878,0,11.83,4.03,11.891,4.093l2.625,2.624a1.25,1.25,0,0,0,1.768-1.767l-.595-.594V101.887a.616.616,0,1,1,1.231,0v18.232a1.25,1.25,0,0,0,2.5,0v-5.131a16,16,0,0,0,3.375,2.724,1.25,1.25,0,1,0,1.3-2.137,12.079,12.079,0,0,1-4.674-4.884v-3.453l5.658-.254,2.729,8.665a1.249,1.249,0,0,0,1.192.874,1.248,1.248,0,0,0,1.192-1.626l-2.528-8.028,3.879-.174,4.5,8.045a1.25,1.25,0,1,0,2.182-1.221l-3.888-6.949,7.949-.355,5.6,9.146c-.317.144-.63.29-.955.425a1.25,1.25,0,0,0,.958,2.309c.825-.343,1.612-.715,2.382-1.1.021-.011.044-.016.065-.028,0,0,.008-.009.013-.012a43.551,43.551,0,0,0,14.728-12.241,1.241,1.241,0,0,0,.1-.2A1.357,1.357,0,0,0,147.971,104.39Zm-37.53-.026,5.419-11.641a11.558,11.558,0,0,1,2.3-.253,38.011,38.011,0,0,1,5.233.365l-9.029,11.353ZM90.4,61.966a7.307,7.307,0,0,1,.988-.7,9.78,9.78,0,0,0,6.123,3.71,8.638,8.638,0,0,0,1.256.091,12.079,12.079,0,0,0,6.772-2.417,19.544,19.544,0,0,1-4.253,5.624,4.929,4.929,0,0,1-3.721,1.473c-3.467-.123-7-3.356-8.135-4.488.073-.639.158-1.284.268-1.942A2.964,2.964,0,0,1,90.4,61.966Zm4.131-1.035a5.422,5.422,0,0,1,4.79-2.567c1.939,0,2.906,1.527,3.393,3.087a7.946,7.946,0,0,1-4.82,1.056A6.664,6.664,0,0,1,94.527,60.931Zm-5.311,7.521c1.93,1.613,5.008,3.676,8.248,3.8a7.412,7.412,0,0,0,5.546-2.166c4.244-4.063,5.486-7.594,5.843-9.478a6.087,6.087,0,0,1,3.422,1.6,3.509,3.509,0,0,1,.814,2.808c-.24,2.794-3.481,9.151-9.083,11.873-4.317,2.1-9.01,1.579-13.949-1.531A24.434,24.434,0,0,1,89.216,68.452Zm9.412,12.182a14.739,14.739,0,0,0,6.471-1.5c6.232-3.028,10.032-9.846,10.457-13.735,2.236,1.824,5.83,5.912,5.83,13.36,0,5.4-1.689,9.316-4.886,11.313-.007,0-.01.012-.017.017a16.168,16.168,0,0,0-1.856.363c-.031.01-.062.014-.092.025a22.209,22.209,0,0,0-3.2,1.1l-.452-.105c-.023,0-.045,0-.067,0s-.049-.02-.075-.023c-.113-.012-11.339-1.381-17.492-9.556a19.152,19.152,0,0,1-1.824-2.949A17.1,17.1,0,0,0,98.628,80.634Zm27.565,12.695a36.486,36.486,0,0,1,4.978,1.472l-6.15,8.911-7.345.328Zm7.341,2.448c1.161.527,2.25,1.083,3.252,1.66l-3.247,5.894-5.384.24Zm5.377,2.983a36.816,36.816,0,0,1,5.121,4.1l-7.567.339Zm-9.69-15.809a8.7,8.7,0,0,1-4.647,7.519,40.64,40.64,0,0,0-4.226-.437c1.92-2.192,3.538-5.692,3.538-11.277,0-.225-.022-.428-.028-.647a12.2,12.2,0,0,0,2.078-2.172A9.824,9.824,0,0,1,129.221,82.951ZM125.442,70.2a7.609,7.609,0,0,1-1.873,4.709,17.7,17.7,0,0,0-8.438-12.83,5.581,5.581,0,0,0-1.006-1.557,5.888,5.888,0,0,0-.442-.438c2.711.134,5.85.777,8.14,2.738A9.5,9.5,0,0,1,125.442,70.2ZM102.488,52.584a13.038,13.038,0,0,1,10.483,4.964,26.7,26.7,0,0,0-5.489.46c-.031.007-.054.028-.084.037a1.205,1.205,0,0,0-.131.035c-.026.011-.045.033-.07.046a.362.362,0,0,0-.033.02,1.2,1.2,0,0,0-.207.133c-.025.02-.056.028-.08.051a23.326,23.326,0,0,1-2.021,1.732c-1.047-2.68-2.993-4.2-5.539-4.2a7.816,7.816,0,0,0-6.476,3.118,9.253,9.253,0,0,0-.958-1.865C92.988,55.716,96.164,52.584,102.488,52.584Zm-23.282,7c2.036-2.5,4.715-3.749,7.17-3.324A5.06,5.06,0,0,1,89.333,57.9c.01.014.024.025.035.038a5.984,5.984,0,0,1,.792,1.146A10.023,10.023,0,0,0,88.736,60.1a5.053,5.053,0,0,0-1.33,2.147A20.993,20.993,0,0,0,81.769,67.2a25.261,25.261,0,0,0-5.578,1.854A14.016,14.016,0,0,1,79.206,59.582ZM69.507,82.3c0-4.446,2.157-7.923,6.412-10.335a20.837,20.837,0,0,1,3.864-1.672,17.642,17.642,0,0,0-1.321,3.351c-1.5,5.414-.4,11.44,3.255,17.937-.85-.067-1.729-.11-2.653-.11a21.135,21.135,0,0,0-5.941.87A16.071,16.071,0,0,1,69.507,82.3Zm21.532,33.4a21.869,21.869,0,0,0-6.188-1.411l4.084-7h6.986v3.4a11.972,11.972,0,0,1-4.875,5Zm-15.76-.423,5.219-7.987H86.04L82,114.217A30.532,30.532,0,0,0,75.279,115.279Zm-4.7,1.365-.336-.154a23.088,23.088,0,0,1-3.108-1.449l5.322-7.749h5.054l-5.858,8.965c-.014.021-.015.045-.027.067C71.281,116.429,70.933,116.535,70.58,116.644Zm5.461-22.408,2.238,10.556H72.415l-5.277-6.839A23.514,23.514,0,0,1,76.041,94.236Zm6.4-.074,3.976,10.63H80.834L78.543,93.986c.174-.005.347-.014.521-.014A30.545,30.545,0,0,1,82.439,94.162Zm13.482,7.725v2.905H89.084l-3.8-10.162c6.484,1.431,9.769,4.8,10.638,5.827ZM65.107,99.414l4.15,5.378H59.474A40.123,40.123,0,0,1,65.107,99.414Zm-6.147,7.878H69.425l-4.407,6.417A22.4,22.4,0,0,1,58.96,107.292Zm34.694,9.679a15.7,15.7,0,0,0,2.267-1.985v3.593A15.061,15.061,0,0,0,93.654,116.971Zm5.383-18.2a3.1,3.1,0,0,0-1.1.209c-.972-1.188-5-5.477-13.073-6.976-4.078-6.534-5.428-12.476-4-17.662a17,17,0,0,1,6-8.689,28.113,28.113,0,0,0,.89,10.689,1.211,1.211,0,0,0,.066.22,21.85,21.85,0,0,0,3.447,6.847c4.907,6.506,12.426,9.062,16.447,10.007a47.085,47.085,0,0,0-7.543,5.577A3.088,3.088,0,0,0,99.037,98.771Zm3.115,3.116v-1.312a41.37,41.37,0,0,1,10.478-6.837l-5,10.752-5.474.245Zm25.719,4.2,5.818-.26,3.982,5.353a39.333,39.333,0,0,1-4.8,3.07Zm11.76,3.538-2.926-3.933,7.333-.328A43.868,43.868,0,0,1,139.631,109.625Z"/>
        <path class="d" d="M69.56,152.761c-7.348-9.458-20.053-7.033-20.59-6.927a1.25,1.25,0,1,0,.491,2.451c.118-.021,11.717-2.238,18.124,6.01a16.214,16.214,0,0,0,1.876,2.02,1.25,1.25,0,1,0,1.684-1.847A13.669,13.669,0,0,1,69.56,152.761Z"/>
        <path class="d" d="M122.523,145.141l-.34-.334L105.8,128.424a1.249,1.249,0,0,0-1.767,1.767c6.719,6.721,15.576,15.576,16.386,16.384l.359.353c1.285,1.258,4.7,4.6,4.714,7.11a2.116,2.116,0,0,1-.675,1.59,3.1,3.1,0,0,1-2.193.986,6.229,6.229,0,0,1-3.691-1.834c-.72-.751-1.45-1.4-2.014-1.9-.249-.22-.451-.4-.577-.523l-5.4-5.4-1.768,1.768,5.4,5.4c.151.151.39.365.687.628,1.164,1.029,3.891,3.439,3.947,5.258a1.583,1.583,0,0,1-.531,1.212,2.331,2.331,0,0,1-1.8.812,5.024,5.024,0,0,1-2.981-1.773l-.007-.006a13.287,13.287,0,0,0-1.21-1.4l-6.5-6.5-1.767,1.768,6.5,6.5a6.656,6.656,0,0,1,1.907,2.865,2.259,2.259,0,0,1-.772,2.292c-1.232,1.232-3.068.343-3.69-.017a7.112,7.112,0,0,0-1.1-1.437c-1.51-1.511-5.384-5.872-5.423-5.916a1.25,1.25,0,1,0-1.869,1.66c.161.181,3.961,4.461,5.525,6.024a4.183,4.183,0,0,1,1.2,2.216,2.312,2.312,0,0,1-.7,2.11,1.261,1.261,0,0,1-.905.357c-.838-.006-2.813-.6-6.6-4.514a1.25,1.25,0,1,0-1.794,1.741c3.421,3.531,6.162,5.256,8.379,5.273h.033a3.678,3.678,0,0,0,2.658-1.09,4.834,4.834,0,0,0,1.462-3.436,6.074,6.074,0,0,0,1.294.15,4.523,4.523,0,0,0,3.3-1.353,4.946,4.946,0,0,0,1.564-3.305,5.058,5.058,0,0,0,1.367.283c.075,0,.15.006.224.006a4.875,4.875,0,0,0,3.474-1.548,4.074,4.074,0,0,0,1.261-3.056,4.616,4.616,0,0,0-.134-.931,5.76,5.76,0,0,0,1.008.109h.077a5.429,5.429,0,0,0,3.927-1.719,4.585,4.585,0,0,0,1.407-3.371C127.969,150.469,124.153,146.735,122.523,145.141Z"/>
      </g>
    </g>
    <path class="b" d="M96.594,159.758a4.594,4.594,0,0,0-1.14.167,6.928,6.928,0,0,0,.764-2.943,4.581,4.581,0,0,0-1.4-3.349,3.786,3.786,0,0,0-2.729-1.156,5.2,5.2,0,0,0-1.993.438,4.343,4.343,0,0,0-1.487-3.067c-1.991-1.842-4.293-1.24-6.28-.009.007-.109.019-.219.017-.327a3.53,3.53,0,0,0-1.1-2.577,3.2,3.2,0,0,0-2.239-.921c-2.11,0-4.079,1.983-5.661,3.576l-.314.315a24.473,24.473,0,0,0-3.55,4.4c-1.891,3.181-1.142,4.994-.181,5.955a3.4,3.4,0,0,0,2.439,1.046,3.99,3.99,0,0,0,1.242-.23,4.184,4.184,0,0,0,.907,4.358A4.45,4.45,0,0,0,77.1,166.8a5.249,5.249,0,0,0,1.405-.208,4.068,4.068,0,0,0,1.127,3.615,4.006,4.006,0,0,0,2.906,1.251h0a6.588,6.588,0,0,0,3.655-1.382,3.868,3.868,0,0,0,.789,3.513,3.052,3.052,0,0,0,2.374,1.055h0c3.666,0,8.675-5.6,10.133-9.238,1.026-2.556.369-3.928-.363-4.628A3.6,3.6,0,0,0,96.594,159.758Zm-25.528-1.27c-.636-.636.079-2.1.563-2.91a21.988,21.988,0,0,1,3.168-3.905l.32-.321c1.054-1.062,2.819-2.838,3.888-2.838a.692.692,0,0,1,.515.231,1.032,1.032,0,0,1,.325.8c.019,1.539-1.847,4.1-3.706,5.961l-.446.454c-.969.994-2.773,2.846-3.955,2.845A.893.893,0,0,1,71.066,158.488Zm4.589,5.174c-1.456-1.454,1.266-5.484,4.607-8.831s5.394-4.309,6.65-3.147c.474.438,1.444,1.345-.4,3.675-.685.61-1.363,1.265-2.029,1.93a30.268,30.268,0,0,0-4.621,5.749C78.811,163.92,77.012,165.019,75.655,163.662Zm5.748,4.777c-1.565-1.564,1.306-5.839,4.846-9.382.531-.531,1.232-1.232,1.994-1.9a1.147,1.147,0,0,0,.1-.084l.01-.014c1.257-1.093,2.661-2.079,3.732-2.079a1.271,1.271,0,0,1,.957.419,2.116,2.116,0,0,1,.673,1.578c-.009,2.448-3.4,5.807-4.846,7.242l-.35.346c-.177.178-.369.375-.574.586-1.389,1.425-3.713,3.81-5.407,3.81A1.551,1.551,0,0,1,81.4,168.439Zm15.77-3.964c-1.352,3.369-5.734,7.669-7.814,7.669a.565.565,0,0,1-.487-.2c-.957-1.1.641-4.13,3.885-7.369,1.455-1.453,2.89-2.321,3.837-2.321a1.089,1.089,0,0,1,.808.327C97.586,162.761,97.593,163.428,97.173,164.475Z"/>
    <path class="b" d="M89.467,135.742c0-5.451,8.564-11.664,12.68-14.649.892-.648,1.6-1.158,2.068-1.549,2.826-2.339,8.766-3.735,15.89-3.735a21.9,21.9,0,0,1,12.881,4.662c3.564,2.672,14.822,2.715,16.061,2.717a1.25,1.25,0,0,0,0-2.5c-.05,0-.079,0-.119,0-4.489,0-12.277-.6-14.44-2.218a24.362,24.362,0,0,0-14.38-5.161c-7.8,0-14.175,1.57-17.483,4.309-.411.339-1.121.855-1.944,1.451-4.778,3.467-13.662,9.911-13.711,16.617-.057.707-.464,6.817,2.3,9.84a5.19,5.19,0,0,0,3.99,1.728,4.474,4.474,0,0,0,3.384-1.324c1.8-1.89,1.637-5.24,1.506-7.931a13.223,13.223,0,0,1,.014-2.794c1.457-1.874,4.611-4.647,6.756-4.647a1.25,1.25,0,0,0,0-2.5c-3.582,0-7.516,4.051-8.729,5.612-.71.911-.638,2.4-.538,4.45.1,2.1.241,4.972-.819,6.085a1.974,1.974,0,0,1-1.574.549,2.717,2.717,0,0,1-2.142-.911c-1.766-1.931-1.79-6.421-1.65-7.989C89.465,135.817,89.467,135.779,89.467,135.742Z"/>
  </g>
  <g>
    <g>
      <path class="e" d="M255.082,142.143h10.212c9.662,0,13.342,2.76,13.342,15.733,0,12.836-4,16.24-13.571,16.24h-9.983Zm10.029,27.924c5.98,0,8.327-1.885,8.327-12.006,0-10.167-2.209-11.87-8.327-11.87h-4.877v23.876Z"/>
      <path class="e" d="M300.366,173.656a33,33,0,0,1-7.591.92c-6.442,0-10.167-1.932-10.167-11.685,0-9.431,3.956-12.146,10.075-12.146s8.74,2.163,8.74,10.443c0,.967-.046,1.887-.137,2.945H287.714c.138,5.659,1.794,6.533,5.981,6.533a28.006,28.006,0,0,0,6.211-.782Zm-3.543-12.882c-.046-5.014-1.288-6.118-4.324-6.118-2.991,0-4.6,1.242-4.739,6.118Z"/>
      <path class="e" d="M306.136,151.39h4.233l.275,2.346c2.807-1.656,5.245-2.76,8-2.76,3.312,0,4.877,1.288,5.751,2.99,3.082-1.933,5.566-2.99,8.327-2.99,4.508,0,6.625,2.253,6.625,7.5v15.641h-5.107V159.44c0-3.312-1.1-4.37-3.174-4.37-1.565,0-3.405.828-5.935,2.439a9.454,9.454,0,0,1,.138,1.794v14.813h-5.107V159.44c0-3.312-1.058-4.37-3.128-4.37-1.61,0-3.4.828-5.8,2.346v16.7h-5.107Z"/>
      <path class="e" d="M354.083,174.761c-6.534,0-10.122-2.393-10.122-11.87,0-9.431,3.819-12.146,10.305-12.146,6.533,0,10.121,2.393,10.121,11.87C364.387,172.046,360.569,174.761,354.083,174.761Zm.045-20.059c-3.4,0-5.06,1.334-5.06,8,0,6.763,1.656,8.143,5.106,8.143s5.107-1.38,5.107-8.051C359.281,156.082,357.579,154.7,354.128,154.7Z"/>
      <path class="e" d="M383.734,173.748a24.213,24.213,0,0,1-5.843.828c-6.579,0-9.753-2.392-9.753-11.685,0-9.339,4.048-11.961,10.121-11.961a22.055,22.055,0,0,1,5.613.782l-.46,3.772a19.664,19.664,0,0,0-4.739-.6c-3.358,0-5.428,1.242-5.428,7.867,0,6.533,1.61,7.913,5.474,7.913a18.931,18.931,0,0,0,4.6-.69Z"/>
      <path class="e" d="M387.776,151.39h4.232l.276,2.484c2.07-1.656,4-3.129,6.027-3.129a3.217,3.217,0,0,1,1.84.461l-.645,4.554a4.128,4.128,0,0,0-1.931-.414c-1.2,0-2.715.828-4.693,2.116v16.654h-5.106Z"/>
      <path class="e" d="M414.543,158.383c0-2.347-1.15-3.5-4.048-3.5a30.023,30.023,0,0,0-6.395.782l-.506-3.773a35.675,35.675,0,0,1,7.775-.965c6.119,0,8.281,2.254,8.281,7.176v16.01h-4.233L415.141,172c-2.254,1.38-4.324,2.576-7.177,2.576-3.726,0-6.44-2.162-6.44-6.671,0-4.738,2.99-7.545,11.041-7.545h1.978Zm-1.7,5.336c-5.153,0-6.717,1.288-6.717,3.818,0,2.255,1.243,3.221,2.991,3.221,1.84,0,3.312-.828,5.428-2.208v-4.831Z"/>
      <path class="e" d="M426.336,151.39v-6.534l5.107-.689v7.223h5.06v3.864h-5.06v12.237c0,2.347.736,3.129,2.392,3.129a8.548,8.548,0,0,0,2.668-.46l.46,3.68a15.128,15.128,0,0,1-4.6.69c-4.462,0-6.027-1.748-6.027-5.8V155.254h-3.358V151.39Z"/>
      <path class="e" d="M443.177,146.881c-2.346,0-3.037-.644-3.037-2.9s.691-2.9,3.037-2.9c2.392,0,3.036.644,3.036,2.9S445.569,146.881,443.177,146.881Zm-2.53,4.509h5.106v22.726h-5.106Z"/>
      <path class="e" d="M465.966,173.748a24.212,24.212,0,0,1-5.842.828c-6.58,0-9.753-2.392-9.753-11.685,0-9.339,4.047-11.961,10.121-11.961a22.047,22.047,0,0,1,5.612.782l-.46,3.772a19.656,19.656,0,0,0-4.738-.6c-3.359,0-5.429,1.242-5.429,7.867,0,6.533,1.61,7.913,5.475,7.913a18.916,18.916,0,0,0,4.6-.69Z"/>
      <path class="e" d="M481.649,169.653a30.463,30.463,0,0,0,7.775,1.059c4.555,0,6.625-1.748,6.625-4.647,0-2.668-1.242-3.588-7.039-6.487-6.165-3.082-8.189-4.784-8.189-9.568,0-5.061,3.4-8.419,11.271-8.419a24.671,24.671,0,0,1,7.131,1.011l-.552,3.865a24.344,24.344,0,0,0-6.671-.92c-4.462,0-6.348,1.564-6.348,4.049,0,2.437,1.288,3.45,6.808,6.164,6.58,3.312,8.465,4.923,8.465,9.754,0,5.658-3.68,9.154-11.592,9.154a30.138,30.138,0,0,1-8.19-1.149Z"/>
      <path class="e" d="M514.72,174.761c-6.533,0-10.121-2.393-10.121-11.87,0-9.431,3.818-12.146,10.305-12.146,6.533,0,10.121,2.393,10.121,11.87C525.025,172.046,521.207,174.761,514.72,174.761Zm.046-20.059c-3.4,0-5.06,1.334-5.06,8,0,6.763,1.656,8.143,5.106,8.143s5.106-1.38,5.106-8.051C519.918,156.082,518.216,154.7,514.766,154.7Z"/>
      <path class="e" d="M544.372,173.748a24.213,24.213,0,0,1-5.843.828c-6.579,0-9.753-2.392-9.753-11.685,0-9.339,4.048-11.961,10.121-11.961a22.041,22.041,0,0,1,5.612.782l-.46,3.772a19.65,19.65,0,0,0-4.738-.6c-3.358,0-5.429,1.242-5.429,7.867,0,6.533,1.611,7.913,5.475,7.913a18.931,18.931,0,0,0,4.6-.69Z"/>
      <path class="e" d="M550.944,146.881c-2.347,0-3.037-.644-3.037-2.9s.69-2.9,3.037-2.9c2.391,0,3.036.644,3.036,2.9S553.335,146.881,550.944,146.881Zm-2.53,4.509h5.106v22.726h-5.106Z"/>
      <path class="e" d="M570.655,158.383c0-2.347-1.151-3.5-4.049-3.5a30.03,30.03,0,0,0-6.395.782l-.5-3.773a35.666,35.666,0,0,1,7.774-.965c6.119,0,8.281,2.254,8.281,7.176v16.01h-4.232L571.252,172c-2.253,1.38-4.324,2.576-7.176,2.576-3.727,0-6.441-2.162-6.441-6.671,0-4.738,2.99-7.545,11.041-7.545h1.979Zm-1.7,5.336c-5.154,0-6.717,1.288-6.717,3.818,0,2.255,1.242,3.221,2.99,3.221,1.84,0,3.313-.828,5.429-2.208v-4.831Z"/>
      <path class="e" d="M581.293,140.164H586.4v33.952h-5.107Z"/>
      <path class="e" d="M594.592,146.881c-2.346,0-3.037-.644-3.037-2.9s.691-2.9,3.037-2.9c2.392,0,3.036.644,3.036,2.9S596.984,146.881,594.592,146.881Zm-2.53,4.509h5.106v22.726h-5.106Z"/>
      <path class="e" d="M601.846,169.976a27,27,0,0,0,5.889.828c3.312,0,4.738-1.058,4.738-2.807,0-1.609-.966-2.162-5.015-3.772-4.37-1.748-5.98-3.082-5.98-6.579,0-4.462,3.082-6.716,9.155-6.716a22.131,22.131,0,0,1,5.475.782l-.553,3.726a21.763,21.763,0,0,0-5.152-.736c-2.714,0-4.187.782-4.187,2.576,0,1.334.874,1.979,4.693,3.45,4.6,1.841,6.349,3.037,6.349,6.948,0,4.37-2.806,6.9-9.754,6.9a25.2,25.2,0,0,1-6.164-.828Z"/>
      <path class="e" d="M622.61,151.39v-6.534l5.106-.689v7.223h5.061v3.864h-5.061v12.237c0,2.347.737,3.129,2.393,3.129a8.548,8.548,0,0,0,2.668-.46l.46,3.68a15.135,15.135,0,0,1-4.6.69c-4.462,0-6.026-1.748-6.026-5.8V155.254h-3.359V151.39Z"/>
      <path class="e" d="M636.667,169.976a27,27,0,0,0,5.889.828c3.313,0,4.738-1.058,4.738-2.807,0-1.609-.965-2.162-5.014-3.772-4.37-1.748-5.981-3.082-5.981-6.579,0-4.462,3.082-6.716,9.156-6.716a22.122,22.122,0,0,1,5.474.782l-.552,3.726a21.778,21.778,0,0,0-5.153-.736c-2.714,0-4.186.782-4.186,2.576,0,1.334.874,1.979,4.692,3.45,4.6,1.841,6.35,3.037,6.35,6.948,0,4.37-2.807,6.9-9.754,6.9a25.193,25.193,0,0,1-6.164-.828Z"/>
      <path class="e" d="M677.056,174.761c-6.533,0-10.121-2.393-10.121-11.87,0-9.431,3.818-12.146,10.305-12.146,6.533,0,10.121,2.393,10.121,11.87C687.361,172.046,683.542,174.761,677.056,174.761ZM677.1,154.7c-3.4,0-5.061,1.334-5.061,8,0,6.763,1.657,8.143,5.107,8.143s5.106-1.38,5.106-8.051C682.254,156.082,680.552,154.7,677.1,154.7Z"/>
      <path class="e" d="M693.425,155.254h-3.542V151.39h3.542V148.4c0-6.026,1.979-8.879,8.512-8.879a19.451,19.451,0,0,1,4.187.46l-.461,3.773a15.992,15.992,0,0,0-3.174-.322c-2.945,0-3.956,1.472-3.956,4.508v3.451h6.118v3.864h-6.118v18.862h-5.108Z"/>
      <path class="e" d="M725.856,142.143h7.637l9.844,31.973h-5.428l-2.576-8.419H723.786l-2.577,8.419H716.1Zm8.557,19.6-2.485-8.235c-.92-2.853-1.61-5.291-2.392-8.051h-.046c-.782,2.807-1.472,5.244-2.392,8.143l-2.438,8.143Z"/>
      <path class="e" d="M747.01,151.39h4.233l.275,2.346c2.807-1.656,5.245-2.76,8-2.76,3.312,0,4.877,1.288,5.751,2.99,3.082-1.933,5.566-2.99,8.327-2.99,4.508,0,6.624,2.253,6.624,7.5v15.641h-5.106V159.44c0-3.312-1.1-4.37-3.174-4.37-1.565,0-3.4.828-5.935,2.439a9.454,9.454,0,0,1,.138,1.794v14.813h-5.107V159.44c0-3.312-1.058-4.37-3.128-4.37-1.61,0-3.4.828-5.8,2.346v16.7H747.01Z"/>
      <path class="e" d="M802.593,173.656a32.99,32.99,0,0,1-7.591.92c-6.441,0-10.167-1.932-10.167-11.685,0-9.431,3.956-12.146,10.076-12.146s8.74,2.163,8.74,10.443c0,.967-.046,1.887-.138,2.945H789.942c.138,5.659,1.794,6.533,5.98,6.533a28.006,28.006,0,0,0,6.211-.782Zm-3.543-12.882c-.046-5.014-1.288-6.118-4.324-6.118-2.99,0-4.6,1.242-4.738,6.118Z"/>
      <path class="e" d="M808.364,151.39H812.6l.276,2.484c2.07-1.656,4-3.129,6.027-3.129a3.217,3.217,0,0,1,1.84.461l-.645,4.554a4.131,4.131,0,0,0-1.931-.414c-1.2,0-2.715.828-4.693,2.116v16.654h-5.106Z"/>
      <path class="e" d="M826.5,146.881c-2.347,0-3.038-.644-3.038-2.9s.691-2.9,3.038-2.9c2.391,0,3.036.644,3.036,2.9S828.889,146.881,826.5,146.881Zm-2.531,4.509h5.107v22.726h-5.107Z"/>
      <path class="e" d="M849.287,173.748a24.22,24.22,0,0,1-5.843.828c-6.579,0-9.753-2.392-9.753-11.685,0-9.339,4.048-11.961,10.121-11.961a22.041,22.041,0,0,1,5.612.782l-.46,3.772a19.65,19.65,0,0,0-4.738-.6c-3.358,0-5.429,1.242-5.429,7.867,0,6.533,1.611,7.913,5.475,7.913a18.931,18.931,0,0,0,4.6-.69Z"/>
      <path class="e" d="M865.266,158.383c0-2.347-1.15-3.5-4.049-3.5a30.013,30.013,0,0,0-6.394.782l-.506-3.773a35.673,35.673,0,0,1,7.774-.965c6.119,0,8.282,2.254,8.282,7.176v16.01H866.14L865.864,172c-2.254,1.38-4.324,2.576-7.177,2.576-3.727,0-6.44-2.162-6.44-6.671,0-4.738,2.99-7.545,11.041-7.545h1.978Zm-1.7,5.336c-5.153,0-6.717,1.288-6.717,3.818,0,2.255,1.242,3.221,2.99,3.221,1.84,0,3.313-.828,5.429-2.208v-4.831Z"/>
    </g>
    <g>
      <path class="b" d="M233.493,19.31h24.64c23.308,0,32.188,6.659,32.188,37.959,0,30.967-9.656,39.18-32.743,39.18H233.493Zm24.2,67.372c14.429,0,20.09-4.551,20.09-28.969,0-24.529-5.328-28.636-20.09-28.636H245.923V86.682Z"/>
      <path class="b" d="M311.526,85.683a73.588,73.588,0,0,0,18.758,2.553c10.988,0,15.982-4.218,15.982-11.211,0-6.437-3-8.657-16.981-15.65-14.873-7.436-19.757-11.543-19.757-23.086,0-12.209,8.214-20.312,27.193-20.312a59.472,59.472,0,0,1,17.2,2.442l-1.332,9.324a58.711,58.711,0,0,0-16.094-2.22c-10.766,0-15.317,3.774-15.317,9.767,0,5.883,3.108,8.325,16.427,14.873,15.872,7.992,20.423,11.877,20.423,23.531,0,13.652-8.88,22.087-27.97,22.087a72.6,72.6,0,0,1-19.757-2.775Z"/>
      <path class="b" d="M395.441,19.31h18.425l23.752,77.139h-13.1l-6.216-20.311H390.446L384.23,96.449H371.911Zm20.644,47.282-5.994-19.867c-2.219-6.882-3.884-12.765-5.771-19.424h-.111c-1.887,6.77-3.552,12.653-5.772,19.646l-5.882,19.645Z"/>
    </g>
    <rect class="b" x="233.493" y="112.641" width="232" height="8"/>
  </g>
</svg>
