<svg xmlns="http://www.w3.org/2000/svg" viewBox="0 0 70 50"><defs><style>.a{fill:#ec1f27;}</style></defs><title>navactivistlogo copy</title><path class="a" d="M25.09,38.26v.08a1.81,1.81,0,0,1-.08.32,3.5,3.5,0,0,0-.32.4c-.16.2,0,.36,0,.64v.64s-.16.36-.16.4a3,3,0,0,1-.16.44s-.2.2-.24.24h-.08s-.2-.08-.24-.08a1.33,1.33,0,0,1-.4-.24,2.92,2.92,0,0,1-.64-.56,10.5,10.5,0,0,1-.92-.84c-.08-.12-.6-.76-.72-1a12.3,12.3,0,0,0-.88-1.32,9.18,9.18,0,0,1-.92-1.6c-.2-.4-.76-1.76-.8-1.88s-.84-2.56-.84-2.6l-.24.24s-.56.44-.64.48-.12.16-.16.16a3.63,3.63,0,0,1-1.32.4l-.65.16c-.15,0-.71.08-.75.08l-.25,0a8,8,0,0,0-1.36.16l-.15,0-.21.12h-.08a13.94,13.94,0,0,1-.68,2s-.44,1-.44,1-.08.28-.08.32-.28.4-.32.52-.16.28-.16.32v.08s-.12.2-.12.24-.2.16-.16.36-.4.72-.48.84c-.2.32-.36.36-.64.6,0,0-.48.2-.56.2l-.44,0s-.4,0-.4-.12a.59.59,0,0,1-.08-.16.88.88,0,0,1,0-.32c0-.12,0-1.36,0-1.52s.32-3.16.48-4.28.76-4,1.08-5.33c.4-1.52,1-3.64,1.28-4.8s1.6-4.76,1.8-5.24c0-.08.12-.56.12-.56s.4-1,.45-1.2.84-1.12.84-1.32l-.08-.08a3.82,3.82,0,0,1-.2-.6,2.34,2.34,0,0,0-.09-.28V12.69s.17-.24.29-.24.15-.08.2-.08l.11-.08a4.81,4.81,0,0,0,.45-1l.07-.16s.12-.28.12-.32a.94.94,0,0,1,.32-.36,2.51,2.51,0,0,0,.21-.28,5.57,5.57,0,0,0,.52-.24c.64-.28,1.56.32,1.88.88,0,0,.08.2.08.24.4,1.12,1,2.28,1.36,3.48,0,0,0,.36,0,.4s.2.36.2.4c.08.24.4,1.2.48,1.4,0,0,.08.28.08.36.12.44.24.92.4,1.4,0,.12.16.52.16.56v0l1,3.28s.12.12.12.16v0a3.6,3.6,0,0,0,.12.64c.2.6.32,1.2.52,1.76,0,.12.44,1.32.52,1.64a3.34,3.34,0,0,1,.32.8c.28.69,1,2.85,1.08,3.09,0,.08.64,1.92.8,2.52s.52,2,.52,2.08c.16.64-.2.56,0,1.24,0,.24.16,1,.2,1.12S25,38,25.09,38.26Zm-7.56-8c-.28-1.16-.8-3.16-1-4.53S16,22.21,15.93,22c0,0-.08-.28-.08-.32s-.08-.64-.08-.64-.08-.2-.08-.24-.08-.2-.08-.24v-.28s-.2.64-.24.8-.44,1.52-.44,1.6a3.38,3.38,0,0,1-.2.68l-.68,2.72c-.17.64-.45,1.61-.45,1.61s-.23.8-.36,1.12c0,0-.15.52-.15.56a2.1,2.1,0,0,0-.12.36c0,.2-.12.4-.05.4A7.46,7.46,0,0,1,13.8,30a4.48,4.48,0,0,0,.69,0c.12,0,1.32.08,1.36.08l.36,0h.08s.36.12.4.12.44.12.48.12a1.67,1.67,0,0,1,.24.08Z"/><path class="a" d="M29.69,38.34c-.52-.32-.88-.68-1-.76a6.66,6.66,0,0,1-.48-.52,11.59,11.59,0,0,1-2.24-4.88c0-.16-.28-1.4-.4-1.8a19.69,19.69,0,0,1-.2-3.41,3.41,3.41,0,0,0,0-.64A31.72,31.72,0,0,1,25.81,22s.12-.72.2-1a24.66,24.66,0,0,1,2-5.6c.32-.56.6-1.12,1-1.64a12.29,12.29,0,0,1,4.32-4.28,3,3,0,0,1,.44-.16l.36.08a5.36,5.36,0,0,1,.48.24c.32.12.72.28.92-.12a.28.28,0,0,0,.12.2.84.84,0,0,1,.24.16,1.38,1.38,0,0,1,.36.32,7.93,7.93,0,0,1,1.8,2.72s.08.32.08.36.13.24.13.28a4.1,4.1,0,0,0,.16.56s0,.2,0,.24a5.94,5.94,0,0,1,.17.92A26.25,26.25,0,0,1,39,18.81c0,.08,0,.76,0,.88V20l0,.16a11.3,11.3,0,0,1-.08,1.16c0,.16-.21,1.32-.24,1.48a2.16,2.16,0,0,1,0,.44c0,.12-.09.64-.09.68a1.42,1.42,0,0,0-.19.24s-.25.24-.28.28l-.12.12a2.73,2.73,0,0,1-.49.44.46.46,0,0,1-.16.08l-.24,0a3.74,3.74,0,0,1-.32-.4c-.4-.36-1-.36-1.32-.76a2.48,2.48,0,0,0-.32-.48c-.07-.16-.28-.56-.28-.6-.08-.28-.44-1.44-.52-1.64s-.16-1.36-.24-1.84c0-.08,0-.52-.08-.64,0-.52-.24-3-.28-3.48A14,14,0,0,1,34,12.57h-.12l-.36.32c0,.08-.2.2-.2.24-.16.24-.88,1.24-1,1.4a13.16,13.16,0,0,0-1.48,3.76c0,.2-.24.84-.24,1s-.44,2.08-.52,2.56a35.6,35.6,0,0,0-.36,5,21.24,21.24,0,0,0,.16,3.21s.08.2.08.24l0,.16c0,.08,0,.32,0,.4a3,3,0,0,0,.4,1.08,2.72,2.72,0,0,0,.52.8,5.39,5.39,0,0,0,2.72,1.2,6.38,6.38,0,0,0,2.72-.44c2.33-.64,2.77-1.56,3.77-2.28,0,0,.28-.2.32-.32a.48.48,0,0,0,.2-.2l.12-.16a1.59,1.59,0,0,1,.16-.12.78.78,0,0,1,.28,0,2.81,2.81,0,0,1,.24.36,10,10,0,0,1,.16,1.08c0,.08-.12.68-.16.84a1.5,1.5,0,0,1-.16.44,5.22,5.22,0,0,1-.16.84s-.12.2-.12.24-.2.72-.24.84-.52.88-.6,1a4.22,4.22,0,0,0-.32.52,1.75,1.75,0,0,1-.25.4s-.71.76-.71.76c-.44.56-1.92,1.2-4.17,1.52A7.72,7.72,0,0,1,29.69,38.34Z"/><path class="a" d="M47.9,37.26a5.43,5.43,0,0,0-.48-.48A8.86,8.86,0,0,1,46,33.5c-.12-.4-.36-1.32-.36-1.36a7.13,7.13,0,0,0-.16-.88c-.08-.72-.24-1.56-.32-2.32,0-.12-.08-1.12-.08-1.29,0-.84-.2-2.92-.2-3.72s.08-4,.08-4.72c0-.08,0-1.16,0-1.24a11.9,11.9,0,0,1,.16-1.28l-.08-.08s-.4,0-.6,0-2.12-.12-2.24-.12a1.24,1.24,0,0,1-.32-.08c-.28-.08-.56-.08-.76-.44,0,0,0-.2-.08-.2a.94.94,0,0,0-.32-.08s-.24-.2-.32-.24A.84.84,0,0,1,40.3,15a2.2,2.2,0,0,1-.4-1l.4,0v-.12s-.2-.32-.24-.4v-.12s.2-.28.28-.36l.24-.12s.16-.08.2-.08l0-.12a2.9,2.9,0,0,1,.2-.36,2.28,2.28,0,0,1,.52-.56s2-.2,2.08-.2c1.52-.08,3.84-.4,4.84-.44s4.28.28,4.48.28c.52.16,1.08.48,1.64.68.08,0,.44.16.48.16s.2.08.32.24a1,1,0,0,1,.08.92c-.08.24-.4.24-.6.32s.64.44.6.44-1,.72-1,.72-.12.36-.16.4-1.32.48-1.56.56a7.87,7.87,0,0,1-.76.28,5.68,5.68,0,0,1-1,.24s-.72.12-1,.2l-.48.08a0,0,0,0,0,0,0s.4.36.4.48c0,.4,0,1.88,0,2.08s.16,1.4.16,1.56,0,1.76.08,2.08c0,.16.08,1.4.08,1.56,0,1,.24,3.33.28,4.41,0,.12,0,2,0,2.72,0,.16,0,.76,0,.84a5.06,5.06,0,0,1-.16,1c-.2.72-.4,1.4-.64,2.12a3.75,3.75,0,0,1-.24,1,1.67,1.67,0,0,1-.08.24s-.08.16-.16.16,0,.12-.08.12l-.16,0h-.08L48.7,37s-.16,0-.16.08-.08.24-.08.32v.36H48.3l-.08,0S48,37.3,47.9,37.26Z"/><path class="a" d="M56.1,35.54c0-.6,0-1,1.32-1.8a2,2,0,0,1,.44-.16l0-.12.08,0a2.69,2.69,0,0,0,.48.24l.48,0h.24a2.69,2.69,0,0,1,.48.24c.12.08.36.2.44.24a1.65,1.65,0,0,1,.44.24c.16.12.44.52.53.6a1,1,0,0,1,.27.28,8.52,8.52,0,0,1,.85,1.36,4.1,4.1,0,0,1,.24,1.12.81.81,0,0,1-.21.24s-.15.16-.23.16a1.69,1.69,0,0,1-.28.2l-.4.6s-.12.16-.16.16-.25.2-.25.2c-.2.08-.95.32-1.12.36a4.5,4.5,0,0,1-.8.08c-.08,0-.28-.12-.32-.08s-.24,0-.28,0a1.15,1.15,0,0,0-.6-.12,1.34,1.34,0,0,1-.4,0,4.38,4.38,0,0,1-.4-.44,1.57,1.57,0,0,1-.56-.32c-.08,0-.16-.16-.16-.16C55.46,37.66,56,36.14,56.1,35.54Zm2.32-4.64a2.27,2.27,0,0,1-.6-.48c0-.08-.24-.36-.28-.44a4.42,4.42,0,0,1-.48-2.41c-.08-1.88-.32-3.72-.24-5.6,0-.12.08-1.2.08-1.48a7.14,7.14,0,0,1,.08-.92A2.61,2.61,0,0,0,57,19c0-.16.52-4.52.6-5,.08-.88.08-1.76.16-2.64,0-.12.12-.8.12-.92a2.79,2.79,0,0,1,1.28-1.88c.4-.2.93.72,1.32.84.73.16.8,0,1.09.64A11.7,11.7,0,0,0,62,11.21c0,.08.08.28.08.36s.32,1.28.36,1.4l0,.12a13.71,13.71,0,0,1,.25,2.24c0,1.36,0,2.68-.08,4-.05.52-.05,1.16-.08,1.72,0,.08-.09.36-.09.4v.28a18.51,18.51,0,0,1-.63,3.64c-.2.8-.68,2.77-.76,3s-.25.8-.25.88-.16,0-.19.12a1.77,1.77,0,0,1-.53.56c-.08,0-.56.56-.64.6s-.2,0-.28,0S58.5,30.9,58.42,30.9Z"/></svg>