<svg xmlns="http://www.w3.org/2000/svg" viewBox="0 0 70 50"><defs><style>.a{fill:#ff1d10;}.b{fill:#009a5b;}.c{fill:#fff;}</style></defs><title>navdsafundlogo copy</title><path d="M53.28,19.33a14.43,14.43,0,0,0-7-4.18,3.8,3.8,0,0,0,1.3-2.81A4.28,4.28,0,0,0,46,9.15,3.62,3.62,0,0,0,46.24,8a4.11,4.11,0,0,0-1.58-3.23A5.11,5.11,0,0,0,42.1,3.67a0,0,0,0,1,0,0A5.44,5.44,0,0,0,37.32,1,5.53,5.53,0,0,0,33,2.79a2.53,2.53,0,0,0-1.17-.51,3.61,3.61,0,0,0-3.34,1.45A5.66,5.66,0,0,0,27.27,8a4.7,4.7,0,0,0-2.37,4.12,6.23,6.23,0,0,0,1.27,3.77l.07.09a12.1,12.1,0,0,0-5.13,4.1.42.42,0,0,0,0,.43,8.8,8.8,0,0,0,6.75,4.7,9.43,9.43,0,0,0,1.49.11,9.14,9.14,0,0,0,5.85-2v2.58h2.11V23.31A8.59,8.59,0,0,0,43,25.42h.2c3.54-.08,7.23-2.1,10.11-5.54A.41.41,0,0,0,53.28,19.33Z"/><path class="a" d="M44.81,9.08A6.33,6.33,0,0,0,41.91,5l-.18-.3A4.18,4.18,0,0,1,44,5.55a3.06,3.06,0,0,1,1.19,2.38A2.28,2.28,0,0,1,44.81,9.08Z"/><path class="a" d="M36,10.48a5.52,5.52,0,0,1-2.83-.89,8.25,8.25,0,0,1-.26-1.84,5,5,0,0,0,2.68,1.1h.1a2.81,2.81,0,0,0,2-.8,6.88,6.88,0,0,0,2.07-3.19,1.78,1.78,0,0,1,.89.46,1,1,0,0,1,.24.81,5.9,5.9,0,0,1-3.07,3.94A4.23,4.23,0,0,1,36,10.48Z"/><path class="a" d="M38.23,4.13a2.19,2.19,0,0,0-2-1.34A2.94,2.94,0,0,0,34,3.7a2.15,2.15,0,0,0-.14-.26,4.44,4.44,0,0,1,3.46-1.38,4.38,4.38,0,0,1,3.23,1.32A8.32,8.32,0,0,0,39,3.54l-.13,0-.14.1C38.57,3.85,38.4,4,38.23,4.13Z"/><path class="a" d="M36,5.11l-.26,0a2.11,2.11,0,0,1-.93-.39,1.71,1.71,0,0,1,1.4-.64,1,1,0,0,1,.94.76A2.71,2.71,0,0,1,36,5.11Z"/><path class="a" d="M35.6,7.58A4.76,4.76,0,0,1,33,6.16c0-.18,0-.37.08-.56a.84.84,0,0,1,.18-.35l.17-.13A3.34,3.34,0,0,0,36,6.37a4.07,4.07,0,0,0,1.81-.47,7.83,7.83,0,0,1-1.07,1.23,1.52,1.52,0,0,1-1.1.46Z"/><path class="a" d="M28.31,7.24a4.57,4.57,0,0,1,1-2.84,2.74,2.74,0,0,1,2-1.1,1.55,1.55,0,0,1,.31,0,1.59,1.59,0,0,1,.92.5l.16.21-.35.26a1.85,1.85,0,0,0-.5.76A7.45,7.45,0,0,0,30,6.72,9.7,9.7,0,0,0,28.31,7.24Z"/><path class="a" d="M45.15,14.73c-.41-.05-.8-.09-1.19-.1A6.08,6.08,0,0,0,45,10.89v-.13a3.94,3.94,0,0,0,.54-.54,3.08,3.08,0,0,1,.94,2.12A3.4,3.4,0,0,1,45.15,14.73Z"/><path class="a" d="M40.48,15.16c-1.38-.3-4.63-1.21-6.23-3.31a5.36,5.36,0,0,1-.34-.49,6,6,0,0,0,2.06.38,5.32,5.32,0,0,0,2.35-.54A7.31,7.31,0,0,0,42,6.67a5.6,5.6,0,0,1,1.7,4.22,4.57,4.57,0,0,1-1.58,3.85A9.83,9.83,0,0,0,40.48,15.16Z"/><path class="a" d="M35.68,17.52a8.89,8.89,0,0,0-4.43-2.27c-1.34-2.16-1.78-4.12-1.31-5.83a5.47,5.47,0,0,1,1.68-2.59A9.55,9.55,0,0,0,32,10.12a7.94,7.94,0,0,0,1.26,2.5A10.21,10.21,0,0,0,38.64,16a10.24,10.24,0,0,0-1.89,1.49,1.6,1.6,0,0,0-.53-.09A1.57,1.57,0,0,0,35.68,17.52Z"/><path class="a" d="M27.19,15.45A5.33,5.33,0,0,1,26,12.12a3.72,3.72,0,0,1,2.15-3.39A6.23,6.23,0,0,1,29,8.32a6.81,6.81,0,0,0-.26.76,8,8,0,0,0,1,6h0l-.55,0A9.27,9.27,0,0,0,27.19,15.45Z"/><path class="b" d="M28.85,19.91l-.74-3.65a8.94,8.94,0,0,0-3.17,1.25l1.89,2.4Z"/><path class="b" d="M28.58,20.74H26.82l-1.93,2.68a7.7,7.7,0,0,0,1.5.64Z"/><path class="b" d="M24.18,23l1.62-2.25H22A7.69,7.69,0,0,0,24.18,23Z"/><path class="b" d="M22.19,19.91h3.58L24.25,18A12.47,12.47,0,0,0,22.19,19.91Z"/><path class="b" d="M30.35,24.41a8.13,8.13,0,0,0,4.7-2.25V20.74h-2.5Z"/><path class="b" d="M29.08,16.15h-.14l.75,3.75h2l-1.41-3.74A7.22,7.22,0,0,0,29.08,16.15Z"/><path class="b" d="M35.05,18.45a8,8,0,0,0-3.8-2.13l1.35,3.59h2.45Z"/><path class="b" d="M29.33,24.49l2.26-3.75h-2l-2.34,3.55.59.1A8.47,8.47,0,0,0,29.33,24.49Z"/><path class="b" d="M41.94,15.8l-1.87,4,1.41-.07,3.22-4a10.92,10.92,0,0,0-1.13-.08A9.78,9.78,0,0,0,41.94,15.8Z"/><path class="b" d="M37.16,18.44V19.9l2-.09,1.76-3.75A9.11,9.11,0,0,0,37.16,18.44Z"/><path class="b" d="M42.59,19.65l2.63-.11,2.19-3.13a11.55,11.55,0,0,0-1.77-.53Z"/><path class="b" d="M49.39,17.36q-.59-.34-1.2-.63l-1.93,2.76,2-.08Z"/><path class="b" d="M40.31,24.19l-1.2-3.55-2,.08v1.45A7.55,7.55,0,0,0,40.31,24.19Z"/><path class="b" d="M49.7,22.06l-1.43-1.83-2.1.1L48,23.18A13.73,13.73,0,0,0,49.7,22.06Z"/><path class="b" d="M43.05,24.59l.66,0-2.26-4L40,20.6l1.3,3.84A8.61,8.61,0,0,0,43.05,24.59Z"/><path class="b" d="M51.9,20.07l-2.61.12,1.06,1.36A17.85,17.85,0,0,0,51.9,20.07Z"/><path class="b" d="M50.09,17.8l-.89,1.56,2.71-.12A13.87,13.87,0,0,0,50.09,17.8Z"/><path class="b" d="M47.22,23.56l-2-3.19-2.84.12,2.21,3.93A10.51,10.51,0,0,0,47.22,23.56Z"/><path class="b" d="M36.33,18.5a.63.63,0,0,0-.23,0,.68.68,0,0,0-.23,0V25h.46V18.5Z"/><path class="b" d="M28.85,19.91l-.74-3.65a8.94,8.94,0,0,0-3.17,1.25l1.89,2.4Z"/><path class="b" d="M24.18,23l1.62-2.25H22A7.69,7.69,0,0,0,24.18,23Z"/><path class="b" d="M22.19,19.91h3.58L24.25,18A12.47,12.47,0,0,0,22.19,19.91Z"/><path class="b" d="M28.58,20.74H26.82l-1.93,2.68a7.7,7.7,0,0,0,1.5.64Z"/><path class="b" d="M29.33,24.49l2.26-3.75h-2l-2.34,3.55.59.1A8.47,8.47,0,0,0,29.33,24.49Z"/><path class="b" d="M29.08,16.15h-.14l.75,3.75h2l-1.41-3.74A7.22,7.22,0,0,0,29.08,16.15Z"/><path class="b" d="M30.35,24.41a8.13,8.13,0,0,0,4.7-2.25V20.74h-2.5Z"/><path class="b" d="M35.05,18.45a8,8,0,0,0-3.8-2.13l1.35,3.59h2.45Z"/><path class="b" d="M41.94,15.8l-1.87,4,1.41-.07,3.22-4a10.92,10.92,0,0,0-1.13-.08A9.78,9.78,0,0,0,41.94,15.8Z"/><path class="b" d="M37.16,18.44V19.9l2-.09,1.76-3.75A9.11,9.11,0,0,0,37.16,18.44Z"/><path class="b" d="M49.39,17.36q-.59-.34-1.2-.63l-1.93,2.76,2-.08Z"/><path class="b" d="M42.59,19.65l2.63-.11,2.19-3.13a11.55,11.55,0,0,0-1.77-.53Z"/><path class="b" d="M40.31,24.19l-1.2-3.55-2,.08v1.45A7.55,7.55,0,0,0,40.31,24.19Z"/><path class="b" d="M51.9,20.07l-2.61.12,1.06,1.36A17.85,17.85,0,0,0,51.9,20.07Z"/><path class="b" d="M50.09,17.8l-.89,1.56,2.71-.12A13.87,13.87,0,0,0,50.09,17.8Z"/><path class="b" d="M49.7,22.06l-1.43-1.83-2.1.1L48,23.18A13.73,13.73,0,0,0,49.7,22.06Z"/><path class="b" d="M43.05,24.59l.66,0-2.26-4L40,20.6l1.3,3.84A8.61,8.61,0,0,0,43.05,24.59Z"/><path class="b" d="M47.22,23.56l-2-3.19-2.84.12,2.21,3.93A10.51,10.51,0,0,0,47.22,23.56Z"/><polygon class="c" points="51.69 46.06 42.41 46.06 36.26 47.25 30.6 46.06 20.75 46.06 20.75 25.62 21.83 25.59 50.48 25.59 51.78 25.63 51.69 46.06"/><path d="M50.48,25.59l0,.63h.7s0,18.13,0,18.92c-.72,0-4.86-.14-7.69.06-4.4.32-6.53,1.67-7.33,1.67s-3.45-1.43-6.74-1.64c-2.83-.19-7.57-.09-8.29-.09,0-.79,0-18.92,0-18.92h.69l0-.63-2,.05V47c0,.54.25.71.7.64s6.72-1.06,9-1.06c3.33,0,5.85.92,6.65.92,1.34,0,3.58-1.11,6.85-1.11a77.26,77.26,0,0,1,8.76,1.25c.44.07.69-.1.69-.64V25.64Z"/><polygon class="c" points="49.64 44.06 41.54 44.06 36.18 45.56 31.24 44.06 22.64 44.06 22.64 23.57 34.79 23.57 36.26 24.14 37.75 23.57 49.64 23.57 49.64 44.06"/><path d="M36.14,45.81a2.83,2.83,0,0,1-1.34-.35c-1.06-.49-3-1.39-12.17-1.19h-.3V23.57h1.35v.57h-.77V43.69c9-.19,11,.71,12.13,1.25a2.42,2.42,0,0,0,1.1.3,2.31,2.31,0,0,0,1.08-.3c1.17-.53,3.11-1.41,12.22-1.23V24.14h-.78v-.57H50V44.3h-.29c-9.24-.2-11.21.7-12.27,1.18A2.86,2.86,0,0,1,36.14,45.81Z"/><path class="c" d="M24.57,41.85V21.44C27.71,21.71,34.2,23,36,24.16v20A30.63,30.63,0,0,0,24.57,41.85Z"/><path class="c" d="M47.71,41.85a30.42,30.42,0,0,0-11.45,2.32v-20c1.82-1.21,8.3-2.45,11.45-2.72Z"/><path d="M47.81,21.17c-3,.21-9.62,1.41-11.67,2.74-2-1.33-8.72-2.53-11.67-2.74l-.31,0v21h.28a28.47,28.47,0,0,1,11.4,2.31,1,1,0,0,0,.3.07.68.68,0,0,0,.29-.07,28.47,28.47,0,0,1,11.4-2.31h.29v-21ZM24.74,41.59V21.77c3.05.26,9.35,1.47,11.11,2.64V43.84A29.5,29.5,0,0,0,24.74,41.59Zm22.8,0a29.5,29.5,0,0,0-11.11,2.25V24.41c1.76-1.17,8.06-2.38,11.11-2.64Z"/></svg>