<svg xmlns="http://www.w3.org/2000/svg" viewBox="0 0 70 50"><defs><style>.a{fill:#241e20;}.b{fill:#fff;}.c{fill:#ea2127;}.d{fill:none;stroke:#241e20;stroke-linecap:round;stroke-miterlimit:10;}</style></defs><title>navelectorallogo copy</title><polygon class="a" points="35.33 25.93 53.01 19.27 53.03 41.87 35.35 48.52 35.33 25.93"/><path class="a" d="M52.68,19.75l0,21.89-17,6.41,0-21.9,17-6.4m.66-.95L35,25.7,35,49l18.34-6.9,0-23.3Z"/><polygon class="b" points="16.97 41.87 16.99 19.27 34.67 25.93 34.65 48.52 16.97 41.87"/><path class="a" d="M17.32,19.75l17,6.4,0,21.9-17-6.41,0-21.89m-.66-.95,0,23.3L35,49l0-23.3L16.66,18.8Z"/><polygon class="b" points="17.59 18.8 35 12.19 52.41 18.8 35 25.35 17.59 18.8"/><path class="a" d="M35,12.54l16.47,6.25L35,25l-16.47-6.2L35,12.54m0-.7-18.34,7L35,25.7l18.34-6.9L35,11.84Z"/><path class="c" d="M29.59,16.82c-1.19-9.13,3-14.38,3.84-15.35a.47.47,0,0,1,.32-.11c.37,0,.74,0,1.13,0a33.21,33.21,0,0,1,9.3,1.52c-1.42,1.8-4.61,8.36-4.17,17.89Z"/><path class="a" d="M34.88,1.66h0A32.93,32.93,0,0,1,43.65,3c-1.54,2.27-4.28,8.49-4,17.22l-9.77-3.67c-1.09-8.86,3-13.95,3.76-14.87l.12,0c.35,0,.73,0,1.11,0m0-.66c-.39,0-.78,0-1.15,0a.74.74,0,0,0-.55.22c-1.46,1.65-5.09,7.12-3.89,15.79l11.08,4.17c-.64-10.82,3.5-17.83,4.4-18.52A33.54,33.54,0,0,0,34.88,1Z"/><path class="b" d="M39.59,10.53a1.59,1.59,0,0,0,.1-.5A3.11,3.11,0,0,0,39,8.11a3,3,0,0,0-1-.86,3.44,3.44,0,0,0-2-1.94,1.8,1.8,0,0,0-1.8.28,1.31,1.31,0,0,0-.43-.32.85.85,0,0,0-.22-.09,1.2,1.2,0,0,0-1.29.4,2.75,2.75,0,0,0-.6,1.94,1.91,1.91,0,0,0-1,1.8,4.48,4.48,0,0,0,.49,2.1,3.52,3.52,0,0,0,.69.92,2.69,2.69,0,0,0,.58,1.74,2.74,2.74,0,0,0,1.36.87,3.27,3.27,0,0,0,1.09.15,2.32,2.32,0,0,0,.83.45l.13,0A1.76,1.76,0,0,0,38,14.34a4.62,4.62,0,0,0,1.58-.69,1.67,1.67,0,0,0,.63-1.33A3.12,3.12,0,0,0,39.59,10.53Zm-1-2A2,2,0,0,1,39,9.81a1.14,1.14,0,0,1-.07.33A4.34,4.34,0,0,0,37.87,8,2,2,0,0,1,38.6,8.57ZM37.88,9a3.78,3.78,0,0,1,.54,2.09,1.73,1.73,0,0,1-1,1.8,6.76,6.76,0,0,1-2.79-2.52l0-.06a2.66,2.66,0,0,0,.68.33h0a1.86,1.86,0,0,0,1,0A2.47,2.47,0,0,0,37.88,9ZM36,6.08h0a2.18,2.18,0,0,1,1.15.85,2.94,2.94,0,0,0-.5-.07h-.06l0,0h0l0,0-.14.1a1.33,1.33,0,0,0-.82-.86,1,1,0,0,0-.8,0A1.37,1.37,0,0,1,36,6.08ZM35.8,7.26a.85.85,0,0,1-.39,0l-.1,0A1.11,1.11,0,0,1,35,7a.5.5,0,0,1,.49-.08C35.56,6.93,35.7,7,35.8,7.26Zm-1.54,0a.22.22,0,0,1,.05-.12h0a2.26,2.26,0,0,0,.87.83l.2.08a1.4,1.4,0,0,0,.54,0,1.5,1.5,0,0,1-.29.27.44.44,0,0,1-.43.08h0a2.72,2.72,0,0,1-1-1A1.3,1.3,0,0,1,34.26,7.24Zm.91,1.93h0A.88.88,0,0,0,36.08,9,2.51,2.51,0,0,0,37,7.77a.84.84,0,0,1,.27.26.56.56,0,0,1,.07.37A2,2,0,0,1,36,9.88a1.23,1.23,0,0,1-.71,0,2.55,2.55,0,0,1-1.09-.74,4.28,4.28,0,0,1-.07-.72A2.75,2.75,0,0,0,35.17,9.17Zm-1,1.5a6.21,6.21,0,0,0,2.38,2.48c.16.11.48.3.82.48a4.66,4.66,0,0,1-2.06-.2A6.88,6.88,0,0,1,34,12.87a10.56,10.56,0,0,1-.54-1.16,4.68,4.68,0,0,1-.48-3,2,2,0,0,1,.58-.94,5.8,5.8,0,0,0,.12,1.46.15.15,0,0,0,0,.07A5.63,5.63,0,0,0,34.13,10.67ZM32.74,6.22a.77.77,0,0,1,.79-.28l.11,0a.83.83,0,0,1,.34.33l0,0-.1.06a.71.71,0,0,0-.22.31,2.22,2.22,0,0,0-.79.56,3.37,3.37,0,0,0-.57,0A1.87,1.87,0,0,1,32.74,6.22ZM31.3,9.52a1.29,1.29,0,0,1,.88-1.33l.21-.07-.06.2a5.22,5.22,0,0,0,.39,3.28s.11.3.35.86a3.39,3.39,0,0,1-1.33-1.22A3.39,3.39,0,0,1,31.3,9.52Zm1.47,4.11a1.63,1.63,0,0,1-.34-.77,8.35,8.35,0,0,0,1.51.87h0a2.59,2.59,0,0,0,.29.63A2.32,2.32,0,0,1,32.77,13.63Zm3,1.26A1.85,1.85,0,0,1,34.66,14l.49.17h0l.6.16a5.15,5.15,0,0,0,1.39.11A1.29,1.29,0,0,1,35.81,14.89Zm2.46-1.51-.09,0a1.22,1.22,0,0,0,.29-.23,2.56,2.56,0,0,0,.6-1.84v0l.16-.14a2,2,0,0,1,.29,1C39.53,12.83,38.78,13.28,38.27,13.38Z"/><line class="d" x1="28.52" y1="16.7" x2="40.68" y2="21.28"/></svg>