<svg xmlns="http://www.w3.org/2000/svg" viewBox="0 0 70 50"><defs><style>.a{fill:#1b1819;}.b{fill:#dc3c36;}</style></defs><title>navecosoclogo</title><path class="a" d="M44,9a3.83,3.83,0,0,0,.71.34c.29.14.58.32.87.47a15.3,15.3,0,0,1,1.71,1.13,18.2,18.2,0,0,1,3.12,2.76,22.41,22.41,0,0,1,3.82,5.83,20.73,20.73,0,0,1,.75,15A17.42,17.42,0,0,1,53.5,38c-.39.57-.77,1.26-1.19,1.85-.21.29-.45.56-.67.85s-.67.69-.7.93h0c-.47.05-1.37,1.42-1.72,1.74a20.8,20.8,0,0,1-2.17,1.7,20.26,20.26,0,0,1-5,2.55A20.9,20.9,0,0,1,21,43.27a21.53,21.53,0,0,1-2.59-3,10.76,10.76,0,0,1-1.09-1.55c-.19-.38-.69-1.8-1.08-1.92.08-.24-.34-.85-.44-1.12a13.1,13.1,0,0,1-.57-1.44c-.26-1-.48-2-.65-3.06a19.73,19.73,0,0,1-.16-4.73c0-.65.07-1.24.17-1.87s.25-1.16.36-1.77A17.84,17.84,0,0,1,18,16.06a22.16,22.16,0,0,1,2.07-2.55c.42-.45.91-.89,1.34-1.28.21-.19.38-.38.58-.58a.44.44,0,0,0,.35-.2.53.53,0,0,0,0-.28h.37a1.65,1.65,0,0,0,.41-.33c.25-.18.54-.35.8-.52.61-.39,1.24-.67,1.86-1A11.9,11.9,0,0,1,27,8.73c.29-.13,1.47-.37,1.59-.65h0c.21,0,1-.15,1.14-.4a4,4,0,0,0,1.17-.19c.7-.14,1.37-.22,2.07-.31A19.67,19.67,0,0,1,37,7.14a20.72,20.72,0,0,1,3.55.6c.59.16,1.24.32,1.79.52A8,8,0,0,0,44,9Zm-15.46,11-.1-.1c-.11.19.12.59,0,.85s-.52.38-.8.52a2.35,2.35,0,0,0-.86.62c-.4.52-.06.81-.11,1.38,0,.35-.2,1.08-.63.74s.2-.84,0-1.22-.63-.15-.93-.27c-.51-.21-.51-.44-1.12-.45s-1.35-.27-1.88.36a3,3,0,0,0-.55,2.47c.12.4.47,1,1,.84.31-.07.34-.32.53-.52a1,1,0,0,1,.78-.42c.7.05.52.36.29.74-.05.1-.62,1.09-.61,1.14.08.31.72.24.93.32,1,.38.25,1.33.52,2,.17.44.38.5.8.53a3.35,3.35,0,0,1,.9.19c.4.11.4.24.76-.05s.55-.72,1.08-.8a.81.81,0,0,1,.53.05c.13.06.19.27.26.31a1.94,1.94,0,0,0,.87.08,4.23,4.23,0,0,1,2.59,1c.3.25.55.69.92.84s.68,0,1,.05c.92.13,1,.77,1.26,1.53a1.27,1.27,0,0,0,.71.94c.21.08.53,0,.77,0a9,9,0,0,0,1.19.3c.52.06.65.31,1.12.49.67.25,1.53-.17,1.84.76s-.68,1.7-1.13,2.34-.46,1.84-1.05,2.6-1.45.72-2,1.33c-.26.27-.3.67-.53.93s-.59.33-.87.55a5.38,5.38,0,0,1-1,.83c-.16.07-.57.07-.69.15s-.2.4-.31.53c-.4.44-1.4.49-1.57,1.12-.12.42.28.3.22.65,0,.16-.35.25-.34.42s.37.29.43.41c.31.64-.45.65-.93.53A2.36,2.36,0,0,1,30.07,46a51.86,51.86,0,0,1-.5-5.85c0-.7,0-.89-.65-1.14-1-.37-1.1-1.09-1.81-1.78-.32-.31-.87-.63-1-1.07a5,5,0,0,1,0-.53,5.81,5.81,0,0,0-.38-.89c-.58-1.33.15-1.4.81-2.43a1.25,1.25,0,0,0-.73-2c-1.06-.14-1.41-.51-1.83-1.52-.21-.52-.2-.58-.65-.72-.29-.08-.36,0-.59-.22s-.26-.72-.63-1-.75-.15-1.07-.43c-.17-.14-.16-.33-.31-.47s-.4-.2-.56-.34a1.65,1.65,0,0,1-.57-1.05c-.06-.48,0-.91-.05-1.39s.07-1.17-.16-1.59c-.17.52.09,1.12-.42,1.5-.43-.56-.25-1.12-.13-1.74a12,12,0,0,0,.05-1.34A7.75,7.75,0,0,1,19.9,16.3,8.35,8.35,0,0,1,21.06,15a3.85,3.85,0,0,0,.84-1.33c.5-1.09,1.71-1.58,2.25-2.64-1.09.29-2.31,1.66-3.1,2.43A20.31,20.31,0,0,0,15.34,24,20.21,20.21,0,0,0,47.47,44a19.89,19.89,0,0,0,3.27-3.15,10.71,10.71,0,0,0,1.19-1.58,2.54,2.54,0,0,0,.22-.94A11.05,11.05,0,0,1,52.62,37a16.16,16.16,0,0,1,.45-2.13,6.85,6.85,0,0,0,.59-2.18c.08-.82-.5-1.1-.65-1.86A2.57,2.57,0,0,1,53,30c0-.24.35-.76.23-1-.6.29-.41-.12-.85-.3s-.61.41-.88.64c-.43.37-.83.11-1.25.28s-.54.56-1.18.31A5,5,0,0,1,47,28.31a3.61,3.61,0,0,1-.65-1c-.11-.33-.09-.18,0-.5a3.11,3.11,0,0,0,.12-.78c-.08-1.21-1.12-2-.46-3.26.2-.37.57-.71.62-1.15,0-.27-.13-.49-.1-.74s.22-.38.34-.61.24-1.15-.2-1.35c-.27-.12-.49.23-.76-.05s0-.32,0-.45a2.36,2.36,0,0,0-.23-.52c-.1-.15-.43-.29-.45-.5-.06-.59.87-.71,1.28-.83-.26-.75-.82-.57-1.36-.85s-.24-.13-.06-.49c.08-.16.16-.3.25-.45s.27-.28.31-.53-.24-.56-.19-.83c.09-.43.58-.58.79-.9a.73.73,0,0,0-.54-.24c.17.7-.71.17-.94.05-.29.61-1.13.13-1.49-.23s-.07-.13-.18-.52a1.79,1.79,0,0,0-.32-.63c-.23-.31-.91-.71-.92-1.1,0-.64.74-.45,1.08-.51-.68-.79-2.54-1-3.52-1.21a20.52,20.52,0,0,0-4.07-.42,21.39,21.39,0,0,0-4.44.47c-1.05.23-2.71.36-2.9,1.63,0,.18-.26.49.1.5s.13-.25.27-.41c.27-.35.54-.62,1-.4.22.1.35.45.59.5s.5-.06.72,0c.4.07.91.12,1.29.23a2,2,0,0,1,1.18,1,1.57,1.57,0,0,1,.29.76c-.05.33-.14.13-.28.37-.24.45-.22.81-.92.67a4,4,0,0,1-1.52-.95c-.43.3.09.56-.53.6-.3,0-.55-.26-.82-.26s-1.71.53-1.81.84.4.53.59.65a1.61,1.61,0,0,1,.63.46l.22.07c.24.11.24.26,0,.44,0,.34-.18.42,0,.79.63-.12.28-.6.56-.93s.43-.05.58-.19.22-.6.29-.87c.16-.58.38-1.19,1.16-.82.25.12.28.28.39.48a.34.34,0,0,0-.05.22l.36.29c.36-.46.86-.53,1,.07a2.17,2.17,0,0,0,.7,1.24c0,.05.44.43.45.45.06.21-.12.22-.11.29a1.22,1.22,0,0,0,.1.51c.13.26.45.36.56.65a2.55,2.55,0,0,1-1.16.11c-.63-.13-.23-.22-.24-.8a6.26,6.26,0,0,0-2.22.19c.22.05.77-.1.94.07s-.07.32-.07.63c.37.12.75-.05,1.12.07a4,4,0,0,1-1.38.85c-.5.2-.65,0-1.09.18a12.78,12.78,0,0,0-1.35.91C29.2,19.47,28.9,20.11,28.58,19.93Zm23.73-2.7a9,9,0,0,0-.9-1.28,3,3,0,0,0-.2.4c.08-.12-.58.38-.3.25-.06,0-.11.13-.19.17s-.32-.15-.49-.05c.11.35.1.72-.33.78s-.3-.14-.38-.37c-.18-.49-.13-.82-.83-.83.11.22.72,1.22,0,1.18-.41,0-.65-1.07-.7-1.36-.1.19-.26.22-.33.42a4.68,4.68,0,0,0,0,1.18c0,.25.17.58.05.82s-.45.26-.53.52a1.09,1.09,0,0,0,1-.51,1.83,1.83,0,0,1,.76-.62c.83-.29.9.46,1.5.67a5.85,5.85,0,0,0,.83.13c.56-.07.15.08.16-.33a.54.54,0,0,1-.21-.32.79.79,0,0,1,.53-.16C52.31,17.77,52.31,17.82,52.31,17.23Zm-2.85-3,.74.31a3.59,3.59,0,0,0-.7-.8C49.29,13.85,49.39,14,49.46,14.2Zm-.86,1.22a3.06,3.06,0,0,0,1.13.49A1.38,1.38,0,0,0,48.6,15.42Z"/><path class="b" d="M56.29,13.25c-.51-.39-.54-.38-.5-1a4.07,4.07,0,0,0,0-.78,3.72,3.72,0,0,0-.58-1.61,5.81,5.81,0,0,0-3.14-2.14c-.71-.22-1.44-.28-2.13-.55a2.36,2.36,0,0,0-2.06,0c-.28.1-.29.29-.57.1s0-.58.26-.88A4.56,4.56,0,0,1,49,5.25c1.24-.68,2.76-1,3.63.29A3.81,3.81,0,0,0,53.75,7a5.11,5.11,0,0,0,1.69.41C58.34,8,58.62,11.68,56.29,13.25Z"/><path class="b" d="M15.4,9.23c1-1.7,3.12-2.52,4.73-1A18.36,18.36,0,0,0,18.37,10c-.37.33-.16.22-.69.2a2.38,2.38,0,0,0-1,.14c-.62.23-.91.82-1.47,1a15,15,0,0,0-2.6.73A2.09,2.09,0,0,1,15.4,9.23Z"/><path class="b" d="M54,14.34a6.65,6.65,0,0,0-.35-2,4.06,4.06,0,0,0-1.16-1.44c-.4-.33-.69-.72-1.08-1.06a2.13,2.13,0,0,0-.47-.31l0-.34a4.58,4.58,0,0,0-.32-1.35,5.75,5.75,0,0,1,4.27,2.4A2.93,2.93,0,0,1,54,14.34Z"/><path class="b" d="M15.38,21.19c-.11.6-.75,0-1-.2-.46-.33-.92-.54-1.36-.92a5.6,5.6,0,0,1-.66-.48,2.43,2.43,0,0,1-.22-1,6.48,6.48,0,0,1,.26-1.86c.27-1.27-.93-2.3-.27-3.49s2-1.41,3.15-1.46A2.74,2.74,0,0,1,14.69,13a11,11,0,0,0-.75.91,5,5,0,0,0-.83,2.53A5.28,5.28,0,0,0,15.38,21.19Z"/><path class="b" d="M12.1,11.93c.23.49.12.44-.18.87a2.24,2.24,0,0,0-.45,1.14c-.07.8.55,1.4.56,2.2a6.48,6.48,0,0,1-.27,1.38c-.1.5.06,1,0,1.48.21.31.15.46-.19.45a.25.25,0,0,1-.33-.11c-.11-.11-.12-.65-.18-.83C10.57,17,9.1,16,9.43,14.27A2.79,2.79,0,0,1,12.1,11.93Z"/><path class="b" d="M16.11,19.28a6.26,6.26,0,0,1-.6,1.44c-1.78-.92-2.33-3.53-1.81-5.3a4.49,4.49,0,0,1,4.68-3.31,12.45,12.45,0,0,1-1.69,1.47A6.44,6.44,0,0,0,15,15.14C14.16,16.69,14.86,18.23,16.11,19.28Z"/><path class="b" d="M48.5,5a7.43,7.43,0,0,0-1.36,1.27c-.12.15-.32.62-.49.7a7.23,7.23,0,0,1-.91-.05c-.43.05-1.24.62-1.46.54a1.34,1.34,0,0,1-.66-1.21,3.87,3.87,0,0,1,2.19-2C46.46,4.05,48.31,4.1,48.5,5Z"/><path class="b" d="M36.73,4.53c-.9-.19.28-1.87.71-2.19a1.5,1.5,0,0,1,2.2.54,4.53,4.53,0,0,0,2.23,1.74,2.2,2.2,0,0,1,1.51,2c0,.32-.13,1-.46,1.14s-.33-.27-.41-.59c-.21-.93-1.11-1-1.55-1.76s-.9-1.67-1.93-1.9a1.78,1.78,0,0,0-1.26.17C37.43,3.83,37.08,4.47,36.73,4.53Z"/><path class="b" d="M64.48,33.7c-.18-.46.23-.6.38-1s0-.79-.11-1.27c-.18-1.06.54-2,.1-3.07A1.92,1.92,0,0,0,63,27.1c-.28,0-.78.24-.89-.19s.89-.71,1.2-.8a1.62,1.62,0,0,1,2.16.85c.29.95-.29,1.9.06,2.88s.91,1.59.58,2.6A1.84,1.84,0,0,1,64.48,33.7Z"/><path class="b" d="M24.86,9.7a.75.75,0,0,1-1.22.15,2,2,0,0,1-.72-.92C22.61,8,23.28,7.48,24,7a3.82,3.82,0,0,0,1.37-2A2.08,2.08,0,0,1,27,3.59c.43,0,1.87.37,1.2.83-.25.17-.72,0-1,.24s-.42.65-.69,1c-.57.63-1.47.72-2,1.49A2.07,2.07,0,0,0,24.86,9.7Z"/><path class="b" d="M57.36,16.9a5.21,5.21,0,0,0,.07-1.76c-.1-.5-.68-1-.72-1.44s.57-.73.82-1.07c.4-.54.4-.74,1-.28a2.64,2.64,0,0,1,.89,2.53,3.36,3.36,0,0,1-.89,1.55,5.32,5.32,0,0,1-.55.64C57.79,17.13,57.52,16.92,57.36,16.9Z"/><path class="b" d="M6.66,29.88c-.1.41.11,1.15-.21,1.32s-.94-.21-1.18-.41c-.85-.73-.5-1.57-.72-2.5s-1.15-1.52-1-2.55A2.12,2.12,0,0,1,5,24.16c-.06.68.48,1.31.43,1.84,0,.13-.34.51-.39.62a2.41,2.41,0,0,0-.24.86C4.69,28.76,5.63,29.4,6.66,29.88Z"/><path class="b" d="M58.89,26.26A4.55,4.55,0,0,0,57.15,26a1.77,1.77,0,0,1,1-1.54c.72-.3,1.17.1,1.81.31,1.23.4,3.22-.92,3.82.94-.42.1-1.2.63-1.58.6s-.4-.6-.83-.8a1.35,1.35,0,0,0-1.13.06A6,6,0,0,0,58.89,26.26Z"/><path class="b" d="M54.67,39.18c.88-.16,1.6.48,2.55.14a2.61,2.61,0,0,0,1.63-1.61c.52.66,0,1.42-.66,1.72s-1.35.07-1.79.64c0,0,1.38-.3,1.5-.33a1.81,1.81,0,0,0,1.25-1A1.66,1.66,0,0,0,59,37.57c0-.19-.23-.22-.1-.45.25-.43,1.06.7,1.14.92.6,1.52-1.19,1.42-2,2-.49.35-.78.93-1.38,1.11a1.29,1.29,0,0,1-1.56-.73c.3-.27.73.19,1-.11-.38-.16-.65-.05-1-.37A1.87,1.87,0,0,1,54.67,39.18Z"/><path class="b" d="M9.56,22.63c-.81-.05-1.33-.46-1.82.49a7.91,7.91,0,0,1-.56,1.42c-.34.43-1,.69-1.46,1.11A1.67,1.67,0,0,1,5.33,24c.21-.71.73-.86,1.35-1.1,1.24-.46,2.09-3,3.7-2A6.42,6.42,0,0,0,9.56,22.63Z"/><path class="b" d="M32.27,7.15a1.73,1.73,0,0,1-.34-1.8c.31-.67.88-.72,1.47-1,1.2-.56,1.87-2.85,3.52-1.92C36.71,2.78,36.3,4,36,4.09c0,0-.53-.21-.61-.22a1.11,1.11,0,0,0-.81.34c-.48.46-.42,1.18-.8,1.71S32.71,6.64,32.27,7.15Z"/><path class="b" d="M44.54,8.74C44.4,7.48,45.77,7.09,46.8,7.5c.18.08.55.44.73.44s.61-.44.85-.52a1.66,1.66,0,0,1,1.83.52c.25.31.58,1.24.15,1.43s-1.4-.48-1.73-.59A6.3,6.3,0,0,0,44.54,8.74Z"/><path class="b" d="M55.22,33.78c.05-.25.19-1.41.45-1.52.32.09.82.92,1.16,1.14a8.68,8.68,0,0,0,1.58.63,4.11,4.11,0,0,0,.82.39c.34.06.64-.27.91-.23.61.08-.11.72-.3.89-.62.56-2,1.2-2.67.35-.24-.32-.25-.72-.54-1A2.18,2.18,0,0,0,55.22,33.78Z"/><path class="b" d="M22,11.65a1,1,0,0,1-1.16.61c-.62-.13-1.19-.4-1.83-.51a4.87,4.87,0,0,0-3.35.51A1.91,1.91,0,0,1,18.2,10.7c.28.09.62.43.89.42.52,0,.88-.59,1.51-.54A1.5,1.5,0,0,1,22,11.65Z"/><path class="b" d="M59.43,35.71a7.36,7.36,0,0,0,1-.86c.29-.27.21-.25.54-.32s.42,0,.63,0c.43-.13.63-.47,1-.6a8.05,8.05,0,0,0,1.51-.35,1.48,1.48,0,0,1-.38,1.62c-.57.48-1.07,0-1.56.28s-.55.74-1.16.87A1.58,1.58,0,0,1,59.43,35.71Z"/><path class="b" d="M55.52,13.2A3.16,3.16,0,0,1,57,16.69a2.46,2.46,0,0,0-2.27-.1c0-.6-.59-1.43-.5-1.8S55.27,13.63,55.52,13.2Z"/><path class="b" d="M61.82,24.13c-.47-.08-.38-.31-.43-.64s-.27-.77-.37-1.19c-.18-.79.2-1.49-.25-2.26a1.65,1.65,0,0,0-1.91-.8c-.19,0-.7.25-.69-.21,0-.15.68-.55.81-.63a1.56,1.56,0,0,1,1.83,0c.55.53.27,1.39.45,2.06C61.58,21.62,63.42,23,61.82,24.13Z"/><path class="b" d="M60.62,33.22c1-.48,2.4-1.5,2.53-2.66.17-1.57-1.29-2.06-2.27-2.92,1.59-1.3,3,1.18,3,2.51C63.87,31.81,62.45,33.72,60.62,33.22Z"/><path class="b" d="M14.38,26.13c0,.28-.36,2.72-1.09,2.34A18,18,0,0,1,13.6,26a2.09,2.09,0,0,0-1.15-1.68c-.85-.42-1.93-.06-2.83,0-.22-1.52,2.11-1.31,2.89-.9A3.83,3.83,0,0,1,14.38,26.13Z"/><path class="b" d="M11.41,32.44c.11.46-.66.86-.84,1.34a2.65,2.65,0,0,0,0,1.86,5.71,5.71,0,0,0,.68,1.48c.16.19.78.24.59.58-.07.12-.82,0-.91,0-.57-.1-1.28-.47-1.38-1.08-.06-.36.24-.71.23-1.09a1.58,1.58,0,0,0-.2-.67c-.27-.67-.47-1.14,0-1.78A1.84,1.84,0,0,1,11.41,32.44Z"/><path class="b" d="M22.77,10.29l0,.46c-1.08-.22-2.11-.87-3.2-.36-.28.13-.82.44-.86-.07,0-.31.55-.82.74-1,.45-.42,1.36-1.22,2-1.21.43,0,.16-.16.32.29.09.24,0,.56.06.82A2,2,0,0,0,22.77,10.29Z"/><path class="b" d="M14.87,23a3.53,3.53,0,0,1-.29,1.16c-.36-.24-.55-1-.87-1.37A2.39,2.39,0,0,0,12.23,22a1.9,1.9,0,0,0-1.51.58c-.21.21-.25.47-.57.47-.47,0-.3-.4-.2-.66.33-1,1.15-2.16,2.32-1.71S13.56,22.58,14.87,23Z"/><path class="b" d="M62.86,27.4a1.56,1.56,0,0,1,1.6.71c.55.84.2,1.63,0,2.5s.42,1.48,0,2.16a2.29,2.29,0,0,1-2,.86c.13-.62.61-.94,1-1.44a3.88,3.88,0,0,0,.61-1.67A3.77,3.77,0,0,0,62.86,27.4Z"/><path class="b" d="M54.15,19.17c-.33-.32,0-1,.24-1.31.57-.54,1.24-.13,1.87-.11,1.13.05,2.32-1.17,3.17.19-.4.18-1.11.83-1.41.72s-.33-.6-1-.54-.73.42-1.1.68C55.37,19.23,54.83,19,54.15,19.17Z"/><path class="b" d="M7.32,28.25a3.7,3.7,0,0,0,0,1.33,2,2,0,0,1-2.28-2.11c.07-.67,1.18-2.63,2.07-2.42,0,.77-1,1-1,1.92A1.49,1.49,0,0,0,7.32,28.25Z"/><path class="b" d="M10.33,31.37c-.16.63,0,.92-.63,1.22a1.66,1.66,0,0,1-1.44.07,2.34,2.34,0,0,1-1.37-1.72c0-.21-.15-.8,0-1,.35-.33.6.25.76.46A3,3,0,0,0,10.33,31.37Z"/><path class="b" d="M25.07,9.46a1.64,1.64,0,0,1-.4-2c.4-.77,1.13-.92,1.77-1.38s.63-1.18,1.35-1.35a2.2,2.2,0,0,1,1.93.91c-.48.35-1,.18-1.59.23a3.38,3.38,0,0,0-1.64.66A3.69,3.69,0,0,0,25.07,9.46Z"/><path class="b" d="M55.7,31.66c.14-.95.1-1.75.95-2.32a2.55,2.55,0,0,0,.39,1.9c.49.76,1.26,1.1,1.16,2.07-.06.5.16.29-.19.35s-.86-.36-1.08-.51A4.91,4.91,0,0,1,55.7,31.66Z"/><path class="b" d="M11,29.86a1.81,1.81,0,0,0,.5.57c-1,.4-1.37.93-2.52.57a2.07,2.07,0,0,1-1.42-2.52C8.58,29.69,9.61,29.53,11,29.86Z"/><path class="b" d="M52.44,16.12c-.19-.21-.73-.7-.71-1s.51-.8.58-1.16a19.61,19.61,0,0,0-.08-2.65h0A3,3,0,0,1,52.44,16.12Z"/><path class="b" d="M40.89,7.83c-.61-.14-.66-.19-.83-.75A2.12,2.12,0,0,0,39.28,6c-.92-.67-2.13-.22-3.17-.15.2-1.36,1.82-1.43,2.83-1A3.45,3.45,0,0,1,40.89,7.83Z"/><path class="b" d="M42.09,8.18a3,3,0,0,1-1-.27A7.11,7.11,0,0,1,41,7.05a3.21,3.21,0,0,0-.64-1.31,3.67,3.67,0,0,0-3-1.42c.9-1.49,2.61-.14,3.16.83a5,5,0,0,0,1.27,1.36A1.3,1.3,0,0,1,42.09,8.18Z"/><path class="b" d="M26.31,9a2.64,2.64,0,0,1-.93.47,3.18,3.18,0,0,1,4-3.25c.3.09.62.16.64.44s-.2.36-.46.4c-.44.06-.94-.25-1.41-.21A2.07,2.07,0,0,0,26.31,9Z"/><path class="b" d="M16.2,36.82c.29.09.6,1,.7,1.22.19.49.24,1,.46,1.49a5,5,0,0,0,.57,1.21c.28.29,1,.34.3.6A2,2,0,0,1,16.74,41a1,1,0,0,1-.43-1.19,1.82,1.82,0,0,0-.19-1.51C16,38,15.7,37.06,16.2,36.82Z"/><path class="b" d="M16.47,18.63c-.21.6-1-.5-1.14-.81a2.73,2.73,0,0,1-.22-1.69c.21-1,1.69-2.74,2.92-2.3-.24.33-.8.54-1.1.83a3.13,3.13,0,0,0-.79,1.11A2.88,2.88,0,0,0,16.47,18.63Z"/><path class="b" d="M7.32,27.93A1,1,0,0,1,6.41,27c-.08-.63.41-.84.72-1.27s.12-1,.43-1.39S8.86,24,9.3,24c.28.67-1.27,1.57-1.6,2.08S7.42,27.23,7.32,27.93Z"/><path class="b" d="M61,27.21c-.73.54-1.56.23-2.43.39a2.48,2.48,0,0,0-1.75,1.23,1.12,1.12,0,0,1,0-1.47c.4-.44.93-.22,1.43-.36s.73-.74,1.29-.68S60.57,27,61,27.21Z"/><path class="b" d="M10.32,12.08c0-.8-.16-1.61.45-2.24a1.94,1.94,0,0,1,1.89-.5A2.67,2.67,0,0,0,12,11.5,3.6,3.6,0,0,0,10.32,12.08Z"/><path class="b" d="M13.19,38.44a4.62,4.62,0,0,0,1.14.78c-.35.85-1,.72-1.64.31-.46-.29-.32-.19-.84-.28a1.47,1.47,0,0,1-.91-.45c-.13-.16-.4-.59-.26-.81s.49,0,.68,0a2.89,2.89,0,0,0,.65-.08,1.16,1.16,0,0,0,.3.36A1.29,1.29,0,0,0,13.19,38.44Z"/><path class="b" d="M19.75,42.05c.24.23.71.52.84.83s.23.17,0,.44a.86.86,0,0,1-.47.19c-.43,0-.57-.31-.89-.5s-.69-.11-1.12-.27-1.11-.94-.53-1.22a3.1,3.1,0,0,1,1.15.06C19.12,41.78,19.16,42.16,19.75,42.05Z"/><path class="b" d="M14.36,29.69l.18,1.51c-.26.05-.76-.38-1-.43a1.64,1.64,0,0,0-1.11.14c-.64.35-.82,1.78-1.73,1.34s.62-1.55,1.21-1.62a2.61,2.61,0,0,0,1.26-.34A2.73,2.73,0,0,1,14.36,29.69Z"/><path class="b" d="M57.53,31.39a2.06,2.06,0,0,1-.23-2.77c.71-.91,1.9-.86,3-.78-.54.66-1.66.6-2.26,1.21S57.59,30.62,57.53,31.39Z"/><path class="b" d="M31.31,5.37c-.95.86-1.85-.53-2.66-.88C29.44,3,31.27,3.88,31.31,5.37Z"/><path class="b" d="M51.36,14.69a3.36,3.36,0,0,1-.91-1c-.15-.36-.14-1-.26-1.37a2.2,2.2,0,0,0-.46-1c-.21-.21-.63-.29-.77-.56.56-.39,1.77.8,2,1.19C51.36,12.56,51.86,14,51.36,14.69Z"/><path class="b" d="M9.62,29.4c-2.51-.19-2.54-3.25-.54-4.29.1.8-.68,1.45-.7,2.24C8.34,28.33,9.41,28.6,9.62,29.4Z"/><path class="b" d="M54.38,37.89c.7.42,1.68,1.1,2.52.83s1-1.42,1.26-2.26c1.22.75.11,2.24-.83,2.62S54.64,39.19,54.38,37.89Z"/><path class="b" d="M60.06,23.09c-.59-.13-.47-.14-.42-.64a1.83,1.83,0,0,0-.22-1.19A4.5,4.5,0,0,0,57.36,20c.6-.79,1.65-.36,2.19.27A2.81,2.81,0,0,1,60.06,23.09Z"/><path class="b" d="M49.48,43.16c.2-.22,1.49-1.3,1.47-1.51h0c1-.07,1.31-.69,1.45-1.54.08-.44.1-1,.63-.55a1.29,1.29,0,0,1,.36,1.06c-.13,1-1.23.81-1.9,1.22S50.46,43.21,49.48,43.16Z"/><path class="b" d="M11.65,35.54a2.08,2.08,0,0,0-.52.58c-1-1.18-.46-3.58,1.4-3.21A3.33,3.33,0,0,0,11.65,35.54Z"/><path class="b" d="M65.78,29.69c-.5-1,.35-2.11-.17-3.09a1.62,1.62,0,0,0-1-.76c-.31-.12-1-.28-.42-.59,1.07-.55,1.74,1,1.82,1.71S67,29.41,65.78,29.69Z"/><path class="b" d="M14.61,31.56a1.19,1.19,0,0,1,.06.59c-.54-.07-.66-.63-1.32-.33-.28.13-.31.31-.51.52,0,.3-.17.41-.46.33a2.09,2.09,0,0,0-.66.07,1.52,1.52,0,0,1,1-1.74A2.15,2.15,0,0,1,14.61,31.56Z"/><path class="b" d="M41.16,4c-1-.11-1.31-1.72-2.26-2.12A1.37,1.37,0,0,0,37.58,2c-.17.1-.41.35-.61.18s0-.38.17-.54c.8-.76,1.63-.32,2.34.26S41.48,2.73,41.16,4Z"/><path class="b" d="M14.6,22.56c-1.07-.44-1.25-1.89-2.38-2.21-.54-.16-2,.74-1.83,0,.23-.94,1.78-.59,2.27-.22s1,.72,1.52,1.08A1,1,0,0,1,14.6,22.56Z"/><path class="b" d="M24.75,5.77c-.3,1.05-1.72,1.15-2.08,2.16a1.77,1.77,0,0,0,.1,1.3c.13.35.42.87-.15.63-1-.41-.59-1.75-.14-2.33S23.65,5.15,24.75,5.77Z"/><path class="b" d="M51.76,12.58a3.43,3.43,0,0,0-3.3-2.4C50.23,8.85,52.2,10.62,51.76,12.58Z"/><path class="b" d="M60.22,33.84a1.32,1.32,0,0,1-1.29.2c-.38-.22-.73-1.11-.27-1.26.23-.07,1.4.63,1.7.69a2.91,2.91,0,0,0,1.93-.15A1.17,1.17,0,0,1,60.22,33.84Z"/><path class="b" d="M14.56,24.49c0,.22,0,.45-.15.63-1-1.26-1.77-2.38-3.55-2.26.43-.84,1.61-.75,2.27-.29S13.91,24.1,14.56,24.49Z"/><path class="b" d="M7.89,21.46a2.79,2.79,0,0,1-1.3,1.24,2.21,2.21,0,0,0-1.45,1.05c-.52-.54,0-1.37.46-1.72A4.05,4.05,0,0,1,7.89,21.46Z"/><path class="b" d="M58,24.24c.39-2,2.85-.44,3.68.16a7.55,7.55,0,0,1-1,.17,1.52,1.52,0,0,1-1-.18A2.05,2.05,0,0,0,58,24.24Z"/><path class="b" d="M34.39,3a2.43,2.43,0,0,1-1.32,1.15A2.15,2.15,0,0,0,31.66,5.3a1.39,1.39,0,0,1,.42-1.74C32.51,3.21,33.87,2.69,34.39,3Z"/><path class="b" d="M61.08,23.68c-.18-.12-.54-.25-.64-.41s-.06-.21,0-.51a6.18,6.18,0,0,0,0-1.29,3.17,3.17,0,0,0-1.41-2c1-.38,1.72.5,1.85,1.39.07.46-.1.92,0,1.37S61.44,23.18,61.08,23.68Z"/><path class="b" d="M61.64,31.33a3.52,3.52,0,0,0-1.64-3c.48-.28.54-.5,1-.23a2.39,2.39,0,0,1,.85,1A1.93,1.93,0,0,1,61.64,31.33Z"/><path class="b" d="M12.62,26.61a3.39,3.39,0,0,0-3.2-1.15,2,2,0,0,1,.11-.55c.2-.38.08-.22.49-.31a2.64,2.64,0,0,1,1.28.13A1.93,1.93,0,0,1,12.62,26.61Z"/><path class="b" d="M56,26.24a4.28,4.28,0,0,1-.26-1.81c.29-.43,1.62-.18,2-.06A2.41,2.41,0,0,0,57,25.48a2.76,2.76,0,0,1-.09.54A4.43,4.43,0,0,1,56,26.24Z"/><path class="b" d="M56,29.52V27.84a4.92,4.92,0,0,1,0-.94c.09-.4,0-.3.35-.48a3.2,3.2,0,0,1,1.76-.11c.36.08.67.1.26.39-.61.42-1.36-.14-1.86.69a1.41,1.41,0,0,0-.17,1.06c0,.12.25.43.23.52S56.12,29.44,56,29.52Z"/><path class="b" d="M14.25,28a1,1,0,0,1-.19,1.15,2,2,0,0,1-.54.14c-.25,0-.36.05-.34.3-.35.49-.63,1-1.38.66-1.07-.5-.1-.74.45-.92A4.19,4.19,0,0,0,14.25,28Z"/><path class="b" d="M53.33,17.63c-.13-.23-.29-.45-.42-.68s-.19-.29,0-.64.62-.72.81-1.17a1.58,1.58,0,0,1,.58,1.33,1.31,1.31,0,0,1-.22.69C53.84,17.47,53.55,17.4,53.33,17.63Z"/><path class="b" d="M39,7.33A3,3,0,0,1,37.47,7C37,6.88,36.4,7.09,36,6.93c.07-.38.07-.66.38-.82a1.89,1.89,0,0,1,1.13,0A2.12,2.12,0,0,1,39,7.33Z"/><path class="b" d="M10.39,18.09a1.7,1.7,0,0,1,.29,1.6c-.17.28-.71.87-1,.69C8.76,19.86,9.71,18.27,10.39,18.09Z"/><path class="b" d="M31.94,7.24a7.64,7.64,0,0,1-1.86.43,2.09,2.09,0,0,1,1.5-2.06A2.23,2.23,0,0,0,31.94,7.24Z"/><path class="b" d="M62.1,20.55a2.4,2.4,0,0,1-.28.37c-.73-.43-.24-1.54-.53-2.15a1.52,1.52,0,0,0-.59-.71c-.22-.12-.86-.08-1-.17-.35-.32.16-.47.45-.49a1.21,1.21,0,0,1,1,.56,5.1,5.1,0,0,1,.42,1.15A3.08,3.08,0,0,1,62.1,20.55Z"/><path class="b" d="M34.7,7h-.86c.15-.38,0-.9.3-1.2a1.84,1.84,0,0,1,1.28-.31c.35,0,.63-.1.38.45C35.61,6.38,35,6.67,34.7,7Z"/><path class="b" d="M17.46,16.82a7.37,7.37,0,0,1-.8,1.32,2.44,2.44,0,0,1,.48-3.06A3.35,3.35,0,0,0,17.46,16.82Z"/><path class="b" d="M54.78,20.63c-.63-.66.29-.74.71-1.12.24-.22.24-.4.6-.42s.92.37,1.24.52C57.09,20.27,55.37,20.21,54.78,20.63Z"/><path class="b" d="M15.1,33.65a1,1,0,0,1,.06.35c-.6-.11-1.14-.58-1.76-.53s-1,.64-1.46,1.08A1.58,1.58,0,0,1,13,32.92C14,32.6,14.32,33.36,15.1,33.65Z"/><path class="b" d="M11.42,28.44a1.68,1.68,0,0,1-2.17-.33c-.79-.72-.51-1.49.06-2.27,0,.72-.14,1.27.38,1.83A2,2,0,0,0,11.42,28.44Z"/><path class="b" d="M57.42,17.21a2.34,2.34,0,0,1-1.53.24,1.78,1.78,0,0,0-1.46.16c-.14-.62.62-1,1.11-1A3.68,3.68,0,0,1,57.42,17.21Z"/><path class="b" d="M58.49,22.73a2.9,2.9,0,0,0-1.74-2C57.47,19.26,59.65,22,58.49,22.73Z"/><path class="b" d="M58.3,29.12a2.89,2.89,0,0,1,1.19-.45c-.28.55-.68.65-.74,1.35a2.85,2.85,0,0,0,.5,1.79C58.51,31.87,57.73,30.25,58.3,29.12Z"/><path class="b" d="M16,36.29c.29.09-.11,1-.23,1.16a1.59,1.59,0,0,1-1,.49,1.84,1.84,0,0,1-2-.65c.27-.26,1.48.19,1.93.11A1.62,1.62,0,0,0,16,36.29Z"/><path class="b" d="M34.31,5.41A1.52,1.52,0,0,1,35,4.23c.55-.28,1,.18,1.43.48C36,5.41,35,5.27,34.31,5.41Z"/><path class="b" d="M7.8,23.9c.08-.94.73-1.52,1.59-1C10.64,23.63,8.28,23.84,7.8,23.9Z"/><path class="b" d="M59.85,26.13c1.1-1,1.78-.26,2,.89C61,27.22,60.52,26.47,59.85,26.13Z"/><path class="b" d="M12.06,37.27c-.37-.1-.74-.27-.79-.7A.73.73,0,0,1,11.5,36c.28-.2.16-.16.38,0s.35.94.56,1.25a2,2,0,0,0,1.06.84C12.77,38.51,12.33,38.25,12.06,37.27Z"/><path class="b" d="M26.84,8.77c-.06.06-.14,0-.22.05-.19-1.63,2.17-2.39,3.11-1.13C28.68,7.6,27.2,7.32,26.84,8.77Z"/><path class="b" d="M12.69,27.44c.5-1.29.07-2.22-1.39-3a1.78,1.78,0,0,1,2,1.23C13.4,26,13.38,27.54,12.69,27.44Z"/><path class="b" d="M13.52,38.4c.53-.4,1.5-.25,2.14-.59A1,1,0,0,1,15,39,1.59,1.59,0,0,1,13.52,38.4Z"/><path class="b" d="M64,35.34a8.44,8.44,0,0,0,.44-1c.16-.34,0-.21.3-.43a3.18,3.18,0,0,1,.7-.22A1.21,1.21,0,0,1,64,35.34Z"/><path class="b" d="M54.32,36.32a3.42,3.42,0,0,1,.83-1.68c.41-.35,1.48-.6,1.41.28h0c-1.3-.64-1.81,1.08-1.86,2C54.45,36.78,54.4,36.53,54.32,36.32Z"/><path class="b" d="M28.68,4a3.1,3.1,0,0,0-.86-.58,1.21,1.21,0,0,1,2.17,0A1.86,1.86,0,0,0,28.68,4Z"/><path class="b" d="M60.51,37.92c.8.39.11,1.41-.35,1.71s-1.38,1.28-2,.64c.38-.63,1.4-.4,1.9-.9S60.15,38.26,60.51,37.92Z"/><path class="b" d="M20.49,12.69a5.54,5.54,0,0,1-1.42.61c-.51.08-1,0-1.54.09A2.59,2.59,0,0,1,20.49,12.69Z"/><path class="b" d="M53.52,40c.2-.48.46.13.49.34a1.14,1.14,0,0,1-.25.92,5.11,5.11,0,0,1-.92.58c-.3.22-.56.6-1,.6s-.59-.15-.35-.45,1-.29,1.28-.43A1.24,1.24,0,0,0,53.52,40Z"/><path class="b" d="M62.2,29c.7.13.81,1.25.63,1.8a1.75,1.75,0,0,1-.57.82c-.09.08-1,.73-1,.35A2.33,2.33,0,0,0,62.2,29Z"/><path class="b" d="M46.11,10.1c-.21,0,.28-.39.34-.43a2.09,2.09,0,0,1,.84-.35A3.05,3.05,0,0,1,49,9.41a11.5,11.5,0,0,1-1.35.59C47.15,10.11,46.62,10,46.11,10.1Z"/><path class="b" d="M44,9a1.21,1.21,0,0,1-.92-.84c0-.28.31-.67.46-1C44.34,7.72,44.5,8.57,44,9Z"/><path class="b" d="M55.94,37.94a2.63,2.63,0,0,0,1.51-1.87c.41.24.54.28.4.78a1.6,1.6,0,0,1-.36.65A1.49,1.49,0,0,1,55.94,37.94Z"/><path class="b" d="M55.45,22.77c0-.34-.2-.59-.05-1a1.74,1.74,0,0,1,1-.81c.06.07-.46,1.05-.44,1.31,0,.69.52.91.74,1.46A1.19,1.19,0,0,1,56,23.4C55.77,23.24,55.67,22.86,55.45,22.77Z"/><path class="b" d="M15.89,38.36c.41.49.6,1.25-.18,1.44a1.33,1.33,0,0,1-.74,0c-.4-.15-.34-.21-.4-.51A1.24,1.24,0,0,0,15.89,38.36Z"/><path class="b" d="M45.62,9.79a2,2,0,0,1-1-.57,2.92,2.92,0,0,1,2.46-.3A4.31,4.31,0,0,0,45.62,9.79Z"/><path class="b" d="M14.79,32.51a2.69,2.69,0,0,1,.14.74c-.69-.39-1.14-.74-2-.52a.86.86,0,0,1,.74-.8C14.21,31.88,14.35,32.42,14.79,32.51Z"/><path class="b" d="M56.25,18.9a1.09,1.09,0,0,1,1.18-.51c.41.15.43.58.62.92C57.33,19.64,56.86,19,56.25,18.9Z"/><path class="b" d="M15.19,34.26c.18.58.48,1.06.18,1.66a1,1,0,0,1-1.08.67,2.52,2.52,0,0,0,.65-1.25C15,35,14.77,34.31,15.19,34.26Z"/><path class="b" d="M57.83,30.48a2.19,2.19,0,0,0,1.86,1.82c-.09.5-1.16.21-1.4,0A2,2,0,0,1,57.83,30.48Z"/><path class="b" d="M59.71,36.34c.35.18.79.15.92.56s-.17.72-.41,1c-.17-.28-.65-.58-.76-.86S59.63,36.72,59.71,36.34Z"/><path class="b" d="M14.65,34.1c-.54.15-.92-.06-1.39.37-.23.21-.41.9-.68,1-.43-.24.23-1.22.41-1.41C13.52,33.51,14,33.72,14.65,34.1Z"/><path class="b" d="M11.85,28.64c-.51,1.2-1.5,1.2-2.54,0,.39.07.74.3,1.14.34A3.27,3.27,0,0,0,11.85,28.64Z"/><path class="b" d="M39.85,7.54c-.61-.13-.5-.36-.86-.83a2.89,2.89,0,0,0-1.09-.77C38.79,5.59,39.93,6.68,39.85,7.54Z"/><path class="b" d="M55.11,21.59c-.86-1.05,1-1.24,1.64-1.29C56.27,20.83,55.59,21.09,55.11,21.59Z"/><path class="b" d="M60.85,29.61a.48.48,0,0,1,.17.29c-.79.27-1.64.59-1.48,1.6C58.18,31,60.19,29.66,60.85,29.61Z"/><path class="b" d="M59,30.41a1.34,1.34,0,0,1,.47-1.26c.53-.51.75-.35,1.2.19A2.54,2.54,0,0,0,59,30.41Z"/><path class="b" d="M11.19,28.13c-1.18.16-1.2-1.9-.37-2.27.68-.31-.05.79-.09.94A1.3,1.3,0,0,0,11.19,28.13Z"/><path class="b" d="M10,27.54a1.16,1.16,0,0,1-.4-1.2c.07-.63.35-.79,1-.58a2.89,2.89,0,0,0-.46,1C10,26.94,10.08,27.41,10,27.54Z"/><path class="b" d="M52.85,39.09a2.8,2.8,0,0,1,.65-1,1.15,1.15,0,0,1-.07,1.66Z"/><path class="b" d="M15.76,35.7c.32.4-.16,1-.52,1.24a1.37,1.37,0,0,1-1.78-.1A1.85,1.85,0,0,0,15.76,35.7Z"/><path class="b" d="M54.26,40.49c-.12-.46-.45-.73-.29-1.16s.15-.36.46-.1c0,0,.64.94.63,1C55,40.46,54.47,40.47,54.26,40.49Z"/><path class="b" d="M55,36.24c0-1,1.9-1.68,2-.43C56.16,35.24,55.63,35.87,55,36.24Z"/><path class="b" d="M13.45,40.16c.21-.09.49-.27.7-.34l.19-.17L15,40C14.68,40.63,13.77,40.89,13.45,40.16Z"/><path class="b" d="M58.78,23a1.92,1.92,0,0,0-.22-2.13C59.51,21.15,59.68,23.34,58.78,23Z"/><path class="b" d="M11.48,26.05a.57.57,0,0,1,.36.18c-.37.53-.91,1.44.13,1.44-.1.64-.84.06-1-.27A1.34,1.34,0,0,1,11.48,26.05Z"/><path class="b" d="M60,31.2c0,.16.66.9,0,.57A.72.72,0,0,1,60,30.66c.21-.25.92-.62,1.18-.39s-.21.34-.41.42A1.65,1.65,0,0,0,60,31.2Z"/><path class="b" d="M21,43.27a5.67,5.67,0,0,1,.65.56c-.67.07-1,.8-1.55-.08A2,2,0,0,0,21,43.27Z"/><path class="b" d="M57.62,37.73A1.3,1.3,0,0,1,55.3,38c.14-.14,1,.23,1.28.2A3.08,3.08,0,0,0,57.62,37.73Z"/><path class="b" d="M56.81,21a1.58,1.58,0,0,1,.59.41,2.19,2.19,0,0,0-1.15,1C56,22,56.27,21.54,56.81,21Z"/><path class="b" d="M56.42,23.12c-.07-.5.87-2,1.38-1.31-.62.33-1.25.67-1,1.55A.53.53,0,0,1,56.42,23.12Z"/><path class="b" d="M49.56,12.75c-.64-.27-.55-.83-.63-1.41A.94.94,0,0,1,49.56,12.75Z"/><path class="b" d="M54.16,41.1c0-.35.1-.39.42-.45s.46.09.73.47A.84.84,0,0,1,54.16,41.1Z"/><path class="b" d="M12.54,36.13a.93.93,0,0,1-.07-1.77A2.14,2.14,0,0,0,12.54,36.13Z"/><path class="b" d="M18.74,14.94c-.09.29-.84,1.36-1.15.82S18.44,15,18.74,14.94Z"/><path class="b" d="M14.71,35.3a.31.31,0,0,1-.08.26c-.55-.34-1.11-.56-1.66,0-.22-.36.26-.61.54-.67A1.56,1.56,0,0,1,14.71,35.3Z"/><path class="b" d="M14.68,34.35a1.1,1.1,0,0,1,.09.71,2.07,2.07,0,0,0-1.47-.32C13.66,34.15,14.19,34.37,14.68,34.35Z"/><path class="b" d="M12,29.12a2.18,2.18,0,0,1,1.11-1.4A1.49,1.49,0,0,1,12,29.12Z"/><path class="b" d="M61.26,32.5a1.65,1.65,0,0,1-1.87.3A3.61,3.61,0,0,1,61.26,32.5Z"/><path class="b" d="M59.54,36.24c-.1.39-.44.48-.69.66C58.47,36.21,58.86,35.58,59.54,36.24Z"/><path class="b" d="M57.23,23.06c.06.22.22.3.37.42-.84.32-.68-1.06,0-1.3.29-.1.6-.12.4.21S57.34,22.56,57.23,23.06Z"/><path class="b" d="M55.21,36.58c0-1.15,2,.09,1.49.55C56.32,36.66,55.93,36.19,55.21,36.58Z"/><path class="b" d="M57.21,36.16a1.42,1.42,0,0,1-.23.56,2.1,2.1,0,0,0-1.14-.8C56.39,35.6,56.78,35.89,57.21,36.16Z"/><path class="b" d="M13.3,35.89c-.06.12,0,.26-.06.37-.64-.54.58-1.08,1.07-.66.34.29.28.38-.09.34S13.69,35.52,13.3,35.89Z"/><path class="b" d="M55.37,37v.49c-.62-.63.57-1.22,1-.46.21.37.14.44-.16.3S55.89,36.73,55.37,37Z"/><path class="b" d="M54.08,37.64a2.7,2.7,0,0,0,.71,1.28C53.9,39.09,53.78,38.26,54.08,37.64Z"/><path class="b" d="M23.89,10.32a2.63,2.63,0,0,1-.8.52,1.06,1.06,0,0,1,.15-.95Z"/><path class="b" d="M48.58,11.87a3.88,3.88,0,0,1-1.1-.87A.9.9,0,0,1,48.58,11.87Z"/><path class="b" d="M19.31,14.28a3.12,3.12,0,0,1-1.55.47h0A1.41,1.41,0,0,1,19.31,14.28Z"/><path class="b" d="M11.64,27.45c-.05-.23.19-1.16.49-1S11.86,27.36,11.64,27.45Z"/><path class="b" d="M33.45,7.11a3.21,3.21,0,0,1-.82.07,2.53,2.53,0,0,1,1-.69C33.74,6.76,33.56,6.92,33.45,7.11Z"/><path class="b" d="M13.36,37.09a1.22,1.22,0,0,1-1.13-.76C12.76,36.34,13,36.71,13.36,37.09Z"/><path class="b" d="M61.34,30.92c-.09.39-.44.55-1,.43C60.47,31,60.86,30.81,61.34,30.92Z"/><path class="b" d="M54.43,19.75a.49.49,0,0,1-.19-.34,2.24,2.24,0,0,1,1.06-.05C55.1,19.73,54.76,19.73,54.43,19.75Z"/><path class="b" d="M18,39.86a2.4,2.4,0,0,1,.7.94C18,40.76,17.81,40.45,18,39.86Z"/><path class="b" d="M18.75,40.91a2.73,2.73,0,0,1,.78.94C19,41.8,18.74,41.5,18.75,40.91Z"/><path class="b" d="M53.82,18.39c-.25-.11-.26-.39-.38-.58a.84.84,0,0,1,.74,0Z"/><path class="b" d="M55,37.89c-.41-.13-.59-.41-.62-1A1.35,1.35,0,0,1,55,37.89Z"/><path class="b" d="M55.7,24.16a1.14,1.14,0,0,1-.06-.68c.26.12.44.37.81.46Z"/><path class="b" d="M58.25,22.58a.6.6,0,0,1-.81.49A1,1,0,0,1,58.25,22.58Z"/><path class="b" d="M29.62,6a1.59,1.59,0,0,1,1-.1C30.19,6.32,30.14,6.19,29.62,6Z"/><path class="b" d="M43.08,8.56c-.23,0-.93-.16-.59-.55A.92.92,0,0,1,43.08,8.56Z"/><path class="b" d="M13.52,36a.78.78,0,0,1,.76.26C14,36.45,13.74,36.36,13.52,36Z"/><path class="b" d="M35.61,7a1.2,1.2,0,0,1-.5,0,1.49,1.49,0,0,1,.65-.59A1.28,1.28,0,0,1,35.61,7Z"/><path class="b" d="M12.74,37.29l-.08-.11C12.76,37.1,12.83,37.2,12.74,37.29Z"/><path class="b" d="M57.6,37.71l0-.1C57.71,37.69,57.66,37.72,57.6,37.71Z"/><path class="b" d="M52.23,11.29c-.14.05,0-.14,0,0Z"/><path class="b" d="M10,27.49a.07.07,0,0,1,0,.11C9.94,27.56,9.94,27.52,10,27.49Z"/><path class="b" d="M55,37.88l0,0S55,37.93,55,37.88Z"/><path class="b" d="M56.56,34.92s0,0,0,0S56.57,34.9,56.56,34.92Z"/><polygon class="b" points="56.82 20.25 56.84 20.24 56.84 20.27 56.82 20.25"/><path class="b" d="M54,14.35l0,.06C53.93,14.35,54,14.34,54,14.35Z"/><path class="b" d="M17.76,14.75s0,.07,0,0l.05,0Z"/><path class="b" d="M7.33,27.92c.06,0,0,0,0,.06S7.31,27.94,7.33,27.92Z"/><path class="b" d="M55.63,23.47c-.07,0-.07,0-.05-.09Z"/><path class="b" d="M27.23,8.56a1.65,1.65,0,0,1,1.48-.8c0,.16-.22.17-.18.33h0C28.37,8,27.47,8.53,27.23,8.56Z"/><path class="b" d="M52.19,40.11a1.2,1.2,0,0,1-1,1.31A5.59,5.59,0,0,1,52.19,40.11Z"/><path class="a" d="M33.84,9a.22.22,0,0,1-.15.24c.22.14.68-.23.88-.31a4.38,4.38,0,0,1,1.28-.28c.84,0,1,.28,1.57.78a3.24,3.24,0,0,1,.49.82c.11.19.51.5.54.67.09.45-.28.31-.52.45s-.16,0-.34.2-.15.33-.28.45c-.4.35-.48.16-.51.77,0,.33,0,.67-.28.89-.72.58-1.67-.55-2-1.11s-.13-.43,0-.89a2.34,2.34,0,0,0,0-.87c-.31-.72-1.39-.31-1.18-1.21-.53,0-.52.47-1,.5a4.24,4.24,0,0,1-2-.47c-.55-.68.79-.43,1.1-.45C32.14,9.15,33.05,8.66,33.84,9Z"/><path class="a" d="M42.93,12.68a1.3,1.3,0,0,1,.84.25c.14.12.15.4.28.5s.48.16.67.25c.38.2.85.53.33.93-.35.27-.67.07-1-.18-.22.23-.42.53-.82.24-.23-.17-.36-.77-.09-1-.2-.29-.35,0-.41-.46A.74.74,0,0,1,42.93,12.68Z"/><path class="a" d="M26.57,25.72c-.41-.57-1-.61-1.56-.82.74-.72,1.85.17,2.53.52.4.21,1,.36.25.66C27.53,26.18,26.56,26.21,26.57,25.72Z"/><path class="a" d="M38.51,11.72c.38-.29,1.82-.49,1.71.15S38.53,12.38,38.51,11.72Z"/><path class="a" d="M29.87,26.44a1.52,1.52,0,0,1-2.14,0A2.25,2.25,0,0,1,29.87,26.44Z"/><path class="a" d="M31.11,26.69c-.21.39-.47.43-.79.14C30.5,26.5,30.71,26.45,31.11,26.69Z"/><path class="a" d="M26.61,26.56c.17-.18.91-.2.66.16S26.7,26.76,26.61,26.56Z"/></svg>