<svg xmlns="http://www.w3.org/2000/svg" viewBox="0 0 70 50"><defs><style>.a{fill:#ec1f27;}</style></defs><title>navm4alogo copy</title><path class="a" d="M1,35.75,2.92,33.5c.3-.34.8-.69.81-1s-.51-.69-.78-1-.49-.6-.71-.92-.14-.71.31-.81c.7-.16,1.41-.26,2.11-.41.52-.11,1-.25,1.57-.41a1.19,1.19,0,0,0,.44-.34c1.12-1.36,2.24-2.71,3.35-4.08q3.2-3.93,6.36-7.88c.52-.64.93-1.36,1.45-2,.9-1.11,1.85-2.18,2.77-3.28a.64.64,0,0,1,.88-.23c1.3.57,2.6,1.12,3.91,1.66a.75.75,0,0,1,.5.66c.4,2.59.81,5.17,1.21,7.75.09.61.1.63.69.43q3.9-1.35,7.79-2.73c1.4-.5,2.79-1,4.19-1.57a1.65,1.65,0,0,1,1.55.16c.76.49,1.54.94,2.32,1.41A.83.83,0,0,1,44,20l-3.24,5.89a3.89,3.89,0,0,0-.25.5A37.9,37.9,0,0,1,37.66,32c-.07.12-.12.27-.24.54l1.87-.9c1.75-.84,3.5-1.68,5.25-2.54,1.38-.68,2.75-1.39,4.12-2.08.64-.32.76-.27,1.06.39s.5,1.1.8,1.78L51.14,28c0-.09.08-.19.14-.29.88-1.43,1.76-2.86,2.66-4.29s1.82-2.91,2.76-4.35A1.66,1.66,0,0,0,57,17.74c-.12-.46.1-.65.53-.81a2.24,2.24,0,0,1,2.2.29c.67.47,1.41.85,2.11,1.28a.82.82,0,0,1,.29,1.23c-1.7,2.61-3.41,5.21-5.1,7.83-1,1.48-1.85,3-2.82,4.54a1.21,1.21,0,0,0,.33,0c1.71-.68,3.41-1.36,5.11-2.06L68,26.58c.38-.16.64,0,.68.4s0,.72.06,1.07a10.4,10.4,0,0,1,.25,2.1c0,.41-.12.64-.46.8l-3,1.38-3.74,1.79c-.14.06-.27.14-.42.2-.78.33-1.57.66-2.36,1-.36.15-.74.22-1.1.37s-.52.31-.79.43a6.09,6.09,0,0,1-.73.21c-.85.27-1.68.58-2.53.8a4.14,4.14,0,0,1-5.11-4.5,7.06,7.06,0,0,1,.23-1c-.64.36-1.21.7-1.79,1-1.81.93-3.64,1.83-5.44,2.78a23.59,23.59,0,0,1-4.21,1.87c-3,.92-5.23-1.51-5.21-4.18a4.7,4.7,0,0,1,.6-2,45.25,45.25,0,0,0,2.74-5.54,12.82,12.82,0,0,1,1-1.88c.15-.26.29-.53.5-.92l-.91.4a27.52,27.52,0,0,1-4.6,1.6A34.93,34.93,0,0,0,28,26.14c-.11.05-.19.33-.17.49.17,1.58.37,3.15.56,4.73.23,1.89.46,3.77.67,5.66a.53.53,0,0,1-.28.42c-1.36.36-2.74.69-4.12,1-.11,0-.37-.17-.39-.29-.15-1.08-.27-2.16-.38-3.24-.25-2.45-.5-4.89-.75-7.39-.83.26-1.61.46-2.36.76a50.92,50.92,0,0,1-6.92,2.07,20.51,20.51,0,0,0-3.33,1.16c-.41.18-.69.7-1,1.08L6.14,36.72c-.65.78-1.31,1.54-2,2.31H3.9a1.59,1.59,0,0,0-.2-.24A11.56,11.56,0,0,1,1,36.13ZM14.87,26l.05.08c.24-.1.48-.2.72-.28,2.16-.71,4.31-1.42,6.47-2.1.45-.14.66-.32.59-.85-.2-1.52-.32-3.05-.49-4.57,0-.32-.09-.63-.14-1Z"/></svg>