<svg xmlns="http://www.w3.org/2000/svg" viewBox="0 0 70 50"><defs><style>.a{fill:#ec1f27;}.b{fill:#231f20;}</style></defs><title>navrslogo copy</title><path class="a" d="M42.79,47.2a3.39,3.39,0,0,0-2.72-2.91v-.48h1.48V42.33h-1.9A1.69,1.69,0,0,1,38,40.84v0l-1.48,0h0a3.17,3.17,0,0,0,2.1,2.75v2.09h.85a1.9,1.9,0,0,1,1.9,1.9v0h0C41.83,47.53,42.31,47.37,42.79,47.2Z"/><path class="a" d="M37.75,45.81a2,2,0,0,1-2-2V40.88H34.26v2.93a2,2,0,0,1-2,2,2.12,2.12,0,0,0-2.11,2.12V48c.49.1,1,.19,1.48.26v-.35a.64.64,0,0,1,.63-.64A3.5,3.5,0,0,0,35,46a3.5,3.5,0,0,0,2.75,1.34.64.64,0,0,1,.63.64v.34h0c.5-.07,1-.16,1.48-.26h0v-.08A2.12,2.12,0,0,0,37.75,45.81Z"/><path class="a" d="M44.72,46.43c.49-.23,1-.47,1.48-.73V41.18a2.32,2.32,0,0,1,1.58,2.2v1.37c.51-.33,1-.67,1.49-1v-.33A3.81,3.81,0,0,0,47.19,40h0l-1,.16-1.42.19v2.27a2,2,0,0,1-1.27-1.87v-.26l-1.5.14v.12a3.5,3.5,0,0,0,2.76,3.41v2.93h0Z"/><path class="a" d="M50.88,42.3v.05c.25-.23.51-.47.75-.72s.46-.47.68-.71h-.69a1.31,1.31,0,0,1-1.36-1.28v-.3c-.47.12-1,.24-1.47.34h0A2.79,2.79,0,0,0,50.88,42.3Z"/><path class="a" d="M28,40.74v-.12l-1.47-.14v-.06h0v.32a2,2,0,0,1-1.27,1.87V40.34c-.82-.1-2.22-.32-2.43-.36a3.81,3.81,0,0,0-2.11,3.4v.33c.48.37,1,.71,1.48,1V43.38a2.32,2.32,0,0,1,1.58-2.2v2.31h0V45.7c.48.26,1,.5,1.48.73v.44h0V44.15A3.5,3.5,0,0,0,28,40.74Z"/><path class="a" d="M32,40.83a1.7,1.7,0,0,1-1.68,1.5H28.52v1.48h1.3v.5a3.38,3.38,0,0,0-2.61,2.89c.48.17,1,.33,1.45.46v0a1.9,1.9,0,0,1,1.9-1.9h.74V43.66a3.17,3.17,0,0,0,2.21-2.79Z"/><path class="a" d="M18.38,40.92h-.69c.22.24.44.48.68.71s.5.49.75.72v0a2.72,2.72,0,0,0,2.06-2.64h0v0h0v.06c-.51-.1-1-.22-1.47-.34v.33A1.26,1.26,0,0,1,18.38,40.92Z"/><path class="a" d="M39.71,26.24a2.83,2.83,0,0,0,3.46-.49,2.74,2.74,0,0,0,.75-1.47,4.71,4.71,0,0,1-1.08-.59A4.81,4.81,0,0,1,39.71,26.24Z"/><path class="a" d="M41.1,28.1h0Z"/><path class="a" d="M40.77,28.09h0Z"/><path class="a" d="M48,18c-.11.22-.23.44-.36.65a6.45,6.45,0,0,1-2.42,2.25,6.59,6.59,0,0,1-1.66.61,1.31,1.31,0,0,1-.27.06v0a5.46,5.46,0,0,1,0,.57l.31.21A3.13,3.13,0,0,0,48,18Z"/><path class="a" d="M23.42,11.59a6.16,6.16,0,0,0,1.45,4,9.52,9.52,0,0,1,1.69-5.36l0,0a1.27,1.27,0,0,1,.13-.19,10.28,10.28,0,0,1,2.84-4.62A6.21,6.21,0,0,0,23.42,11.59Z"/><path class="a" d="M29.9,3.9h0Z"/><path class="a" d="M30.37,3.93h0Z"/><path class="a" d="M41.33,5.43a8.75,8.75,0,0,0-4.71-1.37,9.08,9.08,0,0,0-1.94.21,8.73,8.73,0,0,0-4.95,3.08,8.92,8.92,0,0,1,2.54-1,9.39,9.39,0,0,1,7.12,1.24A9.77,9.77,0,0,1,40.9,8.81a6.39,6.39,0,0,1,3.7.35A8.73,8.73,0,0,0,41.33,5.43Z"/><path class="a" d="M44.86,10.94a5.06,5.06,0,0,0-2.68-.78h-.12a9.48,9.48,0,0,1,.53,10,5.16,5.16,0,0,0,.67-.1,5,5,0,0,0,1.6-9.15Z"/><path class="a" d="M37.88,17.8a6.36,6.36,0,0,0,.26-1,6.65,6.65,0,0,1-6,3.64,6.69,6.69,0,0,1-5.67-3.19s0,.08,0,.11a8,8,0,0,0,4.3,5.43A7.31,7.31,0,0,0,37.88,17.8Z"/><path class="a" d="M33,8.8a2.85,2.85,0,0,0-.64.07,2.92,2.92,0,0,0,1.28,5.7,2.94,2.94,0,0,0,2.21-3.49h0A2.91,2.91,0,0,0,33,8.8Z"/><path class="a" d="M36.73,14.07A4.34,4.34,0,0,1,34,16a4.47,4.47,0,0,1-1,.1,4.39,4.39,0,0,1-3.8-6.59A5.1,5.1,0,0,0,27.83,11a5.18,5.18,0,1,0,9.46,1.77A4.14,4.14,0,0,1,36.73,14.07Z"/><path class="a" d="M35.33,25h0Z"/><path class="a" d="M25.14,17.83a7.68,7.68,0,0,1-1.93-2,7.6,7.6,0,0,1-1.16-3,3.93,3.93,0,0,0-.28,7.42,4.48,4.48,0,0,1-1-3.17l1.47.09a3.07,3.07,0,0,0,1,2.47,3.11,3.11,0,0,0,1.87.79l.68,0,0,2.71H24.33l0-.9H23.06a3.68,3.68,0,0,0-.15.57A3.9,3.9,0,0,0,29,26.75a3.93,3.93,0,0,1-2.13-2.84,3.85,3.85,0,0,1-.06-.69h1.48V22.9l-3.19-5.07"/><path class="a" d="M41.06,19.88a8,8,0,0,0-6.2-12.23,6.63,6.63,0,0,1,2.35,1.71,8.74,8.74,0,0,1,2.08,8.91,8.83,8.83,0,0,1-5,5.31,8,8,0,0,0,6.73-3.7Z"/><path class="b" d="M35.47,32v1.54a2.91,2.91,0,0,0,.84,2,3,3,0,0,0,1.87.87h.21V34.94A1.45,1.45,0,0,1,37,33.49V32Z"/><rect class="b" x="32.2" y="32.9" width="1.48" height="3.59"/><path class="b" d="M28,39.13,26.56,39v1.48l1.47.14h0V39.13Z"/><path class="b" d="M38,39.36c-1,0-2,0-3,0s-2,0-3,0v1.47h0l1.48,0h3l1.48,0V39.36Z"/><path class="b" d="M43.46,40.45V39l-1.5.13v1.49h0l1.5-.14h0Z"/><path class="b" d="M47.18,40l0-1.51c-.8.14-1.63.27-2.51.37v1.48h0l1.42-.19Z"/><path class="b" d="M25.28,40.33V38.86c-.86-.11-1.67-.23-2.45-.37V40h0c.21,0,1.61.26,2.43.36h0Z"/><path class="b" d="M35,0A25,25,0,0,0,14.59,39.44h1.84a22.61,22.61,0,0,1-1.4-2,15.33,15.33,0,0,0,4.67,1.9c.47.12,1,.24,1.47.34V38.16c-4.4-1-5.76-2.18-6.15-2.7l-.21-.37a.69.69,0,0,1-.05-.24c0-.58,1.11-1.86,5.27-3a50.79,50.79,0,0,1,9.2-1.39V29h0c-8.6.59-15.06,2.5-15.86,5.26a23.52,23.52,0,1,1,43.26,0c-.8-2.76-7.25-4.67-15.84-5.26h0v1.47A50.68,50.68,0,0,1,50,31.88c4.16,1.11,5.27,2.39,5.27,3a.69.69,0,0,1-.05.24l-.21.37c-.4.52-1.76,1.74-6.19,2.71v1.51h0c.51-.1,1-.22,1.47-.34A15.25,15.25,0,0,0,55,37.43a22.61,22.61,0,0,1-1.4,2h1.84A25,25,0,0,0,35,0Z"/><path class="b" d="M38.38,48.56v1.21c.5-.07,1-.15,1.48-.24V48c-.49.1-1,.19-1.48.26Z"/><path class="b" d="M42.79,47.2c-.48.17-1,.33-1.45.46v1.53c.62-.16,1.22-.35,1.82-.55V47.07h0Z"/><path class="b" d="M46.2,45.7c-.48.26-1,.5-1.48.73V48c.5-.22,1-.45,1.49-.69V45.69h0Z"/><path class="b" d="M52.31,40.92c-.22.24-.44.48-.68.71s-.5.49-.75.72c-.52.48-1.06.93-1.62,1.36s-1,.71-1.49,1h0v1.72a25,25,0,0,0,6.51-5.57h-2Z"/><path class="b" d="M19.43,42.63l-.31-.28c-.25-.23-.51-.47-.75-.72s-.46-.47-.68-.71h-2a25.3,25.3,0,0,0,6.52,5.58V44.76h0c-.51-.33-1-.67-1.48-1S19.85,43,19.43,42.63Z"/><path class="b" d="M27.21,47.2c-.11,0-.22-.07-.33-.12h0v1.57c.6.2,1.21.39,1.82.55V47.67h0C28.17,47.53,27.69,47.37,27.21,47.2Z"/><path class="b" d="M23.8,45.7h0v1.66c.48.24,1,.47,1.48.68V46.43C24.78,46.2,24.28,46,23.8,45.7Z"/><path class="b" d="M33.1,48.44v1.49c.63,0,1.26.07,1.9.07s1.27,0,1.9-.07V48.44c-.4,0-.81.06-1.22.07H35C34.36,48.52,33.73,48.49,33.1,48.44Z"/><path class="b" d="M30.14,48v1.51c.49.09,1,.17,1.48.24V48.28C31.12,48.21,30.63,48.12,30.14,48Z"/><path class="b" d="M36.28,27.38a6.32,6.32,0,0,0-1.94-2.32h.06l.47,0h0l.42,0h0a7.79,7.79,0,0,0,1.06-.17c.27-.06.53-.13.79-.21a9.43,9.43,0,0,0,2.47-1.2,8.88,8.88,0,0,0,1.52-1.29L41.4,22l.43-.25a3.3,3.3,0,0,1-3.29,3.14H37.8v7.25h1.48v1.48a2.41,2.41,0,0,1,2.39,2.46v1h1.48v-1a4,4,0,0,0-3.84-3.94h0v-4.4a5.67,5.67,0,0,0,1.38.32h.46a4.33,4.33,0,0,0,4.25-3.52h.2a4.62,4.62,0,0,0,3-8.14,6.55,6.55,0,0,0,0-2.68,6.42,6.42,0,0,0-1.9-3.33,10.32,10.32,0,0,0-6.5-7.24,10.2,10.2,0,0,0-5.76-.37,10.48,10.48,0,0,0-3.09,1.24h0L30.78,4h0l-.38,0h0L30,3.9h-.39a7.71,7.71,0,0,0-7.68,7.48,5.41,5.41,0,0,0-1.2,10.08,5.74,5.74,0,0,0,.92.38c-.05.16-.1.32-.14.49s-.05.2-.07.3a5.41,5.41,0,0,0,4.34,6.27,6.45,6.45,0,0,0,1,.08h0a5.32,5.32,0,0,0,3.92-1.71v4.37a4.54,4.54,0,0,0-3.57,4.7v.75H28.6v-.81A3.09,3.09,0,0,1,29.36,34a3.05,3.05,0,0,1,2.11-1l.7,0V27.11H30.79V25.69a2.47,2.47,0,0,1-2.46-2.47H26.85a3.85,3.85,0,0,0,.06.69A3.93,3.93,0,0,0,29,26.75a3.9,3.9,0,0,1-6.13-3.86,3.68,3.68,0,0,1,.15-.57,4.44,4.44,0,0,1,.35-.77,4.51,4.51,0,0,1-1.64-1.26,3.93,3.93,0,0,1,.28-7.42,7.6,7.6,0,0,0,1.16,3,7.68,7.68,0,0,0,1.93,2,9.45,9.45,0,0,0,5.53,6.49h0v1a4.75,4.75,0,0,1,4.42,3,4.66,4.66,0,0,1,.33,1.72H37V27.38Zm-5.44-4.61a8,8,0,0,1-4.3-5.43s0-.07,0-.11a6.69,6.69,0,0,0,5.67,3.19,6.65,6.65,0,0,0,6-3.64,6.36,6.36,0,0,1-.26,1A7.31,7.31,0,0,1,30.84,22.77Zm16.23-8.68a5,5,0,0,1-3.81,6,5.16,5.16,0,0,1-.67.1,9.48,9.48,0,0,0-.53-10h.12a5.06,5.06,0,0,1,2.68.78A5,5,0,0,1,47.07,14.09ZM40.9,8.81a9.77,9.77,0,0,0-1.51-1.19,9.39,9.39,0,0,0-7.12-1.24,8.92,8.92,0,0,0-2.54,1,8.73,8.73,0,0,1,4.95-3.08,9.08,9.08,0,0,1,1.94-.21,8.8,8.8,0,0,1,8,5.1A6.39,6.39,0,0,0,40.9,8.81Zm-5.42,4.47a2.87,2.87,0,0,1-1.82,1.29,2.92,2.92,0,0,1-1.28-5.7A2.85,2.85,0,0,1,33,8.8a2.91,2.91,0,0,1,2.85,2.28h0A2.89,2.89,0,0,1,35.48,13.28Zm-2.14,5.54A5.19,5.19,0,0,1,27.83,11a5.1,5.1,0,0,1,1.39-1.46A4.39,4.39,0,0,0,33,16.11a4.47,4.47,0,0,0,1-.1,4.34,4.34,0,0,0,2.75-1.94,4.14,4.14,0,0,0,.56-1.32A5.19,5.19,0,0,1,33.34,18.82ZM26.71,10a1.27,1.27,0,0,0-.13.19l0,0a9.52,9.52,0,0,0-1.69,5.36,6.21,6.21,0,0,1,4.68-10.2A10.28,10.28,0,0,0,26.71,10ZM45.57,23.11a3.13,3.13,0,0,1-2-.71l-.31-.21a5.46,5.46,0,0,0,0-.57,1.84,1.84,0,0,1,.26-.09,6.59,6.59,0,0,0,1.66-.61,6.45,6.45,0,0,0,2.42-2.25c.13-.21.25-.43.36-.65a3.14,3.14,0,0,1-2.45,5.09Zm-11.24.47a8.83,8.83,0,0,0,5-5.31,8.74,8.74,0,0,0-2.08-8.91,6.63,6.63,0,0,0-2.35-1.71,8,8,0,0,1,1.2,15.74A7.9,7.9,0,0,1,34.33,23.58Zm8.51.11a4.71,4.71,0,0,0,1.08.59,2.74,2.74,0,0,1-.75,1.47,2.83,2.83,0,0,1-3.46.49A4.81,4.81,0,0,0,42.84,23.69Z"/></svg>