<svg xmlns="http://www.w3.org/2000/svg" viewBox="0 0 70 50"><defs><style>.a,.b{fill:none;stroke:#ec1f27;stroke-linejoin:round;}.a{stroke-width:3px;}.b{stroke-linecap:round;stroke-width:2px;}.c{fill:#ec1f27;}</style></defs><title>navswagshop copy</title><path class="a" d="M57.25,46.16H12.75l1.44-16.61,0-13.5a3.41,3.41,0,0,1,3.39-3.12H52.37a3.42,3.42,0,0,1,3.4,3.12l0,13.5Z"/><path class="b" d="M23.63,15.21S23.49,3.84,35,3.84,46.37,15.21,46.37,15.21"/><path class="c" d="M52.09,35.47A14.41,14.41,0,0,0,45,31.27a3.78,3.78,0,0,0,1.31-2.82,4.3,4.3,0,0,0-1.59-3.2A3.22,3.22,0,0,0,45,24.06a4.13,4.13,0,0,0-1.58-3.24,5.21,5.21,0,0,0-2.57-1.08,0,0,0,0,1,0,0,5.86,5.86,0,0,0-9.12-.84,2.74,2.74,0,0,0-1.18-.52,3.65,3.65,0,0,0-3.35,1.46A5.7,5.7,0,0,0,26,24.1a4.69,4.69,0,0,0-2.39,4.13A6.29,6.29,0,0,0,24.88,32l.08.09a12.17,12.17,0,0,0-5.16,4.12.39.39,0,0,0,0,.43,8.81,8.81,0,0,0,6.77,4.72,10.78,10.78,0,0,0,1.49.11,9.22,9.22,0,0,0,5.72-1.92l.15.09V42H36V39.46a8.64,8.64,0,0,0,5.73,2.11H42c3.55-.08,7.25-2.1,10.15-5.55A.41.41,0,0,0,52.09,35.47Zm-3.91-2L47,35.54l-2,.09L47,32.86C47.39,33.05,47.79,33.26,48.18,33.48Zm-2-.95L44,35.67l-2.64.12L44.42,32A12.92,12.92,0,0,1,46.2,32.53Zm-5.49-.6a8.83,8.83,0,0,1,1.63-.15,8.72,8.72,0,0,1,1.14.07l-3.23,4-1.42.06Zm-2.82,4-2,.09V34.58a8.94,8.94,0,0,1,3.76-2.39Zm7.58-7.49A3.52,3.52,0,0,1,44,31.06a13.31,13.31,0,0,0-1.53-.12h-.15l0-.05A5.55,5.55,0,0,0,43.59,27v-.23a4.69,4.69,0,0,0,.73-.75A3.43,3.43,0,0,1,45.47,28.45Zm-2.6-7A3.28,3.28,0,0,1,44.14,24h0a2.63,2.63,0,0,1-.66,1.63,6.14,6.14,0,0,0-3-4.45,2.31,2.31,0,0,0-.36-.54L40,20.53A4.81,4.81,0,0,1,42.87,21.48Zm-2.2.89a5.79,5.79,0,0,1,2,4.63A4.76,4.76,0,0,1,41,31.05a8.72,8.72,0,0,0-1.76.44c-1.59-.34-4.81-1.28-6.43-3.41a6,6,0,0,1-.64-1,6.14,6.14,0,0,0,2.53.59h0A5.28,5.28,0,0,0,37,27.13,7,7,0,0,0,40.67,22.37Zm-4.06,4a4.9,4.9,0,0,1-4.91-.53,8.7,8.7,0,0,1-.29-2.39h0a5.2,5.2,0,0,0,2.9,1.31A2.59,2.59,0,0,0,36.26,24a6.23,6.23,0,0,0,2.05-3.28,2.14,2.14,0,0,1,1.2.56,1.17,1.17,0,0,1,.29,1A6.11,6.11,0,0,1,36.61,26.35Zm-.54-8.42h0a4.63,4.63,0,0,1,3.69,1.71,10.65,10.65,0,0,0-1.93.16l0,0h-.08l-.08.05h0a7.31,7.31,0,0,1-.71.6A2.07,2.07,0,0,0,35,19.07a2.76,2.76,0,0,0-2.28,1.08,3.61,3.61,0,0,0-.33-.65A4.6,4.6,0,0,1,36.07,17.93ZM36.15,21a2.84,2.84,0,0,1-1.69.36,2.35,2.35,0,0,1-1.18-.54A1.88,1.88,0,0,1,35,19.94,1.29,1.29,0,0,1,36.15,21Zm-4.33.17h0c.1-.08.23-.16.35-.24a3.45,3.45,0,0,0,2.15,1.29l.44,0a4.28,4.28,0,0,0,2.38-.84,6.69,6.69,0,0,1-1.49,1.95,1.73,1.73,0,0,1-1.31.51,5,5,0,0,1-2.86-1.56c0-.22.06-.44.1-.67A1,1,0,0,1,31.82,21.18Zm-3.93-.82h0a2.76,2.76,0,0,1,2.52-1.15,1.74,1.74,0,0,1,1,.57h0a1.91,1.91,0,0,1,.28.4,2.67,2.67,0,0,0-.5.35,1.72,1.72,0,0,0-.47.74,7.56,7.56,0,0,0-2,1.72,8.73,8.73,0,0,0-2,.64A4.8,4.8,0,0,1,27.89,20.36Zm-3.41,7.87h0a3.93,3.93,0,0,1,2.26-3.58,7.12,7.12,0,0,1,1.35-.58,6.37,6.37,0,0,0-.46,1.16,8,8,0,0,0,1.14,6.2c-.3,0-.6,0-.91,0a8.75,8.75,0,0,0-2,.36l-.09-.1A5.51,5.51,0,0,1,24.48,28.23ZM29,32.29l1.42,3.76h-2l-.76-3.77h.14A7.19,7.19,0,0,1,29,32.29Zm-2.2.1.74,3.66h-2l-1.89-2.41A9.06,9.06,0,0,1,26.83,32.39ZM23,34.1l1.52,1.95H20.89A11.83,11.83,0,0,1,23,34.1Zm-2.23,2.78h3.78l-1.62,2.26A7.63,7.63,0,0,1,20.73,36.88Zm2.87,2.69,1.93-2.69H27.3l-2.2,3.33A7.7,7.7,0,0,1,23.6,39.57Zm2.94,1c-.2,0-.39-.06-.59-.1l2.35-3.56h2l-2.26,3.76A8.69,8.69,0,0,1,26.54,40.54Zm7.25-2.23a8.13,8.13,0,0,1-4.72,2.25l2.22-3.68h2.5Zm0-2.26H31.34L30,32.45a7.78,7.78,0,0,1,3.81,2.13Zm1.29,2.43v2.71h-.46V34.63a.63.63,0,0,1,.23,0,.68.68,0,0,1,.23,0ZM35,33.76a1.32,1.32,0,0,0-.58.12,8.69,8.69,0,0,0-4.52-2.33c-1.42-2.25-1.88-4.29-1.39-6.08a6,6,0,0,1,2.11-3,9.48,9.48,0,0,0,.32,3.7.24.24,0,0,0,0,.08,7.49,7.49,0,0,0,1.21,2.37,10.31,10.31,0,0,0,5.78,3.47h0a9.7,9.7,0,0,0-2.38,1.8A1.37,1.37,0,0,0,35,33.76Zm.95,4.55V36.86l2-.08,1.2,3.56A7.61,7.61,0,0,1,35.91,38.31Zm5.91,2.43A8.77,8.77,0,0,1,40,40.59l-1.3-3.85,1.49-.07,2.27,4Zm1.55-.17-2.22-3.94L44,36.51l2,3.2A10.71,10.71,0,0,1,43.37,40.57Zm3.39-1.24L45,36.46l2.11-.09,1.43,1.84A14.14,14.14,0,0,1,46.76,39.33Zm2.38-1.64-1.06-1.37,2.63-.11A18,18,0,0,1,49.14,37.69ZM48,35.5l.9-1.57a13.15,13.15,0,0,1,1.82,1.45Z"/></svg>