<svg xmlns="http://www.w3.org/2000/svg" viewBox="0 0 70 50"><defs><style>.a{fill:#eb2227;}.b{fill:#fff;}</style></defs><title>navsocforumlogo</title><polygon class="a" points="67 48.474 3 48.474 3 1.526 67 1.526 62.035 25.7 67 48.474"/><path class="b" d="M56.4268,18.2705h-1.2c-.3724-2.9388-1.0764-4.3874-4.0566-4.3874H47.7759c-3.146,0-3.8912.29-3.8912,3.1458V24.48h2.7737c5.0083,0,5.5048-.9519,5.7535-3.4769h.9517v8.444h-.9517c-.2487-2.525-.7452-3.4769-5.7535-3.4769H43.8847v8.1544c0,2.7732,1.2833,2.8561,3.436,3.27v.9934H35.5238V37.394c2.1521-.4138,3.4355-.4967,3.4355-3.27v-17.55c0-2.7732-1.2834-2.8561-3.4355-3.27V12.31H56.0544Z"/><path class="b" d="M13.89,35.8906l-.3172-5.0332h.872c.8719,3.5668,3.4083,6.341,6.9751,6.341a4.8649,4.8649,0,0,0,5.1123-4.9142c0-3.1309-2.4174-4.5576-5.8258-6.2222-3.17-1.5852-6.6183-3.6856-6.6183-7.6884,0-3.25,2.259-6.0636,7.6487-6.0636a10.7009,10.7009,0,0,1,6.9357,2.3382l.1187,5.0728h-.7925c-.8322-3.2894-2.7743-6.222-6.3806-6.222-2.9328,0-4.36,1.7834-4.36,3.9234,0,2.4572,1.9816,4.0028,5.5484,5.7466,2.8138,1.4267,7.2525,3.5668,7.2525,8.164,0,4.32-4.0029,7.0544-8.6,7.0544A14.0776,14.0776,0,0,1,13.89,35.8906Z"/></svg>