<svg xmlns="http://www.w3.org/2000/svg" viewBox="0 0 70 50"><defs><style>.a{fill:#ec1f27;}</style></defs><title>navteacherslogo copy</title><path class="a" d="M35,1A24,24,0,1,0,59,25,24,24,0,0,0,35,1ZM29.88,46.39l.95-11a.4.4,0,0,0-.08-.28,9.89,9.89,0,0,1-1.91-7.71.41.41,0,0,0,0-.31,3.7,3.7,0,0,1,.34-3.36c0-.09.35-1,.14-3.85v-.1c-.21-2.71-.22-2.88,1.11-3.46a2,2,0,0,1,.76-.16,2.34,2.34,0,0,1,1.35.5c0,.07.11.13.14.13a.86.86,0,0,1,.13.14l.06.05.17.12a2.59,2.59,0,0,0-1.22,1.45.42.42,0,0,0,.15.48l1.15.86a.44.44,0,0,0,.25.08.43.43,0,0,0,.34-.16.58.58,0,0,0,.08-.18c.13-.69,1-.91,1.43-1a3.45,3.45,0,0,1,.25.27.63.63,0,0,1,.13.24,1.05,1.05,0,0,1-.23,1.07l-.08.12a1.86,1.86,0,0,1-.89.63h-.19l-.5,0-.53,0a1,1,0,0,1-.42-.17L30.2,18.93a.44.44,0,0,0-.25-.08.43.43,0,0,0-.25.77l2.53,1.86a2.11,2.11,0,0,0,.52.26A5.45,5.45,0,0,1,32.2,26a.43.43,0,0,0,.1.59.42.42,0,0,0,.24.07.4.4,0,0,0,.35-.19,6.18,6.18,0,0,0,.77-4.62l.53,0c-.31,1.07-.59,2.68.27,3.37a2.31,2.31,0,0,0,.14,1.94,2.15,2.15,0,0,0,1.27.89A2.44,2.44,0,0,0,36,30a2,2,0,0,0,1.33.89,2.4,2.4,0,0,0,.87.17,1.58,1.58,0,0,0,.71-.16L41,35.64l-1,1.81a.42.42,0,0,0-.05.24l.78,8.54a21.86,21.86,0,0,1-10.88.16Zm2.4-33.34,1.11,2.51,0,.06a3,3,0,0,0-.2.4l-1.29-2.89Zm-.71-.73-1-3.84.07-.05,2.27,3.29-.53.45ZM43,38.08l-.18-.41L44.27,37l.19.41Zm1.8.12.66,1.51L44,40.36l-.66-1.5Zm-2.33-1.31-3.21-7.23a.73.73,0,0,1,0-.46,2.28,2.28,0,0,1,.15-.36l3.46,7.89Zm1.14-.51-3.51-8,.15,0a.42.42,0,0,1,.35.25l3.33,7.58ZM41.38,28.3a1.28,1.28,0,0,0-1-.75c-.11,0-.23,0-.36,0a1.27,1.27,0,0,0-.91.32,2.66,2.66,0,0,0-.64,1.1A1.55,1.55,0,0,0,38.5,30l0,.1a.51.51,0,0,1-.35.11,1.48,1.48,0,0,1-.58-.13l-.08,0h0a1.17,1.17,0,0,1-.78-.5A1.89,1.89,0,0,1,36.78,28a17,17,0,0,1,1.61-3.22l.1-.16c.18-.29.39-.64.75-.72a.55.55,0,0,1,.18,0,2,2,0,0,1,1,.4,12.25,12.25,0,0,0,3,1.51c.45.23,1.83,1.16.91,3.61L43.6,30.8,43,32Zm3.06-2.92a2.72,2.72,0,0,0-.73-.44,11.75,11.75,0,0,1-2.8-1.42,2.78,2.78,0,0,0-1.5-.54,2.2,2.2,0,0,0-.36,0,2.16,2.16,0,0,0-1.28,1.11l-.11.17a16.59,16.59,0,0,0-1.49,2.92,1.41,1.41,0,0,1-.86-.54,1.78,1.78,0,0,1,0-1.46h0v-.08a22.4,22.4,0,0,1,2.41-4.49,1.49,1.49,0,0,1,.82-.67,1.09,1.09,0,0,1,.26,0,1.81,1.81,0,0,1,1,.34,33,33,0,0,0,3.52,2,2.67,2.67,0,0,1,1.21,1.41l0,.09A2.57,2.57,0,0,1,44.44,25.38Zm-4.15-5.81a2.62,2.62,0,0,0-1.42-.48,2.07,2.07,0,0,0-.5.06,2.32,2.32,0,0,0-1.32,1.06,23,23,0,0,0-2.24,4,5.29,5.29,0,0,1,.37-2.74,3.15,3.15,0,0,0,.74-.67l.09-.12a1.94,1.94,0,0,0,.37-1.78,1.38,1.38,0,0,0-.19-.43c.22-1.24.63-2,1.15-2.19a1.1,1.1,0,0,1,.27,0,2.9,2.9,0,0,1,1.64.9l1.54,1.43c1.78,1.14,2.26,2.08,2.37,2.62A30.07,30.07,0,0,1,40.29,19.57Zm-4.81-1.8c-.11-.07-.21-.15-.32-.21l-1.32-.94a1.94,1.94,0,0,1,.31-.7l.07-.09a1.69,1.69,0,0,1,1.36-.56,1.43,1.43,0,0,1,1,.48A3.44,3.44,0,0,0,35.48,17.77Zm-1.59-.08.41.29a2.3,2.3,0,0,0-1.15.86l-.45-.33a1.35,1.35,0,0,1,1.11-.8h0S33.91,17.71,33.89,17.69ZM34,14.88,33,12.7l.29-.23,1,2.22A3.37,3.37,0,0,0,34,14.88ZM41.58,46l-.76-8.24.61-1.14.42.94,0,.1.49,1.06,0,.1.87,2a.77.77,0,0,0,.69.45.82.82,0,0,0,.31-.07l1.6-.72a.77.77,0,0,0,.38-1l-2.85-6.51.93-1.73.78-1.51A4,4,0,0,0,45,26.1a3.5,3.5,0,0,0,.31-2.7A3.4,3.4,0,0,0,44,21.69c.08-.66-.14-2.11-2.73-3.77l-1.45-1.36a3.66,3.66,0,0,0-2.24-1.13h-.15a2.39,2.39,0,0,0-1.88-1,3.11,3.11,0,0,0-.43,0l-1.29-2.87-4-5.78a.44.44,0,0,0-.38-.24.39.39,0,0,0-.18,0,.42.42,0,0,0-.21.52l1.77,6.79h.21l-.18.09,1.06,2.4a2.72,2.72,0,0,0-.8-.12,2.54,2.54,0,0,0-1.09.23c-1.88.82-1.83,1.55-1.62,4.3v.1a11.52,11.52,0,0,1-.06,3.42,4.42,4.42,0,0,0-.39,4,10.65,10.65,0,0,0,2,8.14l-.92,10.75A22,22,0,1,1,41.58,46Z"/></svg>