<svg xmlns="http://www.w3.org/2000/svg" viewBox="0 0 70 50"><defs><style>.a{fill:#ec1f27;}</style></defs><title>navtalkingunionlogo copy</title><path class="a" d="M34.62,15.44a65.5,65.5,0,0,0-8,1.63A226.17,226.17,0,0,0,16.07,38.78S12,41.65,7.73,41.05c1.71-4.18,7.58-16.51,11.05-23.22-1.44,0-6.22,1.4-8.46,1.76,1.08-2,2.88-5.71,4.11-7.9,0,0,13.05-2.52,23.82-3.59Z"/><path class="a" d="M50.82,33.91c-2.15,5-4.87,5.91-11.73,7.54C31.47,43.25,28,39.3,28.55,36.23c.84-4.55,7.71-19.2,11-25.3A21.75,21.75,0,0,1,49.3,8.82c-1.83,2.51-6.86,12.2-8,14s-4.83,10.61-3,10.45c2.39-.19,4.55-1,5.27-2.63,3.15-7.1,7.54-15.44,9-18.43a79.07,79.07,0,0,1,9.66-2C59.2,15.68,53.93,26.61,50.82,33.91Z"/></svg>