<svg xmlns="http://www.w3.org/2000/svg" viewBox="0 0 694.51 56"><defs><style>.cls-1{fill:#eb2227;}.cls-2{fill:#241e1f;}.cls-3{fill:#ed1c24;}.cls-4{fill:#fff;}</style></defs><title>stickylogo</title><g id="Layer_2" data-name="Layer 2"><g id="Layer_1-2" data-name="Layer 1"><rect class="cls-1" width="58.03" height="56"/><path class="cls-2" d="M43.27,42.11c-.47,0-4.62.12-5.47.33a5.17,5.17,0,0,1-2.08-.23.35.35,0,0,0-.45.23.36.36,0,0,0,.24.46,7.47,7.47,0,0,0,1.85.31,2.45,2.45,0,0,0,.62-.07c.65-.16,4.05-.27,5.31-.3a.37.37,0,0,0,.35-.38A.36.36,0,0,0,43.27,42.11Z"/><line class="cls-3" x1="42.62" y1="30.07" x2="29.31" y2="30.66"/><line class="cls-3" x1="31.54" y1="30.46" x2="33.4" y2="26.48"/><line class="cls-3" x1="33.4" y1="30.48" x2="36.5" y2="26.57"/><line class="cls-3" x1="36.5" y1="30.34" x2="38.65" y2="27.22"/><line class="cls-3" x1="39" y1="30.23" x2="40.21" y2="28.03"/><line class="cls-3" x1="39" y1="30.23" x2="40.48" y2="32.22"/><line class="cls-3" x1="36.5" y1="30.34" x2="38.45" y2="33.52"/><line class="cls-3" x1="33.4" y1="30.48" x2="34.81" y2="33.01"/><line class="cls-3" x1="31.54" y1="30.46" x2="32.45" y2="33.34"/><line class="cls-3" x1="16.54" y1="30.76" x2="28.15" y2="30.76"/><line class="cls-3" x1="25.63" y1="30.66" x2="24.21" y2="26.88"/><line class="cls-3" x1="23.19" y1="30.66" x2="22.38" y2="26.83"/><line class="cls-3" x1="20.86" y1="30.66" x2="18.99" y2="28.23"/><line class="cls-3" x1="20.86" y1="30.66" x2="18.99" y2="33.39"/><line class="cls-3" x1="23.19" y1="30.66" x2="21.13" y2="33.82"/><line class="cls-3" x1="25.63" y1="30.66" x2="24.04" y2="33.39"/><line class="cls-3" x1="32.12" y1="26.79" x2="32.37" y2="26.84"/><path class="cls-4" d="M43,30.18a.51.51,0,0,0,0-.13h0s0,0,0,0a.3.3,0,0,0,0-.1l0,0s0,0,0-.05a11,11,0,0,0-5.76-3.5A3.24,3.24,0,0,0,38.25,24a3.6,3.6,0,0,0-1.31-2.68,2.83,2.83,0,0,0,.21-1,3.46,3.46,0,0,0-1.3-2.72,4.19,4.19,0,0,0-2.13-.9v0a4.8,4.8,0,0,0-7.53-.71,2.24,2.24,0,0,0-1-.43,3,3,0,0,0-2.77,1.22,4.86,4.86,0,0,0-1,3.59,4,4,0,0,0-2,3.46,5.32,5.32,0,0,0,1.06,3.17,11.12,11.12,0,0,0-4.29,3.51l0,.06v0a.53.53,0,0,0,0,.12h0v0a.53.53,0,0,0,0,.12h0a6.89,6.89,0,0,0,3.25,3.26,17.6,17.6,0,0,1-5.14.78.36.36,0,1,0,0,.72,19.92,19.92,0,0,0,6.34-1.11,11.79,11.79,0,0,1,3.39-.7,5,5,0,0,1,3.45,1.19l.76.76a.36.36,0,0,0,.26.11.36.36,0,0,0,.25-.11.36.36,0,0,0,0-.51l0-.17V29.46c-.14-.1-.06-.18,0-.18s.25.18.25.18v5.29a.28.28,0,0,0,.29.36c.2,0,.58-.36.58-.36V33.26a3,3,0,0,0,.76.79.36.36,0,0,0,.38-.62c-.9-.55-1.27-1.23-1.14-1.42V31l1.42-.07.79,2.51a.38.38,0,0,0,.35.25h.11a.37.37,0,0,0,.24-.46l-.74-2.33,1.13,0,1.3,2.34a.38.38,0,0,0,.32.18.31.31,0,0,0,.18,0,.36.36,0,0,0,.14-.49l-1.13-2,2.31-.1,1.62,2.66-.28.12a.36.36,0,0,0-.19.47.37.37,0,0,0,.33.23.32.32,0,0,0,.14,0c.24-.1.47-.21.69-.32h0a12.75,12.75,0,0,0,4.27-3.55l0-.06Zm-10.89,0,1.57-3.37a3.07,3.07,0,0,1,.67-.08,10.41,10.41,0,0,1,1.51.11l-2.62,3.29Zm-5.82-12.3a2.11,2.11,0,0,1,.29-.2,2.86,2.86,0,0,0,1.77,1.08l.37,0a3.5,3.5,0,0,0,2-.7,5.64,5.64,0,0,1-1.23,1.63,1.42,1.42,0,0,1-1.08.43A4.2,4.2,0,0,1,26,18.83c0-.19,0-.37.08-.57A.89.89,0,0,1,26.26,17.87Zm1.2-.3a1.57,1.57,0,0,1,1.39-.74c.56,0,.84.44,1,.89a2.32,2.32,0,0,1-1.4.31A1.91,1.91,0,0,1,27.46,17.57Zm-1.54,2.18a4.3,4.3,0,0,0,2.39,1.11,2.15,2.15,0,0,0,1.61-.63,5.4,5.4,0,0,0,1.7-2.75,1.79,1.79,0,0,1,1,.46,1.05,1.05,0,0,1,.24.82,5.16,5.16,0,0,1-2.64,3.44,4,4,0,0,1-4.05-.44A7.2,7.2,0,0,1,25.92,19.75Zm2.73,3.54a4.31,4.31,0,0,0,1.88-.44,5.81,5.81,0,0,0,3-4,4.79,4.79,0,0,1,1.69,3.87A3.63,3.63,0,0,1,33.83,26h0a3.45,3.45,0,0,0-.54.11h0a6.27,6.27,0,0,0-.92.32l-.13,0h-.05a8.22,8.22,0,0,1-5.07-2.78,5.75,5.75,0,0,1-.53-.85A5,5,0,0,0,28.65,23.29Zm8,3.68a11.58,11.58,0,0,1,1.44.43L36.31,30l-2.13.09Zm2.13.71c.33.16.65.32.94.48l-.94,1.71-1.56.07Zm1.56.87a9.68,9.68,0,0,1,1.48,1.19l-2.19.1ZM37.53,24a2.52,2.52,0,0,1-1.35,2.18A11.65,11.65,0,0,0,35,26a4.79,4.79,0,0,0,1-3.28c0-.06,0-.12,0-.18a3.92,3.92,0,0,0,.6-.63A2.82,2.82,0,0,1,37.53,24Zm-1.1-3.7a2.28,2.28,0,0,1-.54,1.37,5.13,5.13,0,0,0-2.45-3.72,1.7,1.7,0,0,0-.29-.46L33,17.33a3.94,3.94,0,0,1,2.36.79A2.77,2.77,0,0,1,36.43,20.26Zm-6.66-5.11a3.76,3.76,0,0,1,3,1.44,8.36,8.36,0,0,0-1.59.13h0l0,0s0,0,0,0h0l-.06,0,0,0c-.2.19-.39.35-.58.5a1.71,1.71,0,0,0-1.61-1.22A2.26,2.26,0,0,0,27,17a2.74,2.74,0,0,0-.28-.54A3.75,3.75,0,0,1,29.77,15.15Zm-6.76,2a2.25,2.25,0,0,1,2.08-1,1.47,1.47,0,0,1,.86.47h0a1.36,1.36,0,0,1,.23.34,3.43,3.43,0,0,0-.41.29,1.44,1.44,0,0,0-.39.62,6.13,6.13,0,0,0-1.63,1.44,7.55,7.55,0,0,0-1.62.54A4.07,4.07,0,0,1,23,17.18ZM20.2,23.77a3.31,3.31,0,0,1,1.86-3,6.38,6.38,0,0,1,1.12-.48,5.59,5.59,0,0,0-.38,1,6.81,6.81,0,0,0,.94,5.21c-.24,0-.5,0-.77,0a6.06,6.06,0,0,0-1.72.26A4.69,4.69,0,0,1,20.2,23.77Zm6.24,9.72a6.38,6.38,0,0,0-1.8-.41l1.19-2h2v1a3.44,3.44,0,0,1-1.41,1.46Zm-4.57-.13,1.52-2.31H25l-1.18,2A8.78,8.78,0,0,0,21.87,33.36Zm-1.36.4-.1,0a9.39,9.39,0,0,1-.9-.42l1.55-2.25h1.46l-1.7,2.6v0Zm1.59-6.65.64,3.07H21l-1.53-2A7,7,0,0,1,22.1,27.11Zm1.85,0,1.16,3.09H23.49L22.82,27h0A8.11,8.11,0,0,1,24,27.09Zm3.9,2.24v.85h-2l-1.1-2.95a5.54,5.54,0,0,1,3.08,1.69Zm-8.93-.71,1.21,1.56H17.29A11.34,11.34,0,0,1,18.92,28.62Zm-1.78,2.43h3L18.9,32.91A6.58,6.58,0,0,1,17.14,31.05ZM27.2,33.83a4.2,4.2,0,0,0,.65-.57v1A4.28,4.28,0,0,0,27.2,33.83Zm1.57-5.28a1.13,1.13,0,0,0-.32.06,6.39,6.39,0,0,0-3.79-2,6.48,6.48,0,0,1-1.17-5.13,5,5,0,0,1,1.75-2.52,8.23,8.23,0,0,0,.25,3.1.25.25,0,0,1,0,.07,6.26,6.26,0,0,0,1,2A8.49,8.49,0,0,0,31.29,27a13.41,13.41,0,0,0-2.19,1.62A1,1,0,0,0,28.77,28.55Zm.83.91v-.38a11.6,11.6,0,0,1,3-2l-1.46,3.12-1.58.07Zm7.53,1.21,1.69-.07L40,32.15a11.05,11.05,0,0,1-1.39.89Zm3.42,1-.85-1.14,2.12-.1A12.7,12.7,0,0,1,40.55,31.7Z"/><path class="cls-4" d="M20.21,44.22c-2.13-2.75-5.81-2-6-2a.35.35,0,0,0-.28.42.36.36,0,0,0,.42.29s3.4-.65,5.26,1.74a3.81,3.81,0,0,0,.55.59.36.36,0,0,0,.51,0,.36.36,0,0,0,0-.51A4.24,4.24,0,0,1,20.21,44.22Z"/><path class="cls-4" d="M35.55,42.13l-.1-.1-4.7-4.69a.36.36,0,0,0-.51,0,.35.35,0,0,0,0,.5l4.7,4.7.1.1c.37.36,1.35,1.32,1.36,2a.61.61,0,0,1-.2.46.91.91,0,0,1-.63.28,1.78,1.78,0,0,1-1-.53c-.21-.21-.42-.4-.58-.54l-.17-.15-1.55-1.55-.5.51,1.55,1.55.19.18c.34.29,1.12,1,1.13,1.5a.43.43,0,0,1-.15.35.67.67,0,0,1-.51.23,1.42,1.42,0,0,1-.86-.51h0a4,4,0,0,0-.35-.4L30.86,44.2l-.51.5,1.87,1.87a1.91,1.91,0,0,1,.54.82.66.66,0,0,1-.22.66c-.35.35-.88.1-1.06,0a1.92,1.92,0,0,0-.31-.41c-.43-.43-1.54-1.68-1.55-1.69a.35.35,0,0,0-.51,0,.35.35,0,0,0,0,.5c.05.05,1.14,1.28,1.58,1.73a1.18,1.18,0,0,1,.35.63.67.67,0,0,1-.2.61.42.42,0,0,1-.26.1c-.24,0-.81-.17-1.9-1.29a.34.34,0,0,0-.5,0,.36.36,0,0,0,0,.51,4,4,0,0,0,2.4,1.51h0a1,1,0,0,0,.76-.32,1.33,1.33,0,0,0,.42-1,1.55,1.55,0,0,0,.37,0,1.29,1.29,0,0,0,.95-.39,1.44,1.44,0,0,0,.45-.94,1.59,1.59,0,0,0,.39.08H34a1.39,1.39,0,0,0,1-.44,1.16,1.16,0,0,0,.36-.88,1.26,1.26,0,0,0,0-.27,1.43,1.43,0,0,0,.29,0h0a1.56,1.56,0,0,0,1.13-.49,1.31,1.31,0,0,0,.4-1C37.11,43.66,36,42.59,35.55,42.13Z"/><path class="cls-2" d="M28.06,46.25a1.26,1.26,0,0,0-.33,0,2.07,2.07,0,0,0,.22-.86,1.34,1.34,0,0,0-.41-1,1.1,1.1,0,0,0-.79-.34,1.56,1.56,0,0,0-.58.13,1.24,1.24,0,0,0-.43-.89,1.41,1.41,0,0,0-1.82,0v-.1a1,1,0,0,0-.31-.74.92.92,0,0,0-.65-.27c-.62,0-1.19.58-1.65,1l-.09.09a7.15,7.15,0,0,0-1,1.27c-.55.93-.33,1.45-.05,1.73a1,1,0,0,0,.71.31,1.15,1.15,0,0,0,.36-.07,1.21,1.21,0,0,0,.26,1.26,1.29,1.29,0,0,0,.93.4,1.45,1.45,0,0,0,.41-.06,1.19,1.19,0,0,0,.33,1.05,1.15,1.15,0,0,0,.84.36h0a1.91,1.91,0,0,0,1.06-.4,1.12,1.12,0,0,0,.23,1,.88.88,0,0,0,.69.31h0c1.06,0,2.52-1.63,2.94-2.68.3-.75.11-1.14-.11-1.35A1,1,0,0,0,28.06,46.25Zm-7.41-.37c-.18-.19,0-.61.17-.85a7,7,0,0,1,.91-1.13l.1-.09c.3-.31.82-.83,1.13-.83a.2.2,0,0,1,.14.07.28.28,0,0,1,.1.23A3.4,3.4,0,0,1,22.12,45l-.13.13c-.28.29-.8.83-1.14.83A.27.27,0,0,1,20.65,45.88ZM22,47.38c-.42-.42.37-1.59,1.34-2.56s1.57-1.25,1.93-.92c.14.13.42.4-.12,1.07l-.59.56A9.24,9.24,0,0,0,23.2,47.2C22.9,47.46,22.38,47.77,22,47.38Zm1.67,1.39c-.45-.46.38-1.7,1.41-2.73.15-.15.35-.35.58-.55l0,0h0a2.08,2.08,0,0,1,1.08-.6A.38.38,0,0,1,27,45a.6.6,0,0,1,.19.46c0,.71-1,1.68-1.4,2.1l-.1.1-.17.17c-.4.42-1.08,1.11-1.57,1.11A.46.46,0,0,1,23.65,48.77Zm4.58-1.15c-.4,1-1.67,2.22-2.27,2.22a.14.14,0,0,1-.14-.06c-.28-.31.18-1.19,1.13-2.13A1.91,1.91,0,0,1,28.06,47a.3.3,0,0,1,.23.1C28.35,47.12,28.35,47.31,28.23,47.62Z"/><path class="cls-2" d="M26,39.19c0-1.59,2.49-3.39,3.68-4.25l.6-.45a7.85,7.85,0,0,1,4.61-1.09,6.34,6.34,0,0,1,3.74,1.36c1,.77,4.3.78,4.66.78a.36.36,0,0,0,0-.72h0c-1.3,0-3.56-.17-4.19-.65a7.06,7.06,0,0,0-4.17-1.49,8.37,8.37,0,0,0-5.07,1.25c-.12.1-.33.25-.57.42-1.38,1-4,2.87-4,4.82A4.36,4.36,0,0,0,25.93,42a1.54,1.54,0,0,0,1.16.5,1.27,1.27,0,0,0,1-.39,3.19,3.19,0,0,0,.44-2.3,3.52,3.52,0,0,1,0-.81c.43-.54,1.34-1.35,2-1.35a.36.36,0,1,0,0-.72,4.09,4.09,0,0,0-2.53,1.63c-.21.26-.18.69-.16,1.29s.07,1.44-.23,1.76a.59.59,0,0,1-.46.16.77.77,0,0,1-.62-.26A3.7,3.7,0,0,1,26,39.22Z"/><path class="cls-2" d="M79.22,12.77H89.43c9.67,0,13.35,2.76,13.35,15.74s-4,16.24-13.58,16.24h-10Zm10,27.93c6,0,8.33-1.89,8.33-12s-2.21-11.87-8.33-11.87H84.37V40.7Z"/><path class="cls-2" d="M124.51,44.29a33.17,33.17,0,0,1-7.6.92c-6.44,0-10.16-1.93-10.16-11.69,0-9.43,4-12.14,10.07-12.14s8.74,2.16,8.74,10.44c0,1,0,1.89-.13,2.94H111.85c.14,5.66,1.8,6.54,6,6.54a28.11,28.11,0,0,0,6.22-.79ZM121,31.41c0-5-1.29-6.12-4.32-6.12s-4.6,1.24-4.74,6.12Z"/><path class="cls-2" d="M130.28,22h4.23l.27,2.35c2.81-1.66,5.25-2.76,8-2.76,3.31,0,4.88,1.28,5.75,3,3.08-1.94,5.57-3,8.33-3,4.5,0,6.62,2.25,6.62,7.5V44.75h-5.11V30.07c0-3.31-1.1-4.37-3.17-4.37-1.56,0-3.4.83-5.93,2.44a9.72,9.72,0,0,1,.13,1.79V44.75h-5.1V30.07c0-3.31-1.06-4.37-3.13-4.37-1.61,0-3.41.83-5.8,2.35v16.7h-5.1Z"/><path class="cls-2" d="M178.22,45.39c-6.53,0-10.12-2.39-10.12-11.87s3.82-12.14,10.31-12.14,10.12,2.39,10.12,11.87S184.71,45.39,178.22,45.39Zm.05-20.06c-3.41,0-5.06,1.34-5.06,8s1.65,8.14,5.1,8.14,5.11-1.38,5.11-8S181.72,25.33,178.27,25.33Z"/><path class="cls-2" d="M207.87,44.38a24.21,24.21,0,0,1-5.84.83c-6.58,0-9.75-2.4-9.75-11.69s4.05-12,10.12-12a22,22,0,0,1,5.61.78l-.46,3.78a19.53,19.53,0,0,0-4.74-.6c-3.36,0-5.43,1.24-5.43,7.86s1.61,7.92,5.48,7.92a19.16,19.16,0,0,0,4.6-.69Z"/><path class="cls-2" d="M211.92,22h4.23l.27,2.48c2.07-1.65,4-3.12,6-3.12a3.17,3.17,0,0,1,1.84.46l-.64,4.55a4.25,4.25,0,0,0-1.94-.41c-1.19,0-2.71.82-4.69,2.11V44.75h-5.1Z"/><path class="cls-2" d="M238.68,29c0-2.34-1.15-3.49-4.05-3.49a30,30,0,0,0-6.39.78l-.51-3.77a35.18,35.18,0,0,1,7.78-1c6.12,0,8.28,2.25,8.28,7.18v16h-4.23l-.28-2.12C237,44,235,45.21,232.1,45.21c-3.72,0-6.44-2.17-6.44-6.67,0-4.74,3-7.55,11-7.55h2ZM237,34.35c-5.15,0-6.72,1.29-6.72,3.82,0,2.25,1.25,3.22,3,3.22s3.32-.83,5.43-2.21V34.35Z"/><path class="cls-2" d="M250.48,22V15.49l5.1-.69V22h5.06v3.86h-5.06V38.12c0,2.35.74,3.13,2.4,3.13a8.39,8.39,0,0,0,2.66-.46l.46,3.68a15.2,15.2,0,0,1-4.6.69c-4.46,0-6-1.75-6-5.8V25.88h-3.36V22Z"/><path class="cls-2" d="M267.32,17.51c-2.35,0-3-.64-3-2.9s.69-2.9,3-2.9,3,.65,3,2.9S269.71,17.51,267.32,17.51ZM264.79,22h5.1V44.75h-5.1Z"/><path class="cls-2" d="M290.11,44.38a24.22,24.22,0,0,1-5.85.83c-6.58,0-9.75-2.4-9.75-11.69s4.05-12,10.12-12a22,22,0,0,1,5.61.78l-.46,3.78a19.45,19.45,0,0,0-4.73-.6c-3.36,0-5.43,1.24-5.43,7.86s1.61,7.92,5.47,7.92a19.08,19.08,0,0,0,4.6-.69Z"/><path class="cls-2" d="M305.79,40.28a30.24,30.24,0,0,0,7.77,1.06c4.56,0,6.63-1.75,6.63-4.64,0-2.67-1.24-3.59-7-6.49C307,27.13,305,25.42,305,20.64c0-5.06,3.41-8.42,11.27-8.42a24.93,24.93,0,0,1,7.13,1l-.55,3.87a24.37,24.37,0,0,0-6.67-.92c-4.46,0-6.35,1.56-6.35,4.05s1.29,3.45,6.81,6.16c6.58,3.31,8.47,4.92,8.47,9.75,0,5.66-3.69,9.16-11.6,9.16a30.4,30.4,0,0,1-8.19-1.15Z"/><path class="cls-2" d="M338.86,45.39c-6.53,0-10.12-2.39-10.12-11.87s3.82-12.14,10.3-12.14,10.12,2.39,10.12,11.87S345.35,45.39,338.86,45.39Zm.05-20.06c-3.41,0-5.06,1.34-5.06,8s1.65,8.14,5.1,8.14,5.11-1.38,5.11-8S342.36,25.33,338.91,25.33Z"/><path class="cls-2" d="M368.51,44.38a24.21,24.21,0,0,1-5.84.83c-6.58,0-9.75-2.4-9.75-11.69s4-12,10.12-12a22,22,0,0,1,5.61.78l-.46,3.78a19.59,19.59,0,0,0-4.74-.6c-3.36,0-5.43,1.24-5.43,7.86s1.61,7.92,5.48,7.92a19.16,19.16,0,0,0,4.6-.69Z"/><path class="cls-2" d="M375.08,17.51c-2.34,0-3-.64-3-2.9s.69-2.9,3-2.9,3,.65,3,2.9S377.48,17.51,375.08,17.51ZM372.55,22h5.11V44.75h-5.11Z"/><path class="cls-2" d="M394.79,29c0-2.34-1.15-3.49-4-3.49a30,30,0,0,0-6.4.78l-.5-3.77a35.09,35.09,0,0,1,7.77-1c6.12,0,8.28,2.25,8.28,7.18v16h-4.23l-.28-2.12c-2.25,1.38-4.32,2.58-7.17,2.58-3.73,0-6.44-2.17-6.44-6.67,0-4.74,3-7.55,11-7.55h2Zm-1.7,5.34c-5.15,0-6.71,1.29-6.71,3.82,0,2.25,1.24,3.22,3,3.22s3.31-.83,5.42-2.21V34.35Z"/><path class="cls-2" d="M405.43,10.79h5.11v34h-5.11Z"/><path class="cls-2" d="M418.73,17.51c-2.34,0-3-.64-3-2.9s.69-2.9,3-2.9,3,.65,3,2.9S421.12,17.51,418.73,17.51ZM416.2,22h5.11V44.75H416.2Z"/><path class="cls-2" d="M426,40.61a27.18,27.18,0,0,0,5.88.82c3.32,0,4.74-1,4.74-2.8s-1-2.16-5-3.77c-4.37-1.75-6-3.09-6-6.58,0-4.47,3.08-6.72,9.15-6.72a22.41,22.41,0,0,1,5.48.78l-.55,3.73a22.09,22.09,0,0,0-5.16-.74c-2.71,0-4.18.79-4.18,2.58,0,1.33.87,2,4.69,3.45,4.6,1.84,6.35,3,6.35,7,0,4.37-2.81,6.9-9.76,6.9a25.47,25.47,0,0,1-6.16-.83Z"/><path class="cls-2" d="M446.75,22V15.49l5.11-.69V22h5.06v3.86h-5.06V38.12c0,2.35.73,3.13,2.39,3.13a8.51,8.51,0,0,0,2.67-.46l.46,3.68a15.3,15.3,0,0,1-4.6.69c-4.47,0-6-1.75-6-5.8V25.88h-3.36V22Z"/><path class="cls-2" d="M460.81,40.61a27.26,27.26,0,0,0,5.89.82c3.31,0,4.73-1,4.73-2.8s-1-2.16-5-3.77c-4.37-1.75-6-3.09-6-6.58,0-4.47,3.08-6.72,9.15-6.72a22.34,22.34,0,0,1,5.48.78l-.55,3.73a22.09,22.09,0,0,0-5.16-.74c-2.71,0-4.18.79-4.18,2.58,0,1.33.87,2,4.69,3.45,4.6,1.84,6.35,3,6.35,7,0,4.37-2.81,6.9-9.75,6.9a25.48,25.48,0,0,1-6.17-.83Z"/><path class="cls-2" d="M501.2,45.39c-6.54,0-10.12-2.39-10.12-11.87s3.81-12.14,10.3-12.14,10.12,2.39,10.12,11.87S507.68,45.39,501.2,45.39Zm0-20.06c-3.4,0-5.06,1.34-5.06,8s1.66,8.14,5.11,8.14,5.1-1.38,5.1-8S504.69,25.33,501.24,25.33Z"/><path class="cls-2" d="M517.57,25.88H514V22h3.55V19c0-6,2-8.88,8.51-8.88a19.17,19.17,0,0,1,4.18.46l-.46,3.77a16.31,16.31,0,0,0-3.17-.32c-3,0-4,1.47-4,4.51V22h6.12v3.86h-6.12V44.75h-5.1Z"/><path class="cls-2" d="M550,12.77h7.63l9.85,32h-5.43l-2.58-8.42H547.93l-2.58,8.42h-5.11Zm8.55,19.6-2.48-8.23c-.92-2.86-1.61-5.29-2.39-8h0c-.78,2.8-1.47,5.24-2.39,8.14l-2.44,8.14Z"/><path class="cls-2" d="M571.15,22h4.23l.28,2.35c2.8-1.66,5.24-2.76,8-2.76,3.32,0,4.88,1.28,5.75,3,3.09-1.94,5.57-3,8.33-3,4.51,0,6.63,2.25,6.63,7.5V44.75h-5.11V30.07c0-3.31-1.1-4.37-3.18-4.37-1.56,0-3.4.83-5.93,2.44a9.61,9.61,0,0,1,.14,1.79V44.75h-5.11V30.07c0-3.31-1.06-4.37-3.13-4.37-1.61,0-3.4.83-5.79,2.35v16.7h-5.11Z"/><path class="cls-2" d="M626.73,44.29a33.08,33.08,0,0,1-7.59.92c-6.44,0-10.16-1.93-10.16-11.69,0-9.43,3.95-12.14,10.07-12.14s8.74,2.16,8.74,10.44c0,1,0,1.89-.14,2.94H614.08c.14,5.66,1.8,6.54,6,6.54a27.94,27.94,0,0,0,6.21-.79Zm-3.54-12.88c-.05-5-1.29-6.12-4.32-6.12s-4.6,1.24-4.74,6.12Z"/><path class="cls-2" d="M632.5,22h4.24L637,24.5c2.07-1.65,4-3.12,6-3.12a3.17,3.17,0,0,1,1.84.46l-.65,4.55A4.2,4.2,0,0,0,642.3,26c-1.19,0-2.71.82-4.69,2.11V44.75H632.5Z"/><path class="cls-2" d="M650.64,17.51c-2.35,0-3-.64-3-2.9s.69-2.9,3-2.9,3,.65,3,2.9S653,17.51,650.64,17.51ZM648.11,22h5.1V44.75h-5.1Z"/><path class="cls-2" d="M673.43,44.38a24.22,24.22,0,0,1-5.85.83c-6.58,0-9.75-2.4-9.75-11.69s4-12,10.12-12a22,22,0,0,1,5.61.78l-.46,3.78a19.45,19.45,0,0,0-4.73-.6c-3.36,0-5.43,1.24-5.43,7.86s1.61,7.92,5.47,7.92a19.08,19.08,0,0,0,4.6-.69Z"/><path class="cls-2" d="M689.41,29c0-2.34-1.15-3.49-4-3.49a30,30,0,0,0-6.4.78l-.5-3.77a35.09,35.09,0,0,1,7.77-1c6.12,0,8.28,2.25,8.28,7.18v16h-4.23L690,42.63c-2.25,1.38-4.32,2.58-7.17,2.58-3.73,0-6.44-2.17-6.44-6.67,0-4.74,3-7.55,11-7.55h2Zm-1.71,5.34c-5.15,0-6.71,1.29-6.71,3.82,0,2.25,1.24,3.22,3,3.22s3.31-.83,5.43-2.21V34.35Z"/></g></g></svg>