<svg xmlns="http://www.w3.org/2000/svg" viewBox="0 0 177.93 46.59"><defs><style>.a{fill:#303030;}</style></defs><title>swagad2</title><path class="a" d="M23.53,40.26c-.07,2.75,2,4.67,5,4.67s4.93-1.47,4.93-4c0-3.65-4-3.91-6.21-4.1-7-.51-13.95-4.29-13.95-13.63,0-8.77,6-14.21,15-14.21s15,5.89,14.72,14.66H32.68A4,4,0,0,0,28.52,19c-2.62,0-4.29,1.54-4.29,4.1,0,2,1.47,3.39,4.93,3.84,8.13.83,15.29,3.19,15.29,14.07,0,8.58-6.27,14-15.74,14C19.05,55,12.78,49.15,13,40.26Z" transform="translate(-13.02 -8.96)"/><path class="a" d="M83.56,34.88c.57-4.67,1.47-9,2.36-13.05L89.38,9.6H100.9v.45l-13,44.8H80.42L73.57,34.37h-.19L66.85,54.85h-7.8l-13-44.74V9.6H57.58l3.51,12.23a111.64,111.64,0,0,1,2.57,13.05h.12l6.47-24.51h7.16l6,24.51Z" transform="translate(-13.02 -8.96)"/><path class="a" d="M126.25,54.4l-2-5.57H111.53l-2,5.57H98v-.7L115.17,9h5.51l17,44.74v.7Zm-5.12-14.66A75.4,75.4,0,0,1,117.86,27a112,112,0,0,1-3.2,12.73Z" transform="translate(-13.02 -8.96)"/><path class="a" d="M158,9c7.55,0,15.62,4.42,17.54,15.43H164.77c-1.15-3.59-3.52-4.93-6.78-4.93-5.57,0-8.51,5-8.51,12.54,0,7.36,3.39,12.29,8.51,12.29,3.07,0,5.7-1.15,6.78-5.44H158V29h18c1,14.21-4.09,26-18,26-11.84,0-19.71-9.16-19.71-22.92S146.66,9,158,9Z" transform="translate(-13.02 -8.96)"/><path class="a" d="M179.11,49.73a5.92,5.92,0,0,1,11.84,0,5.55,5.55,0,0,1-5.89,5.82A5.64,5.64,0,0,1,179.11,49.73Z" transform="translate(-13.02 -8.96)"/></svg>