<svg xmlns="http://www.w3.org/2000/svg" xmlns:xlink="http://www.w3.org/1999/xlink" viewBox="0 0 303.83 84.1"><defs><style>.cls-1{fill:#ea2127;}.cls-2,.cls-5{fill:#fff;}.cls-2{opacity:0.1;}.cls-3{fill:#241e1f;}.cls-4{fill:#ed1c24;}.cls-6{fill:none;}.cls-7{fill:#f1f2f2;}.cls-8{fill:#303030;}.cls-9{opacity:0.3;}.cls-10{fill:#395429;}.cls-11{fill:#41632f;}.cls-12{fill:url(#linear-gradient);}.cls-13{fill:#cc111e;}.cls-14{fill:#231f20;}.cls-15{fill:#ec1f27;}.cls-16{fill:#030202;}.cls-17{fill:#fefcfc;}</style><linearGradient id="linear-gradient" x1="140.84" y1="53.39" x2="140.84" y2="71.13" gradientUnits="userSpaceOnUse"><stop offset="0" stop-color="#40622e"/><stop offset="1" stop-color="#395429"/></linearGradient></defs><title>Asset 1</title><g id="Layer_2" data-name="Layer 2"><g id="Layer_1-2" data-name="Layer 1"><circle class="cls-1" cx="261.78" cy="42.05" r="42.05"/><circle class="cls-2" cx="261.78" cy="42.05" r="40.26"/><path class="cls-2" d="M221.69,45.82A40.27,40.27,0,0,1,272.45,3.23C248.47,1.13,223.73,22.49,221.69,45.82Z"/><path class="cls-2" d="M301.86,38.28A40.26,40.26,0,0,1,251.1,80.87C275.08,83,299.82,61.62,301.86,38.28Z"/><path class="cls-3" d="M284,56.82c-.72,0-7.09.18-8.4.51a7.72,7.72,0,0,1-3.19-.36.56.56,0,0,0-.7.37.56.56,0,0,0,.37.69,10.79,10.79,0,0,0,2.85.48,4,4,0,0,0,.94-.1c1-.25,6.23-.43,8.16-.47a.56.56,0,0,0,.54-.57A.57.57,0,0,0,284,56.82Z"/><line class="cls-4" x1="283.01" y1="38.33" x2="262.57" y2="39.24"/><line class="cls-4" x1="266" y1="38.94" x2="268.84" y2="32.83"/><line class="cls-4" x1="268.84" y1="38.96" x2="273.61" y2="32.96"/><line class="cls-4" x1="273.61" y1="38.75" x2="276.92" y2="33.96"/><line class="cls-4" x1="277.44" y1="38.58" x2="279.31" y2="35.2"/><line class="cls-4" x1="277.44" y1="38.58" x2="279.72" y2="41.64"/><line class="cls-4" x1="273.61" y1="38.75" x2="276.61" y2="43.64"/><line class="cls-4" x1="268.84" y1="38.96" x2="271.01" y2="42.85"/><line class="cls-4" x1="266" y1="38.94" x2="267.39" y2="43.36"/><line class="cls-4" x1="242.9" y1="39.47" x2="260.85" y2="39.47"/><line class="cls-4" x1="256.91" y1="39.24" x2="254.74" y2="33.44"/><line class="cls-4" x1="253.17" y1="39.24" x2="251.93" y2="33.36"/><line class="cls-4" x1="249.6" y1="39.24" x2="246.72" y2="35.52"/><line class="cls-4" x1="249.6" y1="39.24" x2="246.72" y2="43.43"/><line class="cls-4" x1="253.17" y1="39.24" x2="250" y2="44.1"/><line class="cls-4" x1="256.91" y1="39.24" x2="254.47" y2="43.43"/><line class="cls-4" x1="266.89" y1="33.3" x2="267.26" y2="33.38"/><path class="cls-5" d="M283.54,38.51a.69.69,0,0,0,0-.2h0s0,0,0,0a.75.75,0,0,0,0-.16l0-.07s0,0,0-.06a16.81,16.81,0,0,0-8.84-5.38A5,5,0,0,0,276.3,29a5.56,5.56,0,0,0-2-4.12,4.41,4.41,0,0,0,.33-1.53,5.35,5.35,0,0,0-2-4.17,6.49,6.49,0,0,0-3.26-1.38l0,0a7.35,7.35,0,0,0-11.55-1.09,3.34,3.34,0,0,0-1.5-.66A4.56,4.56,0,0,0,252,17.84a7.34,7.34,0,0,0-1.55,5.51,6.09,6.09,0,0,0-3,5.32,8.17,8.17,0,0,0,1.61,4.86,16.86,16.86,0,0,0-6.58,5.4.22.22,0,0,0-.05.08s0,0,0,0a.39.39,0,0,0,0,.18v0s0,0,0,0a.39.39,0,0,0,0,.18h0a10.6,10.6,0,0,0,5,5,26.94,26.94,0,0,1-7.88,1.2.56.56,0,1,0,0,1.11,30.53,30.53,0,0,0,9.73-1.7,17.83,17.83,0,0,1,5.2-1.08,7.61,7.61,0,0,1,5.3,1.82L260.94,47a.56.56,0,0,0,.39.17.57.57,0,0,0,.4-1v-8.8c-.26-.15-.14-.27,0-.27a1.45,1.45,0,0,1,.51.27v8a.39.39,0,0,0,.41.51c.28,0,.81-.51.81-.51V43.23a4.37,4.37,0,0,0,1.17,1.21.55.55,0,1,0,.57-.95c-1.37-.83-1.94-1.88-1.74-2.17V39.78l2.18-.12,1.22,3.87a.55.55,0,0,0,.53.38.5.5,0,0,0,.17,0,.56.56,0,0,0,.36-.7l-1.13-3.58,1.73-.07,2,3.58a.56.56,0,0,0,.48.29.57.57,0,0,0,.28-.08.56.56,0,0,0,.21-.75l-1.73-3.1,3.54-.16,2.5,4.08-.43.19a.55.55,0,0,0-.3.72.56.56,0,0,0,.51.35.54.54,0,0,0,.22,0c.36-.15.72-.31,1.06-.49h0a19.24,19.24,0,0,0,6.56-5.46.56.56,0,0,0,.05-.08Zm-16.72,0,2.41-5.19a5.13,5.13,0,0,1,1-.11,17.44,17.44,0,0,1,2.34.16l-4,5.06Zm-8.93-18.89a2.46,2.46,0,0,1,.44-.31A4.34,4.34,0,0,0,261.05,21a3.52,3.52,0,0,0,.56,0,5.41,5.41,0,0,0,3-1.08,8.54,8.54,0,0,1-1.9,2.51,2.21,2.21,0,0,1-1.65.66c-1.55-.06-3.12-1.5-3.63-2,0-.29.07-.58.12-.87A1.26,1.26,0,0,1,257.89,19.61Zm1.84-.46A2.4,2.4,0,0,1,261.86,18c.86,0,1.29.68,1.51,1.38a3.57,3.57,0,0,1-2.15.47A3,3,0,0,1,259.73,19.15Zm-2.37,3.35A6.54,6.54,0,0,0,261,24.19a3.28,3.28,0,0,0,2.47-1A8.09,8.09,0,0,0,266.11,19a2.76,2.76,0,0,1,1.52.71A1.58,1.58,0,0,1,268,21,7.91,7.91,0,0,1,264,26.25c-1.92.94-4,.71-6.22-.68A10.82,10.82,0,0,1,257.36,22.5Zm4.19,5.43a6.7,6.7,0,0,0,2.89-.67,8.93,8.93,0,0,0,4.65-6.12,7.36,7.36,0,0,1,2.6,5.95c0,2.41-.75,4.15-2.18,5h0a6.07,6.07,0,0,0-.83.16h0a9.17,9.17,0,0,0-1.42.49l-.21,0H267c-.05,0-5.05-.61-7.79-4.26a9.29,9.29,0,0,1-.82-1.31A7.72,7.72,0,0,0,261.55,27.93Zm12.28,5.65a15.21,15.21,0,0,1,2.22.66l-2.74,4-3.27.14Zm3.27,1.09c.52.24,1,.48,1.45.74L277.11,38l-2.4.1ZM279.5,36a16.14,16.14,0,0,1,2.28,1.83l-3.37.15Zm-4.32-7a3.88,3.88,0,0,1-2.07,3.35,18.35,18.35,0,0,0-1.88-.2,7.33,7.33,0,0,0,1.58-5,2.83,2.83,0,0,0,0-.29,5.31,5.31,0,0,0,.93-1A4.4,4.4,0,0,1,275.18,29Zm-1.68-5.68a3.38,3.38,0,0,1-.84,2.09,7.87,7.87,0,0,0-3.76-5.71,2.19,2.19,0,0,0-.44-.69l-.2-.2A6.06,6.06,0,0,1,271.89,20,4.24,4.24,0,0,1,273.5,23.28Zm-10.23-7.85a5.81,5.81,0,0,1,4.67,2.21,11.67,11.67,0,0,0-2.44.21h0l-.06,0,0,0h0a.21.21,0,0,0-.1.06l0,0c-.31.29-.61.54-.9.77a2.62,2.62,0,0,0-2.47-1.87A3.51,3.51,0,0,0,259,18.28a3.8,3.8,0,0,0-.42-.83A5.75,5.75,0,0,1,263.27,15.43ZM252.9,18.55a3.48,3.48,0,0,1,3.19-1.48,2.23,2.23,0,0,1,1.32.73h0a3.07,3.07,0,0,1,.35.51,4.39,4.39,0,0,0-.63.46,2.26,2.26,0,0,0-.6.95A9.64,9.64,0,0,0,254,21.94a11.19,11.19,0,0,0-2.48.83A6.2,6.2,0,0,1,252.9,18.55Zm-4.32,10.12a5.08,5.08,0,0,1,2.86-4.61,9,9,0,0,1,1.72-.74,7.35,7.35,0,0,0-.59,1.49c-.67,2.41-.18,5.1,1.45,8-.38,0-.77,0-1.18,0a9.53,9.53,0,0,0-2.65.39A7.18,7.18,0,0,1,248.58,28.67Zm9.57,14.9a9.7,9.7,0,0,0-2.76-.63l1.82-3.12h3.11v1.52a5.28,5.28,0,0,1-2.17,2.23Zm-7-.19,2.33-3.56h2.46l-1.8,3.09A13.48,13.48,0,0,0,251.15,43.38Zm-2.09.61-.15-.07a9.92,9.92,0,0,1-1.39-.65l2.37-3.45h2.26l-2.61,4,0,0Zm2.43-10.26,1,4.7h-2.62l-2.35-3A10.48,10.48,0,0,1,251.49,33.73Zm2.85,0,1.77,4.74h-2.48l-1-4.82h0A13.58,13.58,0,0,1,254.34,33.69Zm6,3.44v1.3h-3l-1.69-4.53a8.59,8.59,0,0,1,4.73,2.6ZM246.62,36l1.85,2.4h-4.36A17.41,17.41,0,0,1,246.62,36Zm-2.74,3.79h4.66l-2,2.86A9.92,9.92,0,0,1,243.88,39.82Zm15.43,4.29a6.5,6.5,0,0,0,1-.88v1.6A6.82,6.82,0,0,0,259.31,44.11Zm2.42-8.1a1.28,1.28,0,0,0-.48.09A9.87,9.87,0,0,0,255.42,33c-1.81-2.91-2.42-5.56-1.78-7.87a7.59,7.59,0,0,1,2.67-3.87,12.69,12.69,0,0,0,.4,4.76.29.29,0,0,0,0,.1,9.83,9.83,0,0,0,1.53,3.05,13,13,0,0,0,7.33,4.46,21.53,21.53,0,0,0-3.36,2.48A1.44,1.44,0,0,0,261.73,36Zm1.21,1.38v-.58a18.33,18.33,0,0,1,4.67-3.05l-2.23,4.79-2.44.11Zm11.64,1.88,2.59-.12L279,41.53a17.09,17.09,0,0,1-2.14,1.37Zm5.24,1.57-1.3-1.75,3.26-.15A19.18,19.18,0,0,1,279.82,40.84Z"/><path class="cls-5" d="M248.6,60.06c-3.27-4.22-8.93-3.13-9.17-3.09a.57.57,0,0,0-.44.66.56.56,0,0,0,.66.43s5.22-1,8.07,2.68a7.11,7.11,0,0,0,.84.9.55.55,0,0,0,.37.15.58.58,0,0,0,.42-.18.57.57,0,0,0,0-.79A7.19,7.19,0,0,1,248.6,60.06Z"/><path class="cls-5" d="M272.17,56.81l-.15-.15-7.24-7.24a.56.56,0,0,0-.8.77l7.26,7.25.15.16c.57.56,2.08,2,2.09,3.15a.93.93,0,0,1-.3.7,1.4,1.4,0,0,1-1,.44,2.75,2.75,0,0,1-1.63-.82c-.32-.33-.64-.61-.89-.84l-.26-.23L267,57.61l-.78.78,2.39,2.4.3.27c.52.46,1.72,1.53,1.75,2.33a.69.69,0,0,1-.24.54,1.05,1.05,0,0,1-.79.36,2.23,2.23,0,0,1-1.32-.79h0a7.23,7.23,0,0,0-.54-.62L264.93,60l-.78.79L267,63.66a2.94,2.94,0,0,1,.84,1.27,1,1,0,0,1-.34,1c-.54.54-1.36.15-1.63,0a3.3,3.3,0,0,0-.49-.64c-.67-.67-2.38-2.6-2.4-2.62a.56.56,0,0,0-.83.74c.08.08,1.76,2,2.45,2.67a1.77,1.77,0,0,1,.53,1,1,1,0,0,1-.31.93.58.58,0,0,1-.4.16c-.37,0-1.25-.27-2.92-2a.56.56,0,0,0-.89.13.56.56,0,0,0,.1.65c1.51,1.56,2.72,2.32,3.7,2.32h0a1.59,1.59,0,0,0,1.17-.48,2.09,2.09,0,0,0,.65-1.52,2.69,2.69,0,0,0,.57.07,2,2,0,0,0,1.46-.6,2.23,2.23,0,0,0,.7-1.46,2.37,2.37,0,0,0,.6.12h.1a2.15,2.15,0,0,0,1.54-.68,1.78,1.78,0,0,0,.55-1.35,2,2,0,0,0-.05-.42,2.12,2.12,0,0,0,.44.05h0a2.37,2.37,0,0,0,1.73-.76,2,2,0,0,0,.63-1.49C274.58,59.17,272.89,57.51,272.17,56.81Z"/><path class="cls-3" d="M260.55,63.27a2.09,2.09,0,0,0-.5.08,3,3,0,0,0,.33-1.29,2,2,0,0,0-.61-1.47,1.65,1.65,0,0,0-1.19-.5,2.28,2.28,0,0,0-.88.19,1.85,1.85,0,0,0-.65-1.34,2.13,2.13,0,0,0-2.75,0,.61.61,0,0,0,0-.14,1.54,1.54,0,0,0-.48-1.13,1.43,1.43,0,0,0-1-.4c-.92,0-1.78.87-2.48,1.57l-.13.13a10.91,10.91,0,0,0-1.56,1.93c-.82,1.39-.5,2.18-.08,2.6a1.49,1.49,0,0,0,1.07.46,1.62,1.62,0,0,0,.54-.1,1.85,1.85,0,0,0,.4,1.91,2,2,0,0,0,1.41.6,2.22,2.22,0,0,0,.61-.1,1.79,1.79,0,0,0,.5,1.59,1.75,1.75,0,0,0,1.27.54h0a2.91,2.91,0,0,0,1.6-.6,1.69,1.69,0,0,0,.34,1.54,1.33,1.33,0,0,0,1,.46h0c1.61,0,3.8-2.45,4.43-4,.45-1.12.17-1.72-.15-2A1.6,1.6,0,0,0,260.55,63.27Zm-11.28-.66c-.28-.28,0-.93.25-1.3a10,10,0,0,1,1.42-1.74l.14-.14c.47-.47,1.25-1.26,1.73-1.26a.31.31,0,0,1,.23.1.43.43,0,0,1,.14.35,5.13,5.13,0,0,1-1.65,2.66l-.19.2c-.44.45-1.24,1.27-1.77,1.27A.43.43,0,0,1,249.27,62.61Zm2,2.31c-.65-.65.56-2.45,2.05-3.94s2.4-1.92,3-1.4c.21.19.65.6-.18,1.64-.3.27-.6.56-.9.86a13.49,13.49,0,0,0-2.06,2.56C252.72,65,251.92,65.52,251.32,64.92ZM253.88,67c-.7-.69.58-2.6,2.16-4.18.23-.23.55-.55.89-.84,0,0,0,0,0,0h0a3.18,3.18,0,0,1,1.66-.92.56.56,0,0,1,.43.18,1,1,0,0,1,.3.71c0,1.09-1.52,2.58-2.16,3.22l-.16.16-.26.26c-.61.63-1.65,1.69-2.4,1.69A.69.69,0,0,1,253.88,67Zm7-1.76c-.6,1.5-2.55,3.41-3.48,3.41a.24.24,0,0,1-.21-.08c-.43-.49.28-1.84,1.73-3.29a3,3,0,0,1,1.71-1,.47.47,0,0,1,.36.15C261.09,64.51,261.09,64.81,260.9,65.28Z"/><path class="cls-3" d="M257.47,52.33c0-2.42,3.82-5.19,5.65-6.52.4-.29.71-.52.92-.69,1.26-1,3.91-1.67,7.08-1.67a9.75,9.75,0,0,1,5.74,2.08c1.59,1.19,6.6,1.21,7.15,1.21a.56.56,0,1,0,0-1.11H284c-2,0-5.47-.27-6.43-1a10.85,10.85,0,0,0-6.41-2.3c-3.48,0-6.31.7-7.79,1.92-.18.15-.5.38-.86.65-2.13,1.54-6.09,4.41-6.11,7.4,0,.31-.21,3,1,4.38a2.33,2.33,0,0,0,1.78.77,2,2,0,0,0,1.51-.59c.8-.84.73-2.33.67-3.53a5.47,5.47,0,0,1,0-1.24c.65-.84,2.06-2.08,3-2.08a.55.55,0,0,0,.56-.55.56.56,0,0,0-.56-.56c-1.59,0-3.35,1.81-3.89,2.5a3.24,3.24,0,0,0-.24,2c0,.94.11,2.22-.36,2.71a.86.86,0,0,1-.7.25,1.22,1.22,0,0,1-1-.41c-.78-.86-.79-2.86-.73-3.56Z"/><path class="cls-6" d="M186.77,38.38h-5.06V56.19h5.06c2.84,0,3.86-1,3.86-3.86v-8.8C190.63,42,190.25,38.38,186.77,38.38Z"/><path class="cls-7" d="M188.05,29.37h-9.54l0-1.59c0-3.93-.09-9.88-.16-12.58h-71c-.09,6.43-.17,32.33-.2,50.09a13.49,13.49,0,0,0,13.48,13.48H165a13.43,13.43,0,0,0,13.42-12.12l.14-1.45h9.48A11,11,0,0,0,199,54.26V40.31A11,11,0,0,0,188.05,29.37Zm5.79,23c0,4.63-2.44,7.08-7.07,7.08h-8.28V35.16h8.28c4.3,0,7.07,3.29,7.07,8.37Z"/><path class="cls-8" d="M188.05,26.16H181.7c0-4.53-.12-12-.26-12.86L181.2,12H104.4l-.24,1.32c-.16.88-.24,33-.28,52A16.72,16.72,0,0,0,120.58,82H165a16.63,16.63,0,0,0,16.41-13.58h6.63a14.17,14.17,0,0,0,14.16-14.15V40.31A14.17,14.17,0,0,0,188.05,26.16ZM199,54.26A11,11,0,0,1,188.05,65.2h-9.48l-.14,1.45A13.43,13.43,0,0,1,165,78.77H120.58A13.49,13.49,0,0,1,107.1,65.29c0-17.76.11-43.66.2-50.09h71c.07,2.71.14,8.65.16,12.58l0,1.59h9.54A11,11,0,0,1,199,40.31V54.26Z"/><path class="cls-8" d="M186.77,35.16h-8.28V59.41h8.28c4.63,0,7.07-2.45,7.07-7.08v-8.8C193.84,38.45,191.06,35.16,186.77,35.16Zm3.86,17.17c0,2.85-1,3.86-3.86,3.86h-5.06V38.38h5.06c3.48,0,3.86,3.6,3.86,5.15Z"/><path class="cls-8" d="M188.05,26.16H181.7c0-4.53-.12-12-.26-12.86L181.2,12H104.4l-.24,1.32c-.16.88-.24,33-.28,52A16.72,16.72,0,0,0,120.58,82H165a16.63,16.63,0,0,0,16.41-13.58h6.63a14.17,14.17,0,0,0,14.16-14.15V40.31A14.17,14.17,0,0,0,188.05,26.16ZM199,54.26A11,11,0,0,1,188.05,65.2h-9.48l-.14,1.45A13.43,13.43,0,0,1,165,78.77H120.58A13.49,13.49,0,0,1,107.1,65.29c0-17.76.11-43.66.2-50.09h71c.07,2.71.14,8.65.16,12.58l0,1.59h9.54A11,11,0,0,1,199,40.31V54.26Z"/><g class="cls-9"><path class="cls-8" d="M188.13,30.64c4.89,0,8.79,4.78,8.79,9.67V54.26a8.88,8.88,0,0,1-8.87,8.87h-9.48A2.07,2.07,0,0,0,176.51,65l-.14,1.45A11.37,11.37,0,0,1,165,76.7H120.58a11.42,11.42,0,0,1-11.41-11.4c0-18.11-1.87-50.1-1.87-50.1-.09,6.43-.17,32.33-.2,50.09a13.49,13.49,0,0,0,13.48,13.48H165a13.43,13.43,0,0,0,13.42-12.12l.14-1.45h9.48A11,11,0,0,0,199,54.26V40.31a11,11,0,0,0-10.94-10.94h-9.54A77.15,77.15,0,0,1,188.13,30.64Z"/></g><g id="_Group_" data-name="&lt;Group&gt;"><path class="cls-10" d="M138.84,52.63v.9h0v1.83h-4.38L132,49A12.35,12.35,0,0,1,138.84,52.63Z"/><path class="cls-11" d="M134.81,54.34l-2-5.17a11.64,11.64,0,0,1,5.49,3.14v2Z"/><path class="cls-10" d="M138.84,56.94V59.1a6.54,6.54,0,0,1-1.17,1.63s0,0,0,0-.2.21-.31.31a11.27,11.27,0,0,1-7,2.74l4-6.87Z"/><path class="cls-11" d="M134.65,56.94h3.68v1.52a6.36,6.36,0,0,1-1,1.36h0l-.09.09-.26.26a10.37,10.37,0,0,1-5.69,2.5Z"/><path class="cls-10" d="M132.5,56.94l-4.11,6.92a19.43,19.43,0,0,1-3.74-.45l4.29-6.47Z"/><path class="cls-11" d="M128.11,62.83a20.43,20.43,0,0,1-2.61-.29l3.72-5.6h2.38Z"/><path class="cls-10" d="M127,56.94,123,63l-.17-.07a11.88,11.88,0,0,1-2.46-1.09l3.41-4.9Z"/><path class="cls-11" d="M122.81,61.86a12.52,12.52,0,0,1-1.69-.7l2.94-4.22h2Z"/><path class="cls-10" d="M121.85,56.94,119,61a14.43,14.43,0,0,1-3.89-4.06Z"/><path class="cls-11" d="M118.9,59.76a13.94,13.94,0,0,1-2.8-2.82h4.76Z"/><path class="cls-10" d="M119.08,52l2.66,3.39h-6.28A25.22,25.22,0,0,1,119.08,52Z"/><path class="cls-11" d="M116.63,54.34A24.87,24.87,0,0,1,119,52.18l1.69,2.16Z"/><path class="cls-10" d="M126.09,48.7l1.44,6.66h-3.77L120.38,51A15.12,15.12,0,0,1,126.09,48.7Z"/><path class="cls-11" d="M124,54.34l-2.88-3.68a14.56,14.56,0,0,1,4.56-1.88l1.2,5.56Z"/><path class="cls-10" d="M130.19,48.66l2.55,6.7h-3.57l-1.48-6.82H128a20.83,20.83,0,0,1,2.16.12Z"/><path class="cls-11" d="M129.58,54.34l-1.25-5.81c.49,0,1,0,1.49.09L132,54.34Z"/><path class="cls-10" d="M169.69,54.15l-4.85.21,1.57-2.8A22.68,22.68,0,0,1,169.69,54.15Z"/><path class="cls-11" d="M166.58,51.78a22.66,22.66,0,0,1,1.83,1.39l-2.67.12Z"/><path class="cls-10" d="M165,55.94l4.7-.21a27.16,27.16,0,0,1-2.82,2.69Z"/><path class="cls-11" d="M166,55.89l2.45-.11c-.48.48-1,.94-1.49,1.38Z"/><path class="cls-10" d="M163.06,56l2.55,3.38a24.6,24.6,0,0,1-3.08,1.94l-3.21-5.16Z"/><path class="cls-11" d="M160.22,56.15l2.59-.12,2.07,2.75a23.73,23.73,0,0,1-2.17,1.36Z"/><path class="cls-10" d="M165,50.71,163,54.44l-3.45.16L163,49.67C163.7,50,164.4,50.35,165,50.71Z"/><path class="cls-11" d="M163.13,49.8c.44.21.84.4,1.21.6l-1.69,3-2.12.09Z"/><path class="cls-10" d="M161.44,49.05l-3.94,5.63-4.71.21,5.46-6.77A25,25,0,0,1,161.44,49.05Z"/><path class="cls-11" d="M158.45,48.18a20.79,20.79,0,0,1,2.18.62l-3.41,4.86-3.32.15Z"/><path class="cls-10" d="M157.5,56.26,161.09,62c-.09.05-.4.18-.45.2h0a21.18,21.18,0,0,1-4.25,1.27l-4-7,4.13-.18Z"/><path class="cls-11" d="M153.26,56.45l3.29-.14.67,0,3.12,5a22.32,22.32,0,0,1-3.69,1.13Z"/><path class="cls-10" d="M150.61,56.57l4.08,7.18a17.32,17.32,0,0,1-4.33-.06l-2.24-7,.73,0,3.55-.15Z"/><path class="cls-11" d="M152.73,62.83a16.07,16.07,0,0,1-2-.12l-1.93-6.07,1.49-.06,3.53,6.22Q153.29,62.83,152.73,62.83Z"/><path class="cls-10" d="M156.45,47.81,150.66,55l-2.51.12,3.47-7.36a7.59,7.59,0,0,1,1.47-.16A25.58,25.58,0,0,1,156.45,47.81Z"/><path class="cls-11" d="M152,47.68a6.81,6.81,0,0,1,1.12-.1c.78,0,1.56,0,2.38.12L150.41,54,149,54Z"/><path class="cls-10" d="M149.55,48.38l-3.21,6.8-3.51.15V52.7A26.7,26.7,0,0,1,149.55,48.38Z"/><path class="cls-11" d="M143.35,52.42a28.51,28.51,0,0,1,5.13-3.5L146,54.16l-2.66.12Z"/><path class="cls-10" d="M146.46,56.75l2.09,6.56a11.28,11.28,0,0,1-2.87-1.25h0l-.48-.33h0a3.44,3.44,0,0,1-.36-.28l-.13-.1c-.11-.1-.22-.18-.32-.28h0a7,7,0,0,1-1.55-2V56.91Z"/><path class="cls-11" d="M147.76,62a10.85,10.85,0,0,1-1.81-.87l-.27-.18-.32-.23h0l-.21-.16-.12-.09-.09-.09-.2-.17a6.66,6.66,0,0,1-1.39-1.75V56.89l2.74-.12Z"/><path class="cls-12" d="M141.23,69.17v2a.4.4,0,0,1-.79,0V53.53a.4.4,0,0,1,.79,0V69.17Z"/><path class="cls-13" d="M158.09,37.13a6.22,6.22,0,0,1,2.1,4.44,5.5,5.5,0,0,1-3,4.75A25.59,25.59,0,0,0,154.5,46c1.23-1.39,2.27-3.6,2.27-7.13,0-.14,0-.27,0-.4A7.58,7.58,0,0,0,158.09,37.13Z"/><path class="cls-13" d="M150.77,46.32a13.05,13.05,0,0,0-2.05.7l-.29-.07h-.09c-.07,0-7.27-.87-11.21-6A11.94,11.94,0,0,1,136,39a11.15,11.15,0,0,0,4.62,1.07,9.59,9.59,0,0,0,4.15-1c4-1.91,6.44-6.22,6.7-8.68a10.4,10.4,0,0,1,3.74,8.45c0,3.41-1.08,5.88-3.12,7.14h0a12.1,12.1,0,0,0-1.2.23Z"/><path class="cls-13" d="M149.32,28.46a2.21,2.21,0,0,1,.53,1.77C149.69,32,147.61,36,144,37.74c-2.77,1.32-5.78,1-8.94-1a15.67,15.67,0,0,1-.55-4.37A13.86,13.86,0,0,0,136.86,34a7.31,7.31,0,0,0,3,.84,4.82,4.82,0,0,0,3.56-1.36c2.72-2.58,3.52-4.81,3.75-6A3.88,3.88,0,0,1,149.32,28.46Z"/><path class="cls-13" d="M155.45,28.85a6,6,0,0,1,2.32,4.65,4.84,4.84,0,0,1-1.2,3,11.2,11.2,0,0,0-5.42-8.1,3.5,3.5,0,0,0-.64-1,2.37,2.37,0,0,0-.28-.27A8.72,8.72,0,0,1,155.45,28.85Z"/><path class="cls-13" d="M149.77,25.52a16.5,16.5,0,0,0-3.52.29l-.05,0-.09,0,0,0,0,0-.14.07s0,0,0,0a11.29,11.29,0,0,1-1.29,1.1A3.76,3.76,0,0,0,141,24.45a5,5,0,0,0-4.15,2,6,6,0,0,0-.61-1.18,9.12,9.12,0,0,1,13.52.28Z"/><path class="cls-13" d="M141,26A2.36,2.36,0,0,1,143.19,28a5.09,5.09,0,0,1-3.09.66,4.25,4.25,0,0,1-2.16-1A3.49,3.49,0,0,1,141,26Z"/><path class="cls-13" d="M145,28.74a12.17,12.17,0,0,1-2.73,3.55,3.18,3.18,0,0,1-2.39.93c-2.21-.07-4.48-2.11-5.21-2.83.05-.41.1-.82.17-1.23a1.9,1.9,0,0,1,.45-.85,6.37,6.37,0,0,1,.63-.45,6.3,6.3,0,0,0,3.93,2.35,5.51,5.51,0,0,0,.81.05A7.77,7.77,0,0,0,145,28.74Z"/><path class="cls-13" d="M134.64,25.76a3.91,3.91,0,0,1,.5.73,5.8,5.8,0,0,0-.91.64,3.2,3.2,0,0,0-.85,1.35,13.4,13.4,0,0,0-3.62,3.13,17,17,0,0,0-3.57,1.17,8.65,8.65,0,0,1,1.93-6,5,5,0,0,1,4.59-2.1,3.26,3.26,0,0,1,1.9,1S134.62,25.75,134.64,25.76Z"/><path class="cls-13" d="M129.73,47c-.54,0-1.12-.07-1.7-.07a13.92,13.92,0,0,0-3.81.55,10,10,0,0,1-2.32-6.35A7.2,7.2,0,0,1,126,34.62a14.28,14.28,0,0,1,2.48-1.06,11,11,0,0,0-.85,2.13C126.68,39.1,127.39,42.91,129.73,47Z"/><path class="cls-13" d="M146.4,48.18a30.94,30.94,0,0,0-4.84,3.52,2.11,2.11,0,0,0-.73-.14,2,2,0,0,0-.69.13,14.29,14.29,0,0,0-8.39-4.4c-2.62-4.13-3.48-7.89-2.57-11.16A10.69,10.69,0,0,1,133,30.64a17.48,17.48,0,0,0,.57,6.75.74.74,0,0,0,0,.14,13.81,13.81,0,0,0,2.21,4.32C139,46,143.82,47.58,146.4,48.18Z"/><path class="cls-14" d="M146.46,56.75l-3.63.16v2.18a7,7,0,0,0,1.55,2h0c.1.1.21.18.32.28l.13.1a3.44,3.44,0,0,0,.36.28h0l.48.33h0a11.28,11.28,0,0,0,2.87,1.25Zm-26.08,5.09a11.88,11.88,0,0,0,2.46,1.09L123,63l4-6.06h-3.24Zm27.74-5.17,2.24,7a17.32,17.32,0,0,0,4.33.06l-4.08-7.18,1.79-.08,4,7a21.18,21.18,0,0,0,4.25-1.27h0c.05,0,.36-.15.45-.2l-3.59-5.78-1,.05-4.13.18-3.55.15Zm-23.47,6.74a19.43,19.43,0,0,0,3.74.45l4.11-6.92h-3.56Zm5.68.4a11.27,11.27,0,0,0,7-2.74c.11-.1.22-.21.31-.31s0,0,0,0a6.54,6.54,0,0,0,1.17-1.63V56.94h-4.48Zm9.81-12.12a2,2,0,0,1,.69-.13,2.11,2.11,0,0,1,.73.14,30.94,30.94,0,0,1,4.84-3.52c-2.58-.6-7.4-2.21-10.55-6.33a13.81,13.81,0,0,1-2.21-4.32.74.74,0,0,1,0-.14,17.48,17.48,0,0,1-.57-6.75,10.69,10.69,0,0,0-3.85,5.49c-.91,3.27-.05,7,2.57,11.16A14.29,14.29,0,0,1,140.14,51.69Zm-1.3,10.12c-1,.67-2.73,3.41-10.17,3.43-9,0-12.8-4.65-13.93-6.08a12.12,12.12,0,0,1-1.68-2.7h0a1.28,1.28,0,0,1,0-.27v0a1.28,1.28,0,0,1,0-.27l0,0a.67.67,0,0,1,.06-.12,24.35,24.35,0,0,1,9.48-7.65,11.47,11.47,0,0,1-2.32-6.9,8.59,8.59,0,0,1,4.35-7.53,10.35,10.35,0,0,1,2.22-7.82A6.64,6.64,0,0,1,133,23.14a4.92,4.92,0,0,1,2.15.94,10.09,10.09,0,0,1,7.91-3.28,9.92,9.92,0,0,1,8.72,4.83s0,0,0,.05a9.5,9.5,0,0,1,4.7,2,7.56,7.56,0,0,1,2.88,5.92,6.21,6.21,0,0,1-.47,2.17,7.8,7.8,0,0,1,2.89,5.84,6.93,6.93,0,0,1-2.43,5.17,24.35,24.35,0,0,1,12.73,7.63.2.2,0,0,1,0,.09.47.47,0,0,1,.05.1.55.55,0,0,1,.06.22s0,0,0,0h0v0a1,1,0,0,1,0,.24s0,0,0,.08l-.06.12a26.24,26.24,0,0,1-9.45,7.74c-2.75,1.39-12.88,5.44-19.84-1.27v9.39a2,2,0,0,1-2,2,1.93,1.93,0,0,1-1.4-.59,2,2,0,0,1-.59-1.41Zm30.85-6.08-4.7.21,1.88,2.48A27.16,27.16,0,0,0,169.69,55.73Zm-4.85-1.37,4.85-.21a22.68,22.68,0,0,0-3.28-2.59Zm.77,5L163.06,56l-3.74.16,3.21,5.16A24.6,24.6,0,0,0,165.61,59.4Zm-2.65-5L165,50.71c-.64-.36-1.34-.7-2.09-1l-3.44,4.93Zm-5.46.24,3.94-5.63a25,25,0,0,0-3.19-.93l-5.46,6.77Zm2.69-13.11a6.22,6.22,0,0,0-2.1-4.44,7.58,7.58,0,0,1-1.34,1.38c0,.13,0,.26,0,.4,0,3.53-1,5.74-2.27,7.13a25.59,25.59,0,0,1,2.71.28A5.5,5.5,0,0,0,160.19,41.57Zm-2.42-8.07a6,6,0,0,0-2.32-4.65,8.72,8.72,0,0,0-5.22-1.73,2.37,2.37,0,0,1,.28.27,3.5,3.5,0,0,1,.64,1,11.2,11.2,0,0,1,5.42,8.1A4.84,4.84,0,0,0,157.77,33.5ZM150.66,55l5.79-7.17a25.58,25.58,0,0,0-3.36-.23,7.59,7.59,0,0,0-1.47.16l-3.47,7.36ZM152,46.06c2-1.26,3.12-3.73,3.12-7.14a10.4,10.4,0,0,0-3.74-8.45c-.26,2.46-2.7,6.77-6.7,8.68a9.59,9.59,0,0,1-4.15,1A11.15,11.15,0,0,1,136,39a11.94,11.94,0,0,0,1.18,1.86c3.94,5.17,11.14,6,11.21,6h.09l.29.07a13.05,13.05,0,0,1,2.05-.7l.06,0a12.1,12.1,0,0,1,1.2-.23Zm-2.19-15.83a2.21,2.21,0,0,0-.53-1.77,3.88,3.88,0,0,0-2.19-1c-.23,1.18-1,3.41-3.75,6a4.82,4.82,0,0,1-3.56,1.36,7.31,7.31,0,0,1-3-.84,13.86,13.86,0,0,1-2.33-1.56,15.67,15.67,0,0,0,.55,4.37c3.16,2,6.17,2.29,8.94,1C147.61,36,149.69,32,149.85,30.23Zm-3.6-4.42a16.5,16.5,0,0,1,3.52-.29,9.12,9.12,0,0,0-13.52-.28,6,6,0,0,1,.61,1.18,5,5,0,0,1,4.15-2,3.76,3.76,0,0,1,3.56,2.65,11.29,11.29,0,0,0,1.29-1.1s0,0,0,0l.14-.07,0,0,0,0,.09,0Zm.09,29.37,3.21-6.8a26.7,26.7,0,0,0-6.72,4.32v2.63Zm-4.07-22.89A12.17,12.17,0,0,0,145,28.74a7.77,7.77,0,0,1-4.34,1.52,5.51,5.51,0,0,1-.81-.05,6.3,6.3,0,0,1-3.93-2.35,6.37,6.37,0,0,0-.63.45,1.9,1.9,0,0,0-.45.85c-.07.41-.12.82-.17,1.23.73.72,3,2.76,5.21,2.83A3.18,3.18,0,0,0,142.27,32.29Zm.92-4.31A2.36,2.36,0,0,0,141,26a3.49,3.49,0,0,0-3.07,1.62,4.25,4.25,0,0,0,2.16,1A5.09,5.09,0,0,0,143.19,28Zm-2,43.19V53.53a.4.4,0,0,0-.79,0V71.17a.4.4,0,0,0,.79,0Zm-2.39-17.64v-.9A12.35,12.35,0,0,0,132,49l2.43,6.41h4.38V53.53Zm-3.7-27a3.91,3.91,0,0,0-.5-.73s0,0,0,0a3.26,3.26,0,0,0-1.9-1,5,5,0,0,0-4.59,2.1,8.65,8.65,0,0,0-1.93,6,17,17,0,0,1,3.57-1.17,13.4,13.4,0,0,1,3.62-3.13,3.2,3.2,0,0,1,.85-1.35A5.8,5.8,0,0,1,135.14,26.49Zm-2.4,28.87-2.55-6.7h0a20.83,20.83,0,0,0-2.16-.12h-.34l1.48,6.82ZM128,47c.58,0,1.16,0,1.7.07-2.34-4.11-3-7.92-2.09-11.33a11,11,0,0,1,.85-2.13A14.28,14.28,0,0,0,126,34.62a7.2,7.2,0,0,0-4.11,6.53,10,10,0,0,0,2.32,6.35A13.92,13.92,0,0,1,128,47Zm-.5,8.41-1.44-6.66A15.12,15.12,0,0,0,120.38,51l3.38,4.32ZM119,61l2.83-4.06h-6.72A14.43,14.43,0,0,0,119,61Zm2.72-5.64L119.08,52h0a25.22,25.22,0,0,0-3.62,3.39Z"/><path class="cls-15" d="M157,44.22l-.64-.08a12.68,12.68,0,0,0,1.43-6.2l.31-.3a4.78,4.78,0,0,1,1,2.9A4.43,4.43,0,0,1,157,44.22Z"/><path class="cls-15" d="M148.55,44.89h-.13s-6.18-.75-9.94-5a10.57,10.57,0,0,0,6.69-.84A14.2,14.2,0,0,0,152,31.42a9.87,9.87,0,0,1,2.16,6.47c0,2-.43,4.72-2.41,6.12l-.72.17-.42.1-.19,0h0a14.21,14.21,0,0,0-1.71.56Z"/><path class="cls-15" d="M140.58,36.48A9.26,9.26,0,0,1,136,35.07a12,12,0,0,1-.29-1.63c.24.14.49.28.73.4a8,8,0,0,0,3.38,1H140a5.83,5.83,0,0,0,4.1-1.65,13.87,13.87,0,0,0,3.76-5.49,2,2,0,0,1,.72.46,1.17,1.17,0,0,1,.25,1c-.13,1.51-2,5.14-5.24,6.67A7,7,0,0,1,140.58,36.48Z"/><path class="cls-15" d="M156.74,32.33a12.32,12.32,0,0,0-3.13-4.47,5.33,5.33,0,0,1,1.17.75A5,5,0,0,1,156.74,32.33Z"/><path class="cls-15" d="M144.89,24.48a4.63,4.63,0,0,0-3.11-2,12.63,12.63,0,0,1,1.27-.07,7.49,7.49,0,0,1,4.21,1.21c-.53.06-.91.13-1.11.17H146l-.14.07-.21.06,0,0-.28.1-.07.13-.05,0-.07.07Z"/><path class="cls-15" d="M140.65,26.63a2.6,2.6,0,0,1-.4,0,2.88,2.88,0,0,1-.7-.18A2.66,2.66,0,0,1,141,26a.9.9,0,0,1,.79.4A3.76,3.76,0,0,1,140.65,26.63Z"/><path class="cls-15" d="M139.92,31.17a7.65,7.65,0,0,1-4.17-2.2c0-.22.07-.44.1-.67v0a7.11,7.11,0,0,0,3.85,1.92,6.91,6.91,0,0,0,.95.06,7.23,7.23,0,0,0,1.3-.12l-.39.38a2.19,2.19,0,0,1-1.56.65Z"/><path class="cls-15" d="M127.28,30.21a7.42,7.42,0,0,1,1.63-3.78,4.33,4.33,0,0,1,3.19-1.78,2.12,2.12,0,0,1,.44,0,2.24,2.24,0,0,1,1.13.53l-.12.1a4,4,0,0,0-1,1.43,14.45,14.45,0,0,0-3.35,2.91A16.53,16.53,0,0,0,127.28,30.21Z"/><path class="cls-15" d="M124.63,45.3a8.84,8.84,0,0,1-1.7-5.18,6.15,6.15,0,0,1,3.58-5.63l.13-.07c-.89,3.22-.44,6.73,1.35,10.48A14.9,14.9,0,0,0,124.63,45.3Z"/><path class="cls-15" d="M141.29,49.54a3.44,3.44,0,0,0-.46,0,1.94,1.94,0,0,0-.34,0,15.67,15.67,0,0,0-8.11-4.19c-2.27-3.73-3-7.08-2.21-10a8.77,8.77,0,0,1,1.74-3.28,17.44,17.44,0,0,0,.69,4.52,1,1,0,0,0,.08.24A14.69,14.69,0,0,0,135,41.45a18.56,18.56,0,0,0,8.88,6.06C142.74,48.33,141.82,49.09,141.29,49.54Z"/></g><path class="cls-1" d="M3,20,0,21.18,4,40l3.13-.65ZM85.6,20l3,1.19L84.59,40l-3.13-.65ZM44.31,80.34H69.7V77.18H18.93v3.16Zm0-59.07A13.48,13.48,0,0,0,57.69,9.56a87.19,87.19,0,0,1-13.38,1,87.19,87.19,0,0,1-13.38-1,13.31,13.31,0,0,0,3.85,7.78A13.46,13.46,0,0,0,44.31,21.27Zm0,53.12H69.7V36.92l9,1.87L83,19,60.45,9.89a16.06,16.06,0,0,1-4.66,9.43A16.28,16.28,0,0,1,28.16,9.89L5.64,19,9.91,38.79l9-1.87V74.39Z"/><path class="cls-16" d="M59.71,52.17c-.25.13-.51.24-.75.38-1.17.69-2.34,1.39-3.52,2.07s-2.59,1.5-3.88,2.25L47.24,59.4l-3.31,1.91-3.14,1.84L38,64.74c-.92.54-1.84,1.1-2.77,1.64-1.18.69-2.37,1.36-3.55,2.06s-1.64,1-2.93,1.73l-2.92-7.58c.16-.07,3.72-2.07,4.45-2.5L33,58.54l2-1.17,2-1.17,2.44-1.42c.33-.19.63-.42,1-.61.5-.3,1-.58,1.52-.87l2.2-1.24c.44-.26.85-.56,1.29-.81s1-.56,1.51-.85.91-.56,1.37-.82.86-.47,1.29-.71c.26-.15.5-.31.75-.47L53,46.83,56.17,45l.67-.39c.66-.39,6.57,1.13,6.57,1.13ZM34.6,63.27l-2.2-1.33a1.76,1.76,0,0,0-1-.35c-.27,0-.33.09-.22.33s.3.6.47.89c.43.78.86,1.56,1.3,2.33a.6.6,0,0,0,.56.34,2.27,2.27,0,0,0-.11-.51c-.38-.79-.78-1.56-1.17-2.34a2.9,2.9,0,0,1-.12-.28.55.55,0,0,1,.18.07c.92.55,1.84,1.12,2.76,1.66a2.37,2.37,0,0,0,.58.21c.09,0,.2-.06.29-.09L35.79,64l0-.07c-.57-1-1.12-2-1.71-3a3.62,3.62,0,0,0-.6-.64s-.17,0-.26,0a.67.67,0,0,0,0,.24,4.3,4.3,0,0,0,.27.62c.41.7.83,1.39,1.25,2.09Zm-5,3.42c0-.19,0-.45,0-.71,0-.07,0-.18.09-.2.43-.21.87-.37,1.29-.6.22-.13.34-.07.49.1a5.52,5.52,0,0,0,.65.63.87.87,0,0,0,.51.1c.16,0,.19-.15.07-.28-.28-.27-.58-.53-.83-.82a3.26,3.26,0,0,0-.53-.52c-.32-.24-.58-.57-.89-.83a3.35,3.35,0,0,0-1.21-.88c-.19,0-.28,0-.35.13a.54.54,0,0,0-.05.28c0,.78.05,1.57.09,2.36s.1,1.35.15,2c0,.2,0,.39.3.42s.25-.18.25-.47Zm13.43-12,0,.06c-.26,0-.32.08-.25.39.25,1.13.49,2.26.75,3.39a5,5,0,0,0,.28.82c0,.06.15.1.23.1s.09-.11.1-.18a.88.88,0,0,0,0-.28c-.05-.34-.12-.68-.16-1a.26.26,0,0,1,.08-.2l1-.56c.32-.2.31-.21.61,0a1.12,1.12,0,0,1,.24.19c.17.2.41.17.62.2a.16.16,0,0,0,.1-.3c-.95-.75-1.89-1.5-2.85-2.24A5.9,5.9,0,0,0,43.08,54.69Zm-.77,2.81a.91.91,0,0,0-.87.1c-.27.21-.58.39-.87.59-.09.06-.16.08-.23,0L39.73,57c1.65-.9,2.28-1.32,2.35-1.59a.67.67,0,0,0-.67.06c-.7.45-1.39.93-2.09,1.38-.15.1-.17.19-.08.33.3.52.59,1,.9,1.56l1,1.73a.35.35,0,0,0,.55.16c-.06-.13-.11-.27-.18-.39l-.78-1.41a.18.18,0,0,1,.07-.29c.34-.21.68-.44,1-.67C42,57.78,42.12,57.65,42.31,57.5Zm12.07-9.21,0-.06-.19,0a1.41,1.41,0,0,0-1.29,1.19.7.7,0,0,0,.71.86,3.81,3.81,0,0,0,.67-.07,4,4,0,0,1,.48-.08A1.27,1.27,0,0,1,56,51.39a1.4,1.4,0,0,1-.73,1.2l-.46.25s-.08.09-.11.14.06.08.09.08a1.7,1.7,0,0,0,.56-.05,2.29,2.29,0,0,0,1-.82,1.61,1.61,0,0,0,.26-1.25,1.48,1.48,0,0,0-.79-.91A2.3,2.3,0,0,0,54,49.88c-.31.09-.51-.05-.49-.37a1.28,1.28,0,0,1,.54-1Zm-7.19,9.05,0,.11a3.87,3.87,0,0,0,.48,0,1.78,1.78,0,0,0,1-.48,1.27,1.27,0,0,0,.37-1.63,1.78,1.78,0,0,0-1.94-.95,7.62,7.62,0,0,0-.81.14.53.53,0,0,1-.67-.42.92.92,0,0,1,.32-1l.37-.27-.2-.05a1,1,0,0,0-1,.73.91.91,0,0,0,.78,1.28A4.47,4.47,0,0,0,47,54.72a1.38,1.38,0,0,1,1.49.63.94.94,0,0,1,.05,1,1.62,1.62,0,0,1-1,.78A2.16,2.16,0,0,0,47.19,57.34ZM37.13,58.48a.89.89,0,0,0-.75,0l-1.88,1a4.23,4.23,0,0,0-.4.24s-.06.1-.06.15.09.07.13.06a3.33,3.33,0,0,0,.55-.1,2.91,2.91,0,0,0,.42-.23l.19.34c.61.93,1.22,1.87,1.81,2.81a.52.52,0,0,0,.45.23s.14-.13.15-.2-.05-.14-.09-.21c-.46-.75-.92-1.5-1.39-2.25l-.62-1A11.52,11.52,0,0,0,37.13,58.48ZM56.35,47.24l.63,1c.08.13.2.24.28.37.4.64.79,1.28,1.2,1.91,0,.07.21.07.31.1s.08-.2,0-.26c-.31-.57-.62-1.15-1-1.69S57.07,47.6,56.67,47c.31-.19.67-.41,1-.64l.58-.41a.75.75,0,0,0-.76,0l-1.72,1a7.76,7.76,0,0,0-.67.5c-.06,0-.08.14-.13.22C55.61,47.9,55.91,47.36,56.35,47.24ZM49.93,51.1a.69.69,0,0,0-.71.1,2.3,2.3,0,0,0-.51.66,2.21,2.21,0,0,0,.19,2.26,1.88,1.88,0,0,0,1.61,1,3,3,0,0,0,1.85-.68,1,1,0,0,0,.14-.2c-.25-.07-.3,0-.55.1s-.64.34-1,.48a1.11,1.11,0,0,1-1.23-.28,2.43,2.43,0,0,1-.77-2,1.5,1.5,0,0,1,.8-1.29A1.8,1.8,0,0,0,49.93,51.1ZM37.76,58c-.23,0-.31.13-.24.32a1.45,1.45,0,0,0,.18.32c.29.44.59.87.88,1.3s.74,1.06,1.1,1.6c.14.22.35.18.55.18s.18-.16.1-.28l-1-1.49c-.38-.55-.75-1.11-1.14-1.65A1.87,1.87,0,0,0,37.76,58Zm13.67-7.79c-.25,0-.33.14-.24.34a1,1,0,0,0,.08.14l1.42,2a8.37,8.37,0,0,0,.68.89c.07.08.23.08.34.12a.75.75,0,0,0-.05-.31c-.33-.54-.67-1.07-1-1.6s-.5-.83-.78-1.22A1.91,1.91,0,0,0,51.43,50.16Z"/><path class="cls-16" d="M27.17,42.63l1.41-.76c.81-.47,1.61-.94,2.43-1.4s1.6-.91,2.39-1.38c1-.57,2-1.17,2.94-1.74.74-.43,1.51-.83,2.27-1.25L40.55,35l.75-.44,3.26-1.87,3.5-2a2.55,2.55,0,0,1,.43-.23,1.55,1.55,0,0,1,.56-.11c.7,0,1.4.11,2.09.17l3.28.25,1,.1c-.12.32-.23.61-.35.89-.32.75-.65,1.48-1,2.23s-.67,1.51-1,2.27a1.75,1.75,0,0,1-.87.87l-3.07,1.73-2.83,1.6L43.58,42l-2.7,1.55a.9.9,0,0,0-.2.19l-.65.36a2.82,2.82,0,0,0-.48.19L35,46.85l-5,2.87Zm12.37-.57L39.4,42c-.8-.81-1.59-1.63-2.4-2.43-.22-.22-.4-.51-.75-.53a1,1,0,0,0-.25,0,1,1,0,0,0,.09.26c.12.14.26.26.38.39L38.66,42a6.47,6.47,0,0,0,.75.73.61.61,0,0,0,.46.08c.09,0,.16-.22.18-.34a3.52,3.52,0,0,0,0-.65c0-.28,0-.56-.05-.89a4.47,4.47,0,0,1,.5.28,1.48,1.48,0,0,0,.91.44.4.4,0,0,0,.46-.46c0-.19-.07-.38-.11-.56-.31-1.21-.61-2.42-.92-3.62a3.29,3.29,0,0,0-.16-.44.46.46,0,0,0-.48-.2c-.18.07-.18.22-.15.37a3.4,3.4,0,0,0,.08.46c.23,1,.47,1.89.7,2.84.08.29.15.57.22.86L41,41a6.57,6.57,0,0,0-.62-.4,4.75,4.75,0,0,0-.81-.33c-.18-.05-.28.08-.26.26s0,.42.08.63S39.49,41.71,39.54,42.06Zm-10.11.55c.08,1.21.16,2.38.25,3.55,0,.56.13,1.13.17,1.69,0,.3.23.25.39.27s.22-.12.22-.27a1.47,1.47,0,0,0,0-.21c0-.4,0-.81,0-1.21a.24.24,0,0,1,.16-.27c.42-.19.83-.41,1.24-.61.59-.29.58-.28,1.06.17.24.24.43.58.85.53a2.08,2.08,0,0,0,.32-.12.9.9,0,0,0-.12-.24l-1.52-1.52c-.63-.61-1.28-1.21-1.92-1.81-.1-.1-.26-.16-.35-.27a.44.44,0,0,0-.51-.17c-.2.05-.22.24-.21.42Zm14.31-1.8c.26,0,.26-.11.23-.25-.09-.48-.19-1-.29-1.44,0-.07,0-.19,0-.21a5.59,5.59,0,0,1,.66-.41,8.17,8.17,0,0,1,.79-.38.26.26,0,0,1,.23,0c.23.18.45.37.66.56a.77.77,0,0,0,.55.3,1,1,0,0,0,.23,0c0-.07,0-.17-.08-.22s-.33-.32-.5-.48l-1.68-1.59c-.38-.34-.78-.66-1.14-1a1.81,1.81,0,0,0-.89-.53c-.24,0-.31,0-.3.2a5.26,5.26,0,0,0,.13,1c.22.92.46,1.84.7,2.76.13.52.29,1,.43,1.54C43.53,40.75,43.58,40.86,43.74,40.81Zm-8.57,4.12a1.94,1.94,0,0,0-.1-.17c-.31-.57-.6-1.14-.93-1.7s-.78-1.31-1.16-2a.68.68,0,0,0-.54-.4c-.27,0-.38.09-.27.34a3.48,3.48,0,0,0,.22.43c.27.46.54.93.83,1.38.48.77,1,1.53,1.47,2.3a.48.48,0,0,0,.54.22,1.22,1.22,0,0,0,.38-.13c.89-.56,1.78-1.14,2.67-1.72a1.34,1.34,0,0,0,.23-.24.86.86,0,0,0-.84,0L36,44.4ZM46.82,35l-1.23-.55c-.3-.13-.61-.26-.93-.37-.08,0-.2,0-.3.07s.09.2.17.25c.31.17.63.34,1,.48s.82.28,1.23.43a.32.32,0,0,1,.15.19c.07.49.12,1,.19,1.49s.16,1,.24,1.47a.28.28,0,0,0,.35.22c.09,0,.19-.17.22-.28a1.19,1.19,0,0,0,0-.42c-.21-1.59-.43-3.18-.65-4.77a.63.63,0,0,0-.1-.28,1.46,1.46,0,0,0-.28-.21c-.07.1-.18.2-.2.3a2.94,2.94,0,0,0,0,.59C46.71,34,46.76,34.45,46.82,35Zm3-3.5v-.08c-.13,0-.26,0-.38,0a1.59,1.59,0,0,0-1.21,1A1.06,1.06,0,0,0,49.11,34c.35,0,.71,0,1.07,0a1.25,1.25,0,0,1,1.23,1.22,1.51,1.51,0,0,1-.95,1.41c-.18.09-.39.12-.57.2s-.14.12-.2.19a.8.8,0,0,0,.23.11,2.06,2.06,0,0,0,1.92-1,1.36,1.36,0,0,0,.1-1.45,1.72,1.72,0,0,0-1.49-.95c-.35,0-.71,0-1.07,0a.73.73,0,0,1-.8-.82,1.74,1.74,0,0,1,1-1.39Z"/><path class="cls-17" d="M33.73,74.39c.08-.37.14-.74.23-1.11a24.7,24.7,0,0,1,2.13-5.65,9.11,9.11,0,0,1,.66-1.18,3.09,3.09,0,0,1,.77-.76c1-.71,2.12-1.41,3.2-2.07.65-.4,1.34-.74,2-1.11a.83.83,0,0,0,.28-.28,1.12,1.12,0,0,1,1-.57,2.12,2.12,0,0,0,.69-.17c1.08-.47,2.14-1,3.24-1.43.87-.35,1.79-.61,2.69-.89.44-.14.7.14.63.6a6.26,6.26,0,0,1-1,2.34c-.68,1.09-1.37,2.18-2,3.3-.41.74-.72,1.54-1.08,2.32a4,4,0,0,0-.28.54c-.29,1.08-.58,2.16-.85,3.25A7,7,0,0,0,46,74.39Zm13-12.47-.07.07c-.5.2-1,.38-1.5.6a1.54,1.54,0,0,0-.52.35,2.41,2.41,0,0,1-1.75.73,1.81,1.81,0,0,0-1.14.52.67.67,0,0,1-.18.11c0-.07-.05-.17,0-.22.32-.45.55-1,1.16-1.15.07,0,.11-.11.16-.17l-.08-.1-.74.42a35.12,35.12,0,0,0-4.33,2.69,8.28,8.28,0,0,0-.75.7.25.25,0,0,0,0,.21.2.2,0,0,0,.17.06,7.51,7.51,0,0,0,1-.21c.79-.28,1.58-.57,2.36-.89,1-.44,2.06-.9,3.08-1.38.62-.3,1.22-.63,1.82-1,.87-.48,1.75-.94,2.59-1.46s1.53-1,2.29-1.52a2.73,2.73,0,0,0,.57-.5.63.63,0,0,0,.08-.39.52.52,0,0,0-.28-.06,4.29,4.29,0,0,0-.71.16c-1,.37-2,.74-3,1.14-.74.31-1.46.68-2.19,1-.19.09-.17.19,0,.29A.29.29,0,0,0,45,62a2.93,2.93,0,0,1,1.34-.27A.67.67,0,0,1,46.76,61.92ZM35.59,73.71s-.08,0-.08,0a1,1,0,0,0,.07.4s.25,0,.33,0a6,6,0,0,0,.55-.45c.31.15.53.07.69-.29a1.51,1.51,0,0,0-.28.15c-.18.13-.28.1-.35-.11a1.4,1.4,0,0,0-.09-.17l0,0v.3c-.15.1-.26.2-.38.27a2.75,2.75,0,0,1-.3.14Zm2.13-5.61a1.19,1.19,0,0,1-.23.2c-.06,0-.15.11-.22.09s-.09-.12-.13-.18L37,68.05l-.1,0c0,.13,0,.34.12.38a1.31,1.31,0,0,0,.5.07c.15.1.29.25.4.23s.28-.18.41-.29l-.08-.1-.19.13c-.06,0-.13.09-.18.08s-.07-.1-.09-.16A2.08,2.08,0,0,1,37.72,68.1Zm8.66-3.29-.41,0a.51.51,0,0,1-.25.19s-.09-.13-.14-.22-.13.15-.08.27A.31.31,0,0,0,46,65l.15-.22c.15.19.18.51.49.4a.42.42,0,0,0,.26-.45.85.85,0,0,0-.17.1C46.54,65.06,46.5,65.06,46.38,64.81Zm-4,4.16,0-.07a.78.78,0,0,0-.15.1c-.14.13-.26.28-.43,0,0,0-.08,0-.13,0l0,.08c.1.07.19.19.31.21S42.28,69.15,42.39,69Zm1.17,3.42c-.1.24-.08.51.06.55.35.12.4-.17.47-.41l0,.06-.37.24ZM44.9,73l0-.07a.35.35,0,0,0-.13.08c-.17.26-.27.27-.46,0a.3.3,0,0,0-.08-.08.11.11,0,0,0-.08,0s0,.07,0,.08.19.26.32.31.23-.07.34-.14S44.84,73.09,44.9,73Zm.63-7.48c0,.27.19.3.34.28s.22-.16.24-.37c-.11.08-.19.17-.27.18A.87.87,0,0,1,45.53,65.54Z"/><path class="cls-17" d="M40,44.11l.65-.36a1,1,0,0,0,1,0,9.69,9.69,0,0,1,2.6-.91.47.47,0,0,1,.38.11,13.64,13.64,0,0,1,1,1.1,19.47,19.47,0,0,1,2.6,4c.21.44.19.57-.22.82-.79.5-1.58,1-2.38,1.48-.65.4-1.32.76-2,1.16-.85.51-1.68,1-2.53,1.55-.48.28-1,.51-1.57.79,0-.22,0-.34,0-.47a9.81,9.81,0,0,0-.55-3.57,11,11,0,0,0-.67-1.54A3.56,3.56,0,0,0,37.27,47c-.15-.11-.19-.19-.06-.32.39-.36.76-.75,1.18-1.08s.91-.56,1.32-.89C39.88,44.58,39.93,44.32,40,44.11ZM42,43.9a3.57,3.57,0,0,1,.46,0c.06,0,.1.09.15.14a.86.86,0,0,1-.16.1c-.22.09-.45.15-.67.25a.37.37,0,0,0-.19.2.92.92,0,0,1-1.24.68.29.29,0,0,0-.22,0c-.24.17-.46.35-.7.53l-.16.12-.09-.05.31-.75-.06,0a7.44,7.44,0,0,0-2,1.62.68.68,0,0,0,.34,0c.59-.17,1.18-.32,1.75-.53A14,14,0,0,0,44,43.67a6,6,0,0,0,.51-.6l0-.07a1.36,1.36,0,0,0-.29,0,7.84,7.84,0,0,0-.83.23l-1.39.59,0,.07Zm-.8,8.26c.3.09.58,0,.65-.19s0-.14,0-.21c-.24.34-.33.36-.61.13A1.5,1.5,0,0,0,41,51.8c.16.32,0,.43-.19.53s-.33,0-.43-.22c-.08.19-.06.26.08.35S40.83,52.53,41.16,52.16Zm4.09-4.45c.09.14.24.32.49.21a.4.4,0,0,0,.23-.45.36.36,0,0,0-.14.16c-.08.17-.25.22-.37.1a.3.3,0,0,0-.46,0c-.13.16-.19.07-.27,0l-.11-.15,0,0c0,.17.08.37.29.35S45.09,47.81,45.25,47.71Zm-4.86-.41a1.27,1.27,0,0,0-.11.13c-.17.26-.24.27-.48.08l-.12,0c0,.05,0,.13,0,.14s.28.17.41.15S40.42,47.55,40.39,47.3ZM45,48.35c-.14.23.06.23.14.27s.3,0,.39-.3C45.38,48.41,45.22,48.64,45,48.35Z"/><path class="cls-17" d="M34,33.3c.3-.08.6-.18.91-.25,1-.2,1.92-.41,2.88-.58.77-.14,1.55-.19,2.31-.34a2.32,2.32,0,0,0,1.48-.78s.12-.05.18-.08,0,.13,0,.19a.69.69,0,0,1-.15.31,6.52,6.52,0,0,1-1,.87c-.75.46-1.56.85-2.33,1.29A2.43,2.43,0,0,0,37,36a.52.52,0,0,1-.18.33c-.3.23-.62.42-.91.65a7.71,7.71,0,0,1-2.15,1.11,5.7,5.7,0,0,0-.94.51A2.21,2.21,0,0,1,31.7,39a4.89,4.89,0,0,0-.53.09c-.13,0-.21,0-.24-.14-.21-.84-.41-1.68-.64-2.51a7.19,7.19,0,0,1,.5-5.31,6.25,6.25,0,0,1,2.15-2.33,24.67,24.67,0,0,1,2.14-1.33,2.66,2.66,0,0,0,.83-.77A1.89,1.89,0,0,1,37.07,26a1.3,1.3,0,0,1,.44,0,.65.65,0,0,1,.58.81,4.44,4.44,0,0,1-.88,2.15c-.67.92-1.35,1.83-2.05,2.73-.22.29-.49.53-.74.81s-.31.38-.46.57a.42.42,0,0,0-.06.19Zm1.47-5,0-.06c-.22.12-.46.24-.67.38a.62.62,0,0,0-.25.66.63.63,0,0,0,.47.5,1,1,0,0,0,.92-.21.75.75,0,0,0,.23-.83A.8.8,0,0,0,35.42,28.27Zm-3.71,8.37c-.14,0-.5.31-.51-.31-.09.12-.16.16-.16.21,0,.37.32.33.47.34.15.22.23.44.39.53s.36,0,.5-.18a.63.63,0,0,0-.19,0c-.11,0-.28,0-.32-.05A2.51,2.51,0,0,1,31.71,36.64Zm.36-4.88-.73-.24s0,.16,0,.17a4,4,0,0,0,.44.11c.11.14.18.33.31.39s.34-.06.45-.24C32.38,31.86,32,32.25,32.07,31.76Zm5.19-4.65a.38.38,0,0,0,0-.51.34.34,0,0,0-.29-.05.33.33,0,0,0-.15.25c0,.08.12.16.2.22A.92.92,0,0,0,37.26,27.11Zm-1.17,7.63c-.07.07-.15.12-.15.17a.27.27,0,0,0,.24.32.31.31,0,0,0,.37-.21s0-.09,0-.09a.17.17,0,0,0-.12,0C36.16,35.07,36.16,35.07,36.09,34.74Zm-.33.12v-.12c-.32.12-.39,0-.4-.28-.07.08-.15.18-.12.25a.45.45,0,0,0,.24.23C35.56,35,35.67,34.89,35.76,34.86Zm-3.89-2.25-.13,0c-.15.08-.32.18-.31-.13,0,0-.07-.06-.08,0a.13.13,0,0,0-.08.08.3.3,0,0,0,.26.34C31.71,32.92,31.81,32.8,31.87,32.61Z"/><path class="cls-17" d="M40.64,31.78A5,5,0,0,1,40,32c-.62.1-1.24.15-1.86.25-1,.18-2.07.37-3.1.57-.17,0-.34.1-.51.14s-.1,0-.11,0,0-.09,0-.12c.44-.45.76-1,1.49-1.17s1.3-.33,2-.46c.46-.1.93-.14,1.39-.21.13,0,.18,0,.21.15.08.28.18.35.48.3a.27.27,0,0,1,.3.13C40.27,31.65,40.44,31.68,40.64,31.78Z"/><path class="cls-17" d="M46.53,42.28l.57-.05a1.39,1.39,0,0,1,1,.22c.19.14.22.35,0,.47a1.22,1.22,0,0,1-.64.25,10.19,10.19,0,0,1-1.35-.08S46.1,43,46.08,43l.68.07a2,2,0,0,0,1.12-.1c.09,0,.21-.17.2-.24s-.12-.2-.22-.23a2.24,2.24,0,0,0-1.15,0c-.12,0-.32,0-.37-.06s0-.29.16-.38c.31-.21.63-.41.92-.64a1.27,1.27,0,0,0,.22-.38,1.42,1.42,0,0,0-.45,0,4.59,4.59,0,0,0-2,1.27l-.22.24-.06,0c0-.07,0-.15.06-.18.35-.31.7-.62,1.07-.91a2.72,2.72,0,0,1,.68-.39,1.3,1.3,0,0,1,.91-.18c.23.08.34.24.18.42a4.77,4.77,0,0,1-.71.63c-.18.14-.38.25-.57.37Z"/><path class="cls-17" d="M35.51,49.39a2.43,2.43,0,0,0,.3-.34c.24-.41.46-.84.69-1.26a1.31,1.31,0,0,1,.2-.21l0,0c0,.05,0,.1,0,.13-.25.47-.5,1-.77,1.42a1.36,1.36,0,0,1-.32.36c-.08.06-.26.1-.31,0a.41.41,0,0,1-.12-.33,5.46,5.46,0,0,1,.26-.67l.1-.21H35.4a.56.56,0,0,1-.25.05.68.68,0,0,1-.4-.14.44.44,0,0,1,.08-.39,3.53,3.53,0,0,1,.66-.49,2.47,2.47,0,0,1,.46-.15l0,.08-.2.13a8.1,8.1,0,0,0-.7.42c-.08,0-.1.19-.15.29a1.87,1.87,0,0,0,.32,0,1.57,1.57,0,0,0,.3-.12c.17-.07.28,0,.27.17a.55.55,0,0,1-.07.24c-.09.18-.2.36-.29.55a1.37,1.37,0,0,0,0,.28Z"/><path class="cls-17" d="M40.23,31.23A3.83,3.83,0,0,0,40,29.5a.5.5,0,0,1,0-.21s.12.06.16.11A3.25,3.25,0,0,1,40.86,31a.65.65,0,0,1,0,.27c-.07.17-.2.29-.37.23S40.3,31.33,40.23,31.23Z"/><path class="cls-17" d="M39.27,28.94c-.36-.49-.58-1.06-1.19-1.25l.21-.91A3.42,3.42,0,0,1,39.27,28.94Z"/><path class="cls-17" d="M29.29,39.73a1.7,1.7,0,0,1-.31-.06.36.36,0,0,1-.13-.65,1,1,0,0,1,.78-.18,2,2,0,0,1,.35.06c.06,0,.1.08.16.12l0,.06L29.57,39a1.48,1.48,0,0,0-.42,0c-.14,0-.28.09-.26.27s.19.21.34.24l.28.06c0,.1-.05.2-.07.3a.86.86,0,0,0,0,.16.67.67,0,0,0,.2,0c.11-.06.21-.15.33-.21a.53.53,0,0,1,.18,0l0,.1c-.23.11-.45.23-.68.32a.29.29,0,0,1-.27-.05c0-.06,0-.18,0-.28A1.09,1.09,0,0,1,29.29,39.73Z"/><path class="cls-17" d="M38.15,35.65c-.19,0-.28-.17-.19-.32a1.6,1.6,0,0,1,1.13-.81c.27-.06.38.09.31.36a.68.68,0,0,1-.43.46C38.71,35.46,38.42,35.55,38.15,35.65Zm0-.29.07.1.84-.35a.31.31,0,0,0,.12-.17,1.3,1.3,0,0,0,0-.22c-.09,0-.18,0-.24,0a3.44,3.44,0,0,0-.58.35A1.37,1.37,0,0,0,38.15,35.36Z"/><path class="cls-17" d="M40.09,30.93s0,.16-.07.22a.42.42,0,0,1-.31.11c-.05,0-.15-.15-.14-.22a3.71,3.71,0,0,0-.21-1.65s0-.1,0-.15a.45.45,0,0,1,.14.06A4.06,4.06,0,0,1,40.09,30.93Z"/><path class="cls-17" d="M37.14,48.56a2.43,2.43,0,0,0,.14.41c.25.42.27.72,0,1a.44.44,0,0,1-.54.17.35.35,0,0,1-.21-.42,3.12,3.12,0,0,1,.19-.59,2.48,2.48,0,0,1,.2-.44A.68.68,0,0,1,37.14,48.56Zm-.08.38a1.24,1.24,0,0,0-.34.85c0,.19.16.31.32.22a.57.57,0,0,0,.26-.29C37.4,49.42,37.24,49.19,37.06,48.94Z"/><path class="cls-17" d="M38.62,29.34A3.79,3.79,0,0,0,38.3,29a3.47,3.47,0,0,0-.43-.35c-.12-.07-.15-.14-.09-.26l.28-.59a2.92,2.92,0,0,1,.63,1.55Z"/><path class="cls-17" d="M40.56,31.71A.79.79,0,0,0,41,31l.4.06A1,1,0,0,1,40.56,31.71Z"/><path class="cls-17" d="M50.94,58.27a3.07,3.07,0,0,1,.28-.42,4.34,4.34,0,0,1,2.18-1.4,1.4,1.4,0,0,1,.54,0c.32,0,.38.23.22.5s-.5.41-.76.59-.47.28-.68.45-.24.36.08.46.42.1.62.18.24.15.24.22a.43.43,0,0,1-.19.32c-.34.13-.39.38-.37.69a1.49,1.49,0,0,1,0,.21.45.45,0,0,1-.44.53,5.42,5.42,0,0,1-.57,0v-.06l.26,0a2,2,0,0,0,.42-.08.41.41,0,0,0,.18-.24.61.61,0,0,0,0-.3.72.72,0,0,1,.35-.8,1.81,1.81,0,0,0,.23-.24l-.33-.13c-.18-.05-.37-.08-.55-.14a.33.33,0,0,1-.12-.61c.26-.21.55-.38.83-.57s.38-.26.56-.41.14-.22.12-.24-.22-.19-.32-.18a1.48,1.48,0,0,0-.92.29c-.17.13-.43.16-.6.31-.36.3-.68.65-1,1a1.46,1.46,0,0,0-.16.19Z"/><path class="cls-17" d="M35.37,67.22c-.34.1-.38.39-.46.66,0,.08-.12.14-.19.21l-.33.35c-.1.1-.18.22-.28.31a.39.39,0,0,1-.51.09.43.43,0,0,1,0-.54,7.56,7.56,0,0,1,.78-.82,2.8,2.8,0,0,1,.58-.35A.3.3,0,0,1,35.37,67.22Zm-.59.21a1.72,1.72,0,0,0-.33.22c-.24.25-.48.52-.7.79,0,0,0,.15,0,.23a.83.83,0,0,0,.22,0c.05,0,.09-.08.13-.13a3.69,3.69,0,0,0,.38-.41C34.62,67.91,34.84,67.76,34.78,67.43Z"/><path class="cls-17" d="M34.67,63.22c-.42-.7-.84-1.39-1.25-2.09a4.3,4.3,0,0,1-.27-.62.67.67,0,0,1,0-.24c.09,0,.21,0,.26,0a3.62,3.62,0,0,1,.6.64c.59,1,1.14,2,1.71,3l0,.07.09.23c-.09,0-.2.11-.29.09a2.37,2.37,0,0,1-.58-.21c-.92-.54-1.84-1.11-2.76-1.66a.55.55,0,0,0-.18-.07,2.9,2.9,0,0,0,.12.28c.39.78.79,1.55,1.17,2.34a2.27,2.27,0,0,1,.11.51.6.6,0,0,1-.56-.34c-.44-.77-.87-1.55-1.3-2.33-.17-.29-.32-.59-.47-.89s-.05-.31.22-.33a1.76,1.76,0,0,1,1,.35l2.2,1.33.07,0Z"/><path class="cls-17" d="M29.65,66.69v.74c0,.29-.1.49-.25.47s-.28-.22-.3-.42c-.05-.68-.11-1.36-.15-2s-.07-1.58-.09-2.36a.54.54,0,0,1,.05-.28c.07-.14.16-.18.35-.13a3.35,3.35,0,0,1,1.21.88c.31.26.57.59.89.83a3.26,3.26,0,0,1,.53.52c.25.29.55.55.83.82.12.13.09.27-.07.28a.87.87,0,0,1-.51-.1,5.52,5.52,0,0,1-.65-.63c-.15-.17-.27-.23-.49-.1-.42.23-.86.39-1.29.6-.05,0-.09.13-.09.2C29.62,66.24,29.64,66.5,29.65,66.69Zm1.29-2-1.45-1.37.11,2.08Z"/><path class="cls-17" d="M43.08,54.69a5.9,5.9,0,0,1,.69.4c1,.74,1.9,1.49,2.85,2.24a.16.16,0,0,1-.1.3c-.21,0-.45,0-.62-.2a1.12,1.12,0,0,0-.24-.19c-.3-.24-.29-.23-.61,0l-1,.56A.26.26,0,0,0,44,58c0,.34.11.68.16,1a.88.88,0,0,1,0,.28c0,.07-.07.19-.1.18s-.21,0-.23-.1a5,5,0,0,1-.28-.82c-.26-1.13-.5-2.26-.75-3.39-.07-.31,0-.4.25-.39Zm.83,2.7L45,56.71l-1.46-1.17-.06,0Z"/><path class="cls-17" d="M42.31,57.5c-.19.15-.33.28-.48.38-.33.23-.67.46-1,.67a.18.18,0,0,0-.07.29l.78,1.41c.07.12.12.26.18.39a.35.35,0,0,1-.55-.16l-1-1.73c-.31-.52-.6-1-.9-1.56-.09-.14-.07-.23.08-.33.7-.45,1.39-.93,2.09-1.38a.67.67,0,0,1,.67-.06c-.07.27-.7.69-2.35,1.59l.61,1.14c.07.12.14.1.23,0,.29-.2.6-.38.87-.59A.91.91,0,0,1,42.31,57.5Z"/><path class="cls-17" d="M54.38,48.29l-.34.23a1.28,1.28,0,0,0-.54,1c0,.32.18.46.49.37a2.3,2.3,0,0,1,1.85.15,1.48,1.48,0,0,1,.79.91,1.61,1.61,0,0,1-.26,1.25,2.29,2.29,0,0,1-1,.82,1.7,1.7,0,0,1-.56.05s-.09-.07-.09-.08.06-.12.11-.14l.46-.25a1.4,1.4,0,0,0,.73-1.2,1.27,1.27,0,0,0-1.25-1.29,4,4,0,0,0-.48.08,3.81,3.81,0,0,1-.67.07.7.7,0,0,1-.71-.86,1.41,1.41,0,0,1,1.29-1.19l.19,0Z"/><path class="cls-17" d="M47.19,57.34a2.16,2.16,0,0,1,.34-.17,1.62,1.62,0,0,0,1-.78.94.94,0,0,0-.05-1A1.38,1.38,0,0,0,47,54.72a4.47,4.47,0,0,1-1.08.12.91.91,0,0,1-.78-1.28,1,1,0,0,1,1-.73l.2.05-.37.27a.92.92,0,0,0-.32,1,.53.53,0,0,0,.67.42,7.62,7.62,0,0,1,.81-.14,1.78,1.78,0,0,1,1.94.95A1.27,1.27,0,0,1,48.69,57a1.78,1.78,0,0,1-1,.48,3.87,3.87,0,0,1-.48,0Z"/><path class="cls-17" d="M37.13,58.48a11.52,11.52,0,0,1-1.49.94l.62,1c.47.75.93,1.5,1.39,2.25,0,.07.1.14.09.21s-.1.2-.15.2a.52.52,0,0,1-.45-.23c-.59-.94-1.2-1.88-1.81-2.81l-.19-.34a2.91,2.91,0,0,1-.42.23,3.33,3.33,0,0,1-.55.1S34,60,34,59.94s0-.13.06-.15a4.23,4.23,0,0,1,.4-.24l1.88-1A.89.89,0,0,1,37.13,58.48Z"/><path class="cls-17" d="M56.35,47.24c-.44.12-.74.66-1.36.53,0-.08.07-.18.13-.22a7.76,7.76,0,0,1,.67-.5l1.72-1a.75.75,0,0,1,.76,0l-.58.41c-.35.23-.71.45-1,.64.4.56.82,1.08,1.18,1.64s.66,1.12,1,1.69c0,.06,0,.18,0,.26s-.26,0-.31-.1c-.41-.63-.8-1.27-1.2-1.91-.08-.13-.2-.24-.28-.37Z"/><path class="cls-17" d="M49.93,51.1a1.8,1.8,0,0,1-.16.15,1.5,1.5,0,0,0-.8,1.29,2.43,2.43,0,0,0,.77,2,1.11,1.11,0,0,0,1.23.28c.34-.14.66-.31,1-.48s.3-.17.55-.1a1,1,0,0,1-.14.2,3,3,0,0,1-1.85.68,1.88,1.88,0,0,1-1.61-1,2.21,2.21,0,0,1-.19-2.26,2.3,2.3,0,0,1,.51-.66A.69.69,0,0,1,49.93,51.1Z"/><path class="cls-17" d="M37.76,58a1.87,1.87,0,0,1,.42.3c.39.54.76,1.1,1.14,1.65l1,1.49c.08.12,0,.28-.1.28s-.41,0-.55-.18c-.36-.54-.73-1.07-1.1-1.6S38,59,37.7,58.59a1.45,1.45,0,0,1-.18-.32C37.45,58.08,37.53,58,37.76,58Z"/><path class="cls-17" d="M51.43,50.16a1.91,1.91,0,0,1,.44.34c.28.39.53.81.78,1.22s.68,1.06,1,1.6a.75.75,0,0,1,.05.31c-.11,0-.27,0-.34-.12a8.37,8.37,0,0,1-.68-.89l-1.42-2a1,1,0,0,1-.08-.14C51.1,50.3,51.18,50.2,51.43,50.16Z"/><path class="cls-17" d="M39.54,42.06c0-.35-.1-.64-.15-.93s-.06-.42-.08-.63.08-.31.26-.26a4.75,4.75,0,0,1,.81.33A6.57,6.57,0,0,1,41,41l.06,0c-.07-.29-.14-.57-.22-.86-.23-1-.47-1.89-.7-2.84a3.4,3.4,0,0,1-.08-.46c0-.15,0-.3.15-.37a.46.46,0,0,1,.48.2,3.29,3.29,0,0,1,.16.44c.31,1.2.61,2.41.92,3.62,0,.18.08.37.11.56a.4.4,0,0,1-.46.46,1.48,1.48,0,0,1-.91-.44A4.47,4.47,0,0,0,40,41c0,.33,0,.61.05.89a3.52,3.52,0,0,1,0,.65c0,.12-.09.31-.18.34a.61.61,0,0,1-.46-.08,6.47,6.47,0,0,1-.75-.73L36.47,39.7c-.12-.13-.26-.25-.38-.39a1,1,0,0,1-.09-.26,1,1,0,0,1,.25,0c.35,0,.53.31.75.53.81.8,1.6,1.62,2.4,2.43Z"/><path class="cls-17" d="M29.43,42.61v-.07c0-.18,0-.37.21-.42a.44.44,0,0,1,.51.17c.09.11.25.17.35.27.64.6,1.29,1.2,1.92,1.81l1.52,1.52a.9.9,0,0,1,.12.24,2.08,2.08,0,0,1-.32.12c-.42,0-.61-.29-.85-.53-.48-.45-.47-.46-1.06-.17-.41.2-.82.42-1.24.61a.24.24,0,0,0-.16.27c0,.4,0,.81,0,1.21a1.47,1.47,0,0,1,0,.21c0,.15-.06.28-.22.27s-.37,0-.39-.27c0-.56-.13-1.13-.17-1.69C29.59,45,29.51,43.82,29.43,42.61Zm.78.54.19,2.58,1.62-.8Z"/><path class="cls-17" d="M43.74,40.81c-.16,0-.21-.06-.26-.22-.14-.51-.3-1-.43-1.54-.24-.92-.48-1.84-.7-2.76a5.26,5.26,0,0,1-.13-1c0-.24.06-.25.3-.2a1.81,1.81,0,0,1,.89.53c.36.35.76.67,1.14,1l1.68,1.59c.17.16.34.31.5.48s.05.15.08.22a1,1,0,0,1-.23,0,.77.77,0,0,1-.55-.3c-.21-.19-.43-.38-.66-.56a.26.26,0,0,0-.23,0,8.17,8.17,0,0,0-.79.38,5.59,5.59,0,0,0-.66.41s0,.14,0,.21c.1.48.2,1,.29,1.44C44,40.7,44,40.86,43.74,40.81Zm-.17-2.24,1.36-.83L43,36l-.06,0Z"/><path class="cls-17" d="M35.17,44.93,36,44.4l1.65-1.07a.86.86,0,0,1,.84,0,1.34,1.34,0,0,1-.23.24c-.89.58-1.78,1.16-2.67,1.72a1.22,1.22,0,0,1-.38.13.48.48,0,0,1-.54-.22c-.49-.77-1-1.53-1.47-2.3-.29-.45-.56-.92-.83-1.38a3.48,3.48,0,0,1-.22-.43c-.11-.25,0-.37.27-.34a.68.68,0,0,1,.54.4c.38.65.79,1.3,1.16,2s.62,1.13.93,1.7A1.94,1.94,0,0,1,35.17,44.93Z"/><path class="cls-17" d="M46.82,35c-.06-.5-.11-1-.16-1.39a2.94,2.94,0,0,1,0-.59c0-.1.13-.2.2-.3a1.46,1.46,0,0,1,.28.21.63.63,0,0,1,.1.28c.22,1.59.44,3.18.65,4.77a1.19,1.19,0,0,1,0,.42c0,.11-.13.27-.22.28a.28.28,0,0,1-.35-.22c-.08-.49-.17-1-.24-1.47s-.12-1-.19-1.49a.32.32,0,0,0-.15-.19c-.41-.15-.83-.27-1.23-.43s-.65-.31-1-.48c-.08-.05-.12-.17-.17-.25s.22-.09.3-.07c.32.11.63.24.93.37Z"/><path class="cls-17" d="M49.77,31.45l-.15.08a1.74,1.74,0,0,0-1,1.39.73.73,0,0,0,.8.82c.36,0,.72-.05,1.07,0a1.72,1.72,0,0,1,1.49.95,1.36,1.36,0,0,1-.1,1.45,2.06,2.06,0,0,1-1.92,1,.8.8,0,0,1-.23-.11c.06-.07.12-.16.2-.19s.39-.11.57-.2a1.51,1.51,0,0,0,.95-1.41A1.25,1.25,0,0,0,50.18,34c-.36,0-.72,0-1.07,0a1.06,1.06,0,0,1-.94-1.63,1.59,1.59,0,0,1,1.21-1c.12,0,.25,0,.38,0Z"/><path class="cls-16" d="M34.67,63.22v.07l-.07,0Z"/><path class="cls-16" d="M30.94,64.73l-1.34.71-.11-2.08Z"/><path class="cls-16" d="M43.91,57.39l-.4-1.81.06,0L45,56.71Z"/><path class="cls-16" d="M30.21,43.15,32,44.93l-1.62.8Z"/><path class="cls-16" d="M43.57,38.57,42.93,36,43,36l1.94,1.75Z"/></g></g></svg>