<svg xmlns="http://www.w3.org/2000/svg" viewBox="0 0 214.94 19.47"><defs><style>.a{fill:#303030;}</style></defs><title>swagad3</title><path class="a" d="M25.31,4.73h2.85L30.83,14c.6,2.05,1,3.76,1.63,5.8h.11c.62-2,1-3.75,1.63-5.8l2.64-9.22h2.75L34,22.41H30.88Z" transform="translate(-25.31 -3.26)"/><path class="a" d="M41.26,5.11a1.73,1.73,0,0,1,3.45,0,1.73,1.73,0,0,1-3.45,0Zm.38,4.11h2.67V22.41H41.64Z" transform="translate(-25.31 -3.26)"/><path class="a" d="M47.11,20.9l1.27-1.72a5.89,5.89,0,0,0,3.77,1.52c1.58,0,2.35-.8,2.35-1.81,0-1.24-1.49-1.78-2.92-2.32-1.79-.66-3.82-1.62-3.82-3.83S49.53,8.9,52.43,8.9a6.93,6.93,0,0,1,4.25,1.53l-1.25,1.66a5,5,0,0,0-3-1.16c-1.49,0-2.19.76-2.19,1.68,0,1.14,1.39,1.58,2.85,2.12,1.84.69,3.9,1.51,3.9,4,0,2.2-1.75,4-5,4A8.1,8.1,0,0,1,47.11,20.9Z" transform="translate(-25.31 -3.26)"/><path class="a" d="M59.59,5.11a1.74,1.74,0,0,1,3.46,0,1.74,1.74,0,0,1-3.46,0ZM60,9.22h2.66V22.41H60Z" transform="translate(-25.31 -3.26)"/><path class="a" d="M67.26,18.15V11.36H65.34v-2l2-.13.32-3.65h2.21V9.22h3.47v2.14H69.92v6.8c0,1.59.56,2.43,2,2.43a4.37,4.37,0,0,0,1.44-.32l.47,2a8.28,8.28,0,0,1-2.57.48C68.3,22.73,67.26,20.88,67.26,18.15Z" transform="translate(-25.31 -3.26)"/><path class="a" d="M82.09,18.15V11.36H80.17v-2l2-.13.32-3.65h2.22V9.22h3.47v2.14H84.76v6.8c0,1.59.56,2.43,1.95,2.43a4.37,4.37,0,0,0,1.44-.32l.48,2a8.33,8.33,0,0,1-2.57.48C83.13,22.73,82.09,20.88,82.09,18.15Z" transform="translate(-25.31 -3.26)"/><path class="a" d="M91.1,3.26h2.67v5.1L93.66,11A6.16,6.16,0,0,1,98,8.9c2.8,0,4,1.85,4,5.2v8.31H99.34v-8c0-2.31-.68-3.25-2.27-3.25-1.25,0-2.1.63-3.3,1.84v9.38H91.1Z" transform="translate(-25.31 -3.26)"/><path class="a" d="M105.05,15.83c0-4.29,2.94-6.93,6-6.93,3.46,0,5.35,2.49,5.35,6.22a7.4,7.4,0,0,1-.12,1.39h-8.62c.21,2.57,1.81,4.14,4.13,4.14a5.71,5.71,0,0,0,3.17-1l.93,1.7a8,8,0,0,1-4.44,1.39C107.88,22.73,105.05,20.17,105.05,15.83Zm9-1.17c0-2.34-1-3.68-3-3.68-1.69,0-3.2,1.32-3.47,3.68Z" transform="translate(-25.31 -3.26)"/><path class="a" d="M125.15,4.73h4.57c5.43,0,8.49,3,8.49,8.77s-3.06,8.91-8.36,8.91h-4.7Zm4.38,15.49c3.85,0,5.9-2.31,5.9-6.72s-2.05-6.58-5.9-6.58h-1.69v13.3Z" transform="translate(-25.31 -3.26)"/><path class="a" d="M140.65,20.13l1.59-1.85a6.92,6.92,0,0,0,4.74,2.1c2.16,0,3.39-1,3.39-2.58s-1.21-2.15-2.85-2.85L145,13.86c-1.69-.71-3.57-2-3.57-4.62,0-2.76,2.42-4.84,5.75-4.84a7.5,7.5,0,0,1,5.33,2.23l-1.4,1.71a5.7,5.7,0,0,0-3.93-1.59c-1.83,0-3,.9-3,2.33s1.44,2.13,2.87,2.72l2.45,1c2.07.88,3.61,2.16,3.61,4.75,0,2.83-2.35,5.14-6.19,5.14A8.78,8.78,0,0,1,140.65,20.13Z" transform="translate(-25.31 -3.26)"/><path class="a" d="M160,4.73h3.1L169,22.41h-2.85l-2.89-9.64c-.6-1.93-1.14-3.91-1.69-5.9h-.1c-.52,2-1.07,4-1.67,5.9l-2.91,9.64h-2.75Zm-2.6,10.46h8.23v2.13h-8.23Z" transform="translate(-25.31 -3.26)"/><path class="a" d="M175.35,20.13l1.59-1.85a6.92,6.92,0,0,0,4.74,2.1c2.16,0,3.39-1,3.39-2.58s-1.21-2.15-2.85-2.85l-2.47-1.09c-1.7-.71-3.58-2-3.58-4.62,0-2.76,2.42-4.84,5.75-4.84a7.5,7.5,0,0,1,5.33,2.23l-1.4,1.71a5.7,5.7,0,0,0-3.93-1.59c-1.83,0-3,.9-3,2.33s1.44,2.13,2.87,2.72l2.45,1c2.07.88,3.61,2.16,3.61,4.75,0,2.83-2.35,5.14-6.19,5.14A8.78,8.78,0,0,1,175.35,20.13Z" transform="translate(-25.31 -3.26)"/><path class="a" d="M190.67,18.15V11.36h-1.92v-2l2.05-.13.32-3.65h2.22V9.22h3.46v2.14h-3.46v6.8c0,1.59.56,2.43,1.95,2.43a4.37,4.37,0,0,0,1.44-.32l.48,2a8.33,8.33,0,0,1-2.57.48C191.71,22.73,190.67,20.88,190.67,18.15Z" transform="translate(-25.31 -3.26)"/><path class="a" d="M198.35,15.83c0-4.4,2.93-6.93,6.19-6.93s6.2,2.53,6.2,6.93-2.94,6.9-6.2,6.9S198.35,20.2,198.35,15.83Zm9.64,0c0-2.83-1.35-4.74-3.45-4.74s-3.45,1.91-3.45,4.74,1.35,4.71,3.45,4.71S208,18.66,208,15.83Z" transform="translate(-25.31 -3.26)"/><path class="a" d="M214,9.22h2.2l.21,2.38h.08a4.51,4.51,0,0,1,3.75-2.7,3.21,3.21,0,0,1,1.45.27l-.48,2.32a4,4,0,0,0-1.32-.22c-1.08,0-2.38.77-3.22,2.88v8.26H214Z" transform="translate(-25.31 -3.26)"/><path class="a" d="M222.54,15.83c0-4.29,2.93-6.93,6-6.93,3.47,0,5.36,2.49,5.36,6.22a8.35,8.35,0,0,1-.12,1.39h-8.63c.21,2.57,1.81,4.14,4.13,4.14a5.77,5.77,0,0,0,3.18-1l.92,1.7a8,8,0,0,1-4.44,1.39C225.36,22.73,222.54,20.17,222.54,15.83Zm9-1.17c0-2.34-1-3.68-3-3.68-1.69,0-3.2,1.32-3.47,3.68Z" transform="translate(-25.31 -3.26)"/><path class="a" d="M236.63,20.85a1.81,1.81,0,1,1,1.81,1.88A1.82,1.82,0,0,1,236.63,20.85Z" transform="translate(-25.31 -3.26)"/></svg>